<svg xmlns="http://www.w3.org/2000/svg" xmlns:xlink="http://www.w3.org/1999/xlink" version="1.1" enable-background="new 0 0 100 100" xml:space="preserve" width="81" height="84" style=""><rect id="backgroundrect" width="100%" height="100%" x="0" y="0" fill="none" stroke="none" class="" style=""/><g class="currentLayer" style=""><title>Layer 1</title><g id="svg_1" class=""><path fill="none" d="M21.443452514648435,32.728288009643556 c0.29100000000000004,0.29200000000000004 0.5960000000000001,0.43600000000000005 0.8830000000000001,0.38500000000000006 c0.07600000000000001,-0.014000000000000002 0.14700000000000002,-0.04200000000000001 0.21500000000000002,-0.08100000000000002 c0.05700000000000001,-0.03200000000000001 0.11200000000000002,-0.07100000000000001 0.16200000000000003,-0.12100000000000001 c0,0.0010000000000000002 0.0010000000000000002,0.0020000000000000005 0.0010000000000000002,0.003000000000000001 c0.0010000000000000002,-0.0010000000000000002 0.0020000000000000005,-0.0010000000000000002 0.003000000000000001,-0.0020000000000000005 c1.217,3.791 3.407,7.569 6.182,10.201 c0.3960000000000001,0.37600000000000006 0.805,0.7290000000000001 1.224,1.055 c1.192,0.926 2.475,1.622 3.817,2.041 c0.32700000000000007,0.10200000000000001 0.6540000000000001,0.2 0.987,0.266 c0.5680000000000001,0.11000000000000001 1.147,0.17200000000000001 1.733,0.17200000000000001 c2.329,0 4.536,-0.93 6.506,-2.449 c3.374,-2.604 6.046,-6.9350000000000005 7.441,-11.283 c0.0010000000000000002,0.0010000000000000002 0.003000000000000001,0.0020000000000000005 0.004000000000000001,0.003000000000000001 c0.0010000000000000002,-0.0010000000000000002 0.0020000000000000005,-0.0020000000000000005 0.0020000000000000005,-0.004000000000000001 c0.11300000000000002,0.10800000000000001 0.24200000000000002,0.17600000000000002 0.38100000000000006,0.2 c0.12200000000000001,0.021000000000000005 0.24800000000000003,0.007000000000000002 0.37400000000000005,-0.03900000000000001 c0.128,-0.04600000000000001 0.257,-0.125 0.38300000000000006,-0.231 c0.6330000000000001,-0.537 1.231,-1.795 1.5030000000000001,-3.322 c0.09000000000000002,-0.49800000000000005 0.139,-0.98 0.14600000000000002,-1.4300000000000002 c0.026000000000000006,-1.347 -0.29500000000000004,-2.395 -0.8560000000000001,-2.6580000000000004 c-0.05600000000000001,-0.026000000000000006 -0.11000000000000001,-0.04400000000000001 -0.17,-0.05500000000000001 l-1.703,1.6400000000000001 l-20.96,-10.789 c-6.852,-0.6340000000000001 -7.94,8.52 -8.023,9.337 c-0.005000000000000001,0.038000000000000006 -0.006000000000000002,0.05800000000000001 -0.006000000000000002,0.05900000000000001 v-0.0010000000000000002 c-0.24300000000000002,-0.19700000000000004 -0.49100000000000005,-0.28800000000000003 -0.7300000000000001,-0.24700000000000003 c-0.10400000000000001,0.017000000000000005 -0.201,0.06200000000000001 -0.29200000000000004,0.126 c-0.49500000000000005,0.35700000000000004 -0.7690000000000001,1.381 -0.7330000000000001,2.6630000000000003 c0.012000000000000002,0.42700000000000005 0.05900000000000001,0.8830000000000001 0.14200000000000002,1.353 C20.31645251464844,30.948288009643555 20.854452514648436,32.140288009643555 21.443452514648435,32.728288009643556 z" id="svg_2"/><path fill="none" d="M50.60445251464844,32.914288009643556 c0,0.0010000000000000002 -0.0010000000000000002,0.0020000000000000005 -0.0010000000000000002,0.003000000000000001 c0.11200000000000002,0.10500000000000001 0.23900000000000002,0.17300000000000001 0.37600000000000006,0.19600000000000004 c0.0020000000000000005,0 0.003000000000000001,0 0.005000000000000001,0 C50.84645251464843,33.08928800964355 50.71845251464843,33.021288009643555 50.60445251464844,32.914288009643556 z" id="svg_3"/><path fill="none" d="M28.88945251464844,43.113288009643554 c-2.775,-2.632 -4.965,-6.41 -6.182,-10.199 c-0.0010000000000000002,0 -0.0010000000000000002,0.0010000000000000002 -0.0020000000000000005,0.0010000000000000002 c1.3920000000000001,4.33 4.051,8.646 7.404,11.25 c1.193,0.93 2.478,1.6260000000000001 3.822,2.044 c-1.343,-0.41900000000000004 -2.625,-1.115 -3.817,-2.041 C29.69445251464844,43.84228800964355 29.28645251464844,43.48928800964355 28.88945251464844,43.113288009643554 z" id="svg_4"/><path fill="none" d="M46.613452514648436,45.37628800964355 c-0.013000000000000003,-0.005000000000000001 -0.022000000000000006,-0.011000000000000003 -0.03400000000000001,-0.017000000000000005 c-1.711,1.681 -3.609,3.016 -5.6370000000000005,3.824 c-1.375,0.545 -2.813,0.8480000000000001 -4.287,0.8480000000000001 c-1.474,0 -2.91,-0.30300000000000005 -4.286,-0.8480000000000001 c-2.046,-0.81 -3.9610000000000003,-2.162 -5.684,-3.871 c-0.0010000000000000002,0 -0.0010000000000000002,0 -0.0020000000000000005,0 c-0.0010000000000000002,1.836 -1.228,2.982 -2.266,3.6270000000000002 c-0.14800000000000002,0.09000000000000002 -0.29300000000000004,0.17200000000000001 -0.42900000000000005,0.24400000000000002 c-0.129,0.06600000000000002 -0.251,0.125 -0.36300000000000004,0.17600000000000002 c-0.271,0.125 -0.47900000000000004,0.19900000000000004 -0.5690000000000001,0.22900000000000004 c0,0 0,0 0,0.0020000000000000005 c0.06300000000000001,0.537 0.30300000000000005,1.059 0.6870000000000002,1.5510000000000002 c1.804,2.305 6.867,5.631 12.837,5.631 c5.968,0 11.032,-3.326 12.834,-5.631 c0.38600000000000007,-0.49200000000000005 0.6250000000000001,-1.016 0.6880000000000002,-1.549 c0.004000000000000001,-0.020000000000000004 0.004000000000000001,-0.031000000000000007 0.006000000000000002,-0.04900000000000001 C49.37145251464844,49.271288009643555 46.656452514648436,48.08428800964356 46.613452514648436,45.37628800964355 z" id="svg_5"/><polygon fill="none" points="69.05245208740234,67.40028953552246 66.57945251464844,62.39328575134277 64.10645294189453,67.40028953552246 58.57945251464844,68.20429039001465 62.57945251464844,72.10428428649902 61.636451721191406,77.60729026794434 66.57945251464844,75.00929069519043 71.52245330810547,77.60729026794434 70.57945251464844,72.10428428649902 74.57945251464844,68.20429039001465 " id="svg_6"/><path d="M66.33945251464844,54.012288009643555 c-3.098,-2.854 -6.013,-3.113 -6.957,-3.332 c-0.19100000000000003,-0.04500000000000001 -0.38700000000000007,-0.08700000000000002 -0.5820000000000001,-0.12300000000000001 c-5.005,-4.627 -1.588,-23.938 -1.588,-23.938 c0,-29.437 -19.91,-26.541 -19.91,-26.541 c-0.24400000000000002,-0.014000000000000002 -0.48400000000000004,-0.023000000000000007 -0.7230000000000001,-0.030000000000000006 c-0.23900000000000002,0.007000000000000002 -0.47800000000000004,0.018000000000000002 -0.7220000000000001,0.031000000000000007 c0,0 -19.911,-2.896 -19.911,26.54 c0,0 3.417,19.311 -1.589,23.938 c-0.19600000000000004,0.037000000000000005 -0.39000000000000007,0.08000000000000002 -0.5800000000000001,0.125 c-1.6500000000000001,0.38300000000000006 -9.315,0.8750000000000001 -13.464,15.146 c-0.561,1.9380000000000002 -0.36400000000000005,4.046 0.551,5.771 C4.262452514648437,78.02328800964355 22.134452514648437,80.00328800964355 36.57945251464844,80.00028800964355 c5.436,0.0020000000000000005 11.354,-0.277 16.805,-0.971 C51.617452514648434,76.45828800964355 50.57945251464844,73.35028800964355 50.57945251464844,70.00028800964355 C50.57945251464844,61.259288009643555 57.628452514648444,54.143288009643555 66.33945251464844,54.012288009643555 zM50.60345251464844,32.917288009643556 c0,-0.0010000000000000002 0.0010000000000000002,-0.0020000000000000005 0.0010000000000000002,-0.003000000000000001 c0.11300000000000002,0.10700000000000001 0.24100000000000002,0.17500000000000002 0.38000000000000006,0.19900000000000004 c-0.0020000000000000005,0 -0.003000000000000001,0.0010000000000000002 -0.005000000000000001,0 C50.84345251464843,33.09028800964356 50.71645251464844,33.02328800964356 50.60345251464844,32.917288009643556 zM20.65145251464844,25.503288009643555 c0.09100000000000003,-0.06400000000000002 0.18800000000000003,-0.10900000000000001 0.29200000000000004,-0.126 c0.23900000000000002,-0.04100000000000001 0.48700000000000004,0.05000000000000001 0.7300000000000001,0.24700000000000003 v0.0010000000000000002 c0,-0.0010000000000000002 0.0010000000000000002,-0.021000000000000005 0.006000000000000002,-0.05900000000000001 c0.08300000000000002,-0.8170000000000001 1.171,-9.971 8.023,-9.337 l20.96,10.789 l1.703,-1.6400000000000001 c0.06000000000000001,0.011000000000000003 0.11400000000000002,0.029000000000000005 0.17,0.05500000000000001 c0.562,0.263 0.8830000000000001,1.311 0.8560000000000001,2.6580000000000004 c-0.008000000000000002,0.45 -0.05700000000000001,0.932 -0.14600000000000002,1.4300000000000002 c-0.271,1.5270000000000001 -0.8700000000000001,2.785 -1.5030000000000001,3.322 c-0.126,0.10600000000000001 -0.255,0.18500000000000003 -0.38300000000000006,0.231 c-0.126,0.04500000000000001 -0.252,0.06000000000000001 -0.37400000000000005,0.03900000000000001 c-0.139,-0.024000000000000004 -0.268,-0.09200000000000003 -0.38100000000000006,-0.2 c0,0.0010000000000000002 -0.0010000000000000002,0.003000000000000001 -0.0020000000000000005,0.004000000000000001 c-0.0010000000000000002,-0.0010000000000000002 -0.003000000000000001,-0.0010000000000000002 -0.004000000000000001,-0.003000000000000001 c-1.3960000000000001,4.348 -4.067,8.68 -7.441,11.283 c-1.971,1.52 -4.178,2.449 -6.506,2.449 c-0.5860000000000001,0 -1.165,-0.06200000000000001 -1.733,-0.17200000000000001 c-0.3330000000000001,-0.06500000000000002 -0.6610000000000001,-0.16400000000000003 -0.987,-0.266 c0.32800000000000007,0.10200000000000001 0.6560000000000001,0.201 0.991,0.268 c-0.3350000000000001,-0.06600000000000002 -0.6640000000000001,-0.16600000000000004 -0.991,-0.268 c-1.344,-0.41800000000000004 -2.628,-1.114 -3.822,-2.044 c-3.353,-2.604 -6.013,-6.92 -7.404,-11.25 c0.0010000000000000002,0 0.0010000000000000002,-0.0010000000000000002 0.0020000000000000005,-0.0010000000000000002 c1.217,3.79 3.407,7.567 6.182,10.199 c-2.775,-2.632 -4.965,-6.411 -6.182,-10.201 c-0.0010000000000000002,0.0010000000000000002 -0.0020000000000000005,0.0010000000000000002 -0.003000000000000001,0.0020000000000000005 c0,-0.0010000000000000002 0,-0.0020000000000000005 -0.0010000000000000002,-0.003000000000000001 c-0.05000000000000001,0.04900000000000001 -0.10400000000000001,0.08800000000000002 -0.16200000000000003,0.12100000000000001 c-0.06800000000000002,0.03900000000000001 -0.14,0.06700000000000002 -0.21500000000000002,0.08100000000000002 c-0.28700000000000003,0.05100000000000001 -0.5920000000000001,-0.09300000000000003 -0.8830000000000001,-0.38500000000000006 c-0.5890000000000001,-0.5880000000000001 -1.127,-1.78 -1.383,-3.209 c-0.08300000000000002,-0.47000000000000003 -0.13,-0.926 -0.14200000000000002,-1.353 C19.882452514648435,26.884288009643555 20.156452514648436,25.860288009643554 20.65145251464844,25.503288009643555 zM50.10245251464844,49.59228800964355 c-0.06300000000000001,0.533 -0.30300000000000005,1.057 -0.6880000000000002,1.549 c-1.802,2.305 -6.866,5.631 -12.834,5.631 c-5.97,0 -11.033,-3.326 -12.837,-5.631 c-0.38400000000000006,-0.49200000000000005 -0.6240000000000001,-1.014 -0.6870000000000002,-1.5510000000000002 c0,-0.0020000000000000005 0,-0.0020000000000000005 0,-0.0020000000000000005 c0.09000000000000002,-0.029000000000000005 0.29800000000000004,-0.10400000000000001 0.5690000000000001,-0.22900000000000004 c0.11200000000000002,-0.05100000000000001 0.234,-0.10900000000000001 0.36300000000000004,-0.17600000000000002 c0.136,-0.07200000000000001 0.281,-0.15400000000000003 0.42900000000000005,-0.24400000000000002 c1.038,-0.6450000000000001 2.265,-1.791 2.266,-3.6270000000000002 c0.0010000000000000002,0 0.0010000000000000002,0 0.0020000000000000005,0 c1.723,1.709 3.638,3.062 5.684,3.871 c1.3760000000000001,0.545 2.8120000000000003,0.8480000000000001 4.286,0.8480000000000001 c1.475,0 2.912,-0.30300000000000005 4.287,-0.8480000000000001 c2.027,-0.809 3.926,-2.144 5.6370000000000005,-3.824 c0.012000000000000002,0.006000000000000002 0.021000000000000005,0.012000000000000002 0.03400000000000001,0.017000000000000005 c0.04300000000000001,2.708 2.758,3.896 3.495,4.167 C50.10645251464844,49.561288009643555 50.10645251464844,49.57228800964356 50.10245251464844,49.59228800964355 z" id="svg_7"/><path fill="none" stroke="#000000" stroke-width="0" stroke-linecap="round" stroke-linejoin="round" d="M28.88945251464844,43.113288009643554 c0.3960000000000001,0.37600000000000006 0.805,0.7290000000000001 1.224,1.055 c1.192,0.926 2.475,1.622 3.817,2.041 " id="svg_8"/><path fill="none" stroke="#000000" stroke-width="0" stroke-linecap="round" stroke-linejoin="round" d="M34.92245251464844,46.47728800964355 c-0.3350000000000001,-0.06600000000000002 -0.6640000000000001,-0.16600000000000004 -0.991,-0.268 " id="svg_9"/><path d="M66.57945251464844,56.000288009643555 c-7.721,0 -14,6.279 -14,14 s6.279,14 14,14 c7.719,0 14,-6.279 14,-14 S74.29845251464843,56.000288009643555 66.57945251464844,56.000288009643555 zM71.52245251464844,77.60728800964355 L66.57945251464844,75.00928800964356 l-4.943,2.599 L62.57945251464844,72.10428800964355 l-4,-3.899 l5.527,-0.804 L66.57945251464844,62.393288009643555 l2.473,5.008 L74.57945251464844,68.20428800964355 l-4,3.899 L71.52245251464844,77.60728800964355 z" id="svg_10"/></g></g></svg>