<svg xmlns="http://www.w3.org/2000/svg" xmlns:xlink="http://www.w3.org/1999/xlink" version="1.1" enable-background="new 0 0 100 100" xml:space="preserve" width="81" height="84" style=""><rect id="backgroundrect" width="100%" height="100%" x="0" y="0" fill="none" stroke="none" class="" style=""/><g class="currentLayer" style=""><title>Layer 1</title><g id="svg_1" class=""><path fill="none" d="M40.94245251464844,49.18428800964355 c2.027,-0.805 3.926,-2.14 5.6370000000000005,-3.824 C44.86845251464844,47.043288009643554 42.970452514648436,48.378288009643555 40.94245251464844,49.18428800964355 z" id="svg_2"/><path fill="none" d="M26.683452514648437,45.31328800964356 c-0.0010000000000000002,1.838 -1.228,2.985 -2.266,3.6270000000000002 C25.455452514648435,48.29828800964356 26.68245251464844,47.15028800964355 26.683452514648437,45.31328800964356 z" id="svg_3"/><path fill="none" d="M20.94445251464844,25.378288009643555 c0.23900000000000002,-0.04100000000000001 0.48700000000000004,0.05000000000000001 0.7300000000000001,0.24700000000000003 v-0.0010000000000000002 C21.431452514648434,25.427288009643554 21.183452514648437,25.336288009643553 20.94445251464844,25.378288009643555 c-0.10400000000000001,0.016000000000000004 -0.201,0.06100000000000001 -0.29200000000000004,0.125 c-0.49600000000000005,0.35700000000000004 -0.7690000000000001,1.381 -0.7330000000000001,2.6630000000000003 c-0.036000000000000004,-1.282 0.23800000000000002,-2.305 0.7330000000000001,-2.662 C20.74345251464844,25.440288009643552 20.84045251464844,25.395288009643558 20.94445251464844,25.378288009643555 z" id="svg_4"/><path fill="none" d="M21.680452514648437,25.567288009643555 c0.08300000000000002,-0.8170000000000001 1.171,-9.971 8.023,-9.337 l20.96,10.789 l1.703,-1.6400000000000001 c0.05900000000000001,0.011000000000000003 0.11500000000000002,0.029000000000000005 0.17,0.05500000000000001 c0.561,0.263 0.8830000000000001,1.31 0.8570000000000001,2.657 c0.024000000000000004,-1.347 -0.29700000000000004,-2.395 -0.8570000000000001,-2.6580000000000004 c-0.05500000000000001,-0.026000000000000006 -0.11100000000000002,-0.04400000000000001 -0.17,-0.05500000000000001 l-1.703,1.6400000000000001 l-20.96,-10.789 C22.851452514648436,15.595288009643554 21.763452514648435,24.749288009643557 21.680452514648437,25.567288009643555 c-0.005000000000000001,0.037000000000000005 -0.006000000000000002,0.05700000000000001 -0.006000000000000002,0.05800000000000001 v0.0010000000000000002 C21.674452514648436,25.625288009643555 21.675452514648434,25.60528800964355 21.680452514648437,25.567288009643555 z" id="svg_5"/><path fill="none" d="M21.443452514648435,32.728288009643556 c0.29100000000000004,0.29200000000000004 0.5960000000000001,0.43600000000000005 0.8830000000000001,0.38500000000000006 c0.139,-0.025000000000000005 0.267,-0.09400000000000003 0.38100000000000006,-0.201 c1.391,4.332 4.052,8.648 7.406,11.255 c1.483,1.153 3.102,1.972 4.809,2.31 c0.5690000000000001,0.11100000000000002 1.147,0.17 1.733,0.17 c2.331,0 4.537,-0.93 6.506,-2.449 c3.374,-2.604 6.046,-6.9350000000000005 7.443,-11.283 c0.11300000000000002,0.10800000000000001 0.24200000000000002,0.17600000000000002 0.38100000000000006,0.2 c0.24600000000000002,0.04300000000000001 0.508,-0.05700000000000001 0.7610000000000001,-0.271 c0.6330000000000001,-0.537 1.231,-1.795 1.5030000000000001,-3.322 c0.09000000000000002,-0.49800000000000005 0.137,-0.98 0.14500000000000002,-1.429 c0.025000000000000005,-1.347 -0.29700000000000004,-2.394 -0.8560000000000001,-2.657 c-0.05600000000000001,-0.026000000000000006 -0.11000000000000001,-0.04400000000000001 -0.17,-0.05500000000000001 l-1.703,1.6400000000000001 L29.70345251464844,16.230288009643555 c-6.852,-0.6340000000000001 -7.94,8.52 -8.023,9.337 c-0.005000000000000001,0.038000000000000006 -0.006000000000000002,0.05800000000000001 -0.006000000000000002,0.05900000000000001 v-0.0010000000000000002 c-0.24300000000000002,-0.19700000000000004 -0.49100000000000005,-0.28800000000000003 -0.7300000000000001,-0.24700000000000003 c-0.10400000000000001,0.017000000000000005 -0.201,0.06200000000000001 -0.29200000000000004,0.126 c-0.49600000000000005,0.35700000000000004 -0.7690000000000001,1.3800000000000001 -0.7330000000000001,2.662 c0.012000000000000002,0.42700000000000005 0.05800000000000001,0.8830000000000001 0.14200000000000002,1.353 C20.31645251464844,30.948288009643555 20.854452514648436,32.140288009643555 21.443452514648435,32.728288009643556 z" id="svg_6"/><path fill="none" d="M46.613452514648436,45.37628800964355 c-0.013000000000000003,-0.005000000000000001 -0.022000000000000006,-0.011000000000000003 -0.03400000000000001,-0.017000000000000005 c-1.711,1.685 -3.609,3.02 -5.6370000000000005,3.824 c-1.375,0.545 -2.813,0.8480000000000001 -4.287,0.8480000000000001 c-1.474,0 -2.91,-0.30300000000000005 -4.286,-0.8480000000000001 c-2.046,-0.8130000000000001 -3.9610000000000003,-2.162 -5.684,-3.871 c-0.0010000000000000002,0 -0.0010000000000000002,0 -0.0020000000000000005,0 c-0.0010000000000000002,1.838 -1.228,2.984 -2.266,3.6270000000000002 c-0.14800000000000002,0.09000000000000002 -0.29200000000000004,0.17200000000000001 -0.42900000000000005,0.24400000000000002 c-0.129,0.06500000000000002 -0.251,0.125 -0.36300000000000004,0.17600000000000002 c-0.271,0.125 -0.47900000000000004,0.19900000000000004 -0.5690000000000001,0.22900000000000004 c0,0 0,0 0,0.0020000000000000005 c0.06300000000000001,0.537 0.30300000000000005,1.059 0.6870000000000002,1.5510000000000002 c1.804,2.305 6.867,5.631 12.837,5.631 c5.968,0 11.032,-3.326 12.834,-5.631 c0.38600000000000007,-0.49200000000000005 0.6250000000000001,-1.016 0.6880000000000002,-1.549 c0.004000000000000001,-0.020000000000000004 0.004000000000000001,-0.031000000000000007 0.006000000000000002,-0.04900000000000001 C49.37145251464844,49.271288009643555 46.656452514648436,48.08428800964356 46.613452514648436,45.37628800964355 z" id="svg_7"/><path d="M66.33945251464844,54.012288009643555 c-3.098,-2.854 -6.013,-3.113 -6.957,-3.332 c-0.19100000000000003,-0.04500000000000001 -0.38700000000000007,-0.08700000000000002 -0.5820000000000001,-0.12300000000000001 c-5.005,-4.627 -1.588,-23.938 -1.588,-23.938 c0,-29.437 -19.91,-26.541 -19.91,-26.541 c-0.24400000000000002,-0.014000000000000002 -0.48400000000000004,-0.023000000000000007 -0.7230000000000001,-0.030000000000000006 c-0.23900000000000002,0.007000000000000002 -0.47800000000000004,0.018000000000000002 -0.7220000000000001,0.031000000000000007 c0,0 -19.911,-2.896 -19.911,26.54 c0,0 3.417,19.311 -1.589,23.938 c-0.19600000000000004,0.037000000000000005 -0.39000000000000007,0.08000000000000002 -0.5800000000000001,0.125 c-1.6500000000000001,0.38300000000000006 -9.315,0.8750000000000001 -13.464,15.146 c-0.561,1.9380000000000002 -0.36400000000000005,4.046 0.551,5.771 C4.262452514648437,78.02328800964355 22.134452514648437,80.00328800964355 36.57945251464844,80.00028800964355 c5.436,0.0020000000000000005 11.354,-0.277 16.805,-0.971 C51.617452514648434,76.45828800964355 50.57945251464844,73.35028800964355 50.57945251464844,70.00028800964355 C50.57945251464844,61.259288009643555 57.628452514648444,54.143288009643555 66.33945251464844,54.012288009643555 zM22.326452514648437,33.11428800964355 c-0.28700000000000003,0.05100000000000001 -0.5920000000000001,-0.09300000000000003 -0.8830000000000001,-0.38500000000000006 c-0.5890000000000001,-0.5880000000000001 -1.127,-1.78 -1.383,-3.209 c-0.08400000000000002,-0.47000000000000003 -0.13,-0.926 -0.14200000000000002,-1.354 c-0.036000000000000004,-1.282 0.23800000000000002,-2.306 0.7330000000000001,-2.6630000000000003 c0.09100000000000003,-0.06400000000000002 0.18800000000000003,-0.10900000000000001 0.29200000000000004,-0.126 c0.23900000000000002,-0.04100000000000001 0.48700000000000004,0.05000000000000001 0.7300000000000001,0.24700000000000003 v0.0010000000000000002 c0,-0.0010000000000000002 0.0010000000000000002,-0.021000000000000005 0.006000000000000002,-0.05900000000000001 c0.08300000000000002,-0.8170000000000001 1.171,-9.971 8.023,-9.337 l20.96,10.789 l1.703,-1.6400000000000001 c0.06000000000000001,0.011000000000000003 0.11400000000000002,0.029000000000000005 0.17,0.05500000000000001 c0.562,0.263 0.8830000000000001,1.311 0.8560000000000001,2.6580000000000004 c-0.008000000000000002,0.45 -0.05500000000000001,0.932 -0.14500000000000002,1.4300000000000002 c-0.271,1.5270000000000001 -0.8700000000000001,2.785 -1.5030000000000001,3.322 c-0.253,0.21400000000000002 -0.515,0.31400000000000006 -0.7610000000000001,0.271 c-0.139,-0.024000000000000004 -0.268,-0.09200000000000003 -0.38100000000000006,-0.2 c-1.397,4.348 -4.069,8.68 -7.443,11.283 c-1.969,1.52 -4.176,2.449 -6.506,2.449 c-0.5860000000000001,0 -1.165,-0.06000000000000001 -1.733,-0.17200000000000001 c-1.707,-0.3360000000000001 -3.326,-1.154 -4.809,-2.308 c-3.354,-2.606 -6.015,-6.923 -7.406,-11.254 C22.59345251464844,33.02028800964356 22.46545251464844,33.08928800964355 22.326452514648437,33.11428800964355 zM50.10245251464844,49.59228800964355 c-0.06300000000000001,0.533 -0.30300000000000005,1.057 -0.6880000000000002,1.549 c-1.802,2.305 -6.866,5.631 -12.834,5.631 c-5.97,0 -11.033,-3.326 -12.837,-5.631 c-0.38400000000000006,-0.49200000000000005 -0.6240000000000001,-1.014 -0.6870000000000002,-1.5510000000000002 c0,-0.0020000000000000005 0,-0.0020000000000000005 0,-0.0020000000000000005 c0.09000000000000002,-0.029000000000000005 0.29800000000000004,-0.10400000000000001 0.5690000000000001,-0.22900000000000004 c0.11200000000000002,-0.05100000000000001 0.234,-0.10900000000000001 0.36300000000000004,-0.17600000000000002 c0.136,-0.07200000000000001 0.281,-0.15400000000000003 0.42900000000000005,-0.24400000000000002 c1.038,-0.6430000000000001 2.265,-1.791 2.266,-3.6270000000000002 c0.0010000000000000002,0 0.0010000000000000002,0 0.0020000000000000005,0 c1.723,1.709 3.638,3.058 5.684,3.871 c1.3760000000000001,0.545 2.8120000000000003,0.8480000000000001 4.286,0.8480000000000001 c1.474,0 2.912,-0.30300000000000005 4.287,-0.8480000000000001 c2.027,-0.807 3.926,-2.142 5.6370000000000005,-3.824 c0.012000000000000002,0.006000000000000002 0.021000000000000005,0.012000000000000002 0.03400000000000001,0.017000000000000005 c0.04300000000000001,2.708 2.758,3.896 3.495,4.167 C50.10645251464844,49.561288009643555 50.10645251464844,49.57228800964356 50.10245251464844,49.59228800964355 z" id="svg_8"/><path d="M30.113452514648436,44.168288009643554 c1.483,1.1520000000000001 3.102,1.971 4.809,2.309 C33.21545251464844,46.13928800964356 31.59645251464844,45.320288009643555 30.113452514648436,44.168288009643554 c-3.354,-2.607 -6.015,-6.924 -7.406,-11.256 c-0.11400000000000002,0.10700000000000001 -0.24200000000000002,0.17600000000000002 -0.38100000000000006,0.201 c-0.28700000000000003,0.05100000000000001 -0.5920000000000001,-0.09300000000000003 -0.8830000000000001,-0.38500000000000006 c-0.5890000000000001,-0.5880000000000001 -1.127,-1.78 -1.383,-3.209 c-0.08300000000000002,-0.47000000000000003 -0.13,-0.926 -0.14200000000000002,-1.353 c0.012000000000000002,0.42800000000000005 0.05800000000000001,0.8840000000000001 0.14200000000000002,1.354 c0.256,1.429 0.794,2.621 1.383,3.209 c0.29100000000000004,0.29200000000000004 0.5960000000000001,0.43600000000000005 0.8830000000000001,0.38500000000000006 c0.139,-0.025000000000000005 0.267,-0.09400000000000003 0.38100000000000006,-0.2 C24.098452514648436,37.24528800964355 26.759452514648437,41.561288009643555 30.113452514648436,44.168288009643554 z" id="svg_9"/><path d="M51.74645251464844,32.84228800964355 c-0.253,0.21400000000000002 -0.515,0.31400000000000006 -0.7610000000000001,0.271 c-0.139,-0.024000000000000004 -0.268,-0.09200000000000003 -0.38100000000000006,-0.2 c-1.397,4.348 -4.069,8.679 -7.443,11.284 c3.374,-2.604 6.046,-6.9350000000000005 7.443,-11.283 c0.11300000000000002,0.10800000000000001 0.24200000000000002,0.17600000000000002 0.38100000000000006,0.2 C51.23145251464844,33.15728800964355 51.49345251464844,33.05728800964356 51.74645251464844,32.84228800964355 c0.6330000000000001,-0.536 1.231,-1.794 1.5030000000000001,-3.321 c0.09000000000000002,-0.49800000000000005 0.137,-0.98 0.14500000000000002,-1.4300000000000002 c-0.008000000000000002,0.44900000000000007 -0.05500000000000001,0.932 -0.14500000000000002,1.429 C52.977452514648434,31.04728800964355 52.379452514648435,32.305288009643554 51.74645251464844,32.84228800964355 z" id="svg_10"/><path d="M26.68545251464844,45.31328800964356 c1.723,1.709 3.638,3.06 5.684,3.871 C30.323452514648437,48.37028800964355 28.408452514648438,47.021288009643555 26.68545251464844,45.31328800964356 z" id="svg_11"/><path d="M36.65545251464844,50.03128800964355 c1.475,0 2.912,-0.30300000000000005 4.287,-0.8480000000000001 C39.56745251464844,49.729288009643554 38.129452514648435,50.03128800964355 36.65545251464844,50.03128800964355 z" id="svg_12"/><g id="svg_13"><rect x="60.02345275878906" y="67.69928550720215" fill="none" width="13.11299991607666" height="3.98799991607666" id="svg_14"/><path d="M66.57945251464844,56.000288009643555 c-7.721,0 -14,6.279 -14,14 s6.279,14 14,14 c7.719,0 14,-6.279 14,-14 S74.29845251464843,56.000288009643555 66.57945251464844,56.000288009643555 zM73.13645251464844,71.68828800964356 H60.022452514648435 v-3.988 h13.115 L73.13645251464844,71.68828800964356 z" id="svg_15"/></g></g></g></svg>