<?xml version="1.0" encoding="UTF-8" standalone="no"?>
<svg
   xmlns:dc="http://purl.org/dc/elements/1.1/"
   xmlns:cc="http://creativecommons.org/ns#"
   xmlns:rdf="http://www.w3.org/1999/02/22-rdf-syntax-ns#"
   xmlns:svg="http://www.w3.org/2000/svg"
   xmlns="http://www.w3.org/2000/svg"
   xmlns:sodipodi="http://sodipodi.sourceforge.net/DTD/sodipodi-0.dtd"
   xmlns:inkscape="http://www.inkscape.org/namespaces/inkscape"
   version="1.0"
   width="288.000000pt"
   height="288.000000pt"
   viewBox="0 0 288.000000 288.000000"
   preserveAspectRatio="xMidYMid meet"
   id="svg2"
   inkscape:version="0.91 r13725"
   sodipodi:docname="cart.svg">
  <defs
     id="defs12" />
  <sodipodi:namedview
     pagecolor="#ffffff"
     bordercolor="#666666"
     borderopacity="1"
     objecttolerance="10"
     gridtolerance="10"
     guidetolerance="10"
     inkscape:pageopacity="0"
     inkscape:pageshadow="2"
     inkscape:window-width="1920"
     inkscape:window-height="1027"
     id="namedview10"
     showgrid="false"
     inkscape:zoom="0.65555556"
     inkscape:cx="180"
     inkscape:cy="180"
     inkscape:window-x="-8"
     inkscape:window-y="-8"
     inkscape:window-maximized="1"
     inkscape:current-layer="svg2" />
  <metadata
     id="metadata4">
Created by potrace 1.10, written by Peter Selinger 2001-2011
<rdf:RDF>
  <cc:Work
     rdf:about="">
    <dc:format>image/svg+xml</dc:format>
    <dc:type
       rdf:resource="http://purl.org/dc/dcmitype/StillImage" />
  </cc:Work>
</rdf:RDF>
</metadata>
  <g
     transform="matrix(0.1,0,0,-0.1,0,288)"
     id="g6"
     style="fill:#1a4289;stroke:none">
    <path
       d="m 379,2211 c -36,-37 -38,-79 -5,-118 24,-27 28,-28 147,-33 114,-5 124,-7 127,-25 1,-11 9,-45 16,-75 29,-113 48,-187 63,-245 8,-33 21,-87 30,-120 8,-33 21,-87 30,-120 8,-33 21,-85 28,-115 73,-298 83,-322 148,-356 17,-9 47,-19 66,-23 38,-7 47,-24 14,-29 -32,-5 -113,-91 -134,-143 -88,-216 146,-443 356,-345 134,62 197,208 147,340 -22,57 -81,122 -128,142 -19,8 -32,19 -29,24 8,13 612,13 620,0 3,-5 -10,-16 -29,-24 -45,-19 -106,-84 -127,-138 -88,-215 147,-442 356,-344 134,62 197,208 147,340 -22,57 -81,122 -128,142 -38,16 -37,34 2,34 30,0 93,31 115,56 21,24 59,107 59,130 0,9 7,37 14,63 8,25 22,72 31,103 27,100 45,166 60,220 7,29 21,80 30,113 10,33 24,85 32,115 8,30 21,75 29,100 8,25 14,55 14,68 l 0,22 -745,0 c -603,0 -747,-2 -751,-13 -2,-7 2,-30 11,-50 8,-20 15,-49 15,-65 0,-16 6,-35 13,-41 10,-8 192,-12 618,-13 l 604,-3 -2,-25 c -2,-14 -10,-50 -19,-80 -9,-30 -23,-79 -30,-107 -8,-29 -21,-78 -29,-108 -9,-30 -22,-80 -30,-110 -9,-30 -23,-81 -32,-112 -9,-32 -17,-64 -19,-71 -3,-10 -112,-12 -521,-10 -509,3 -518,3 -521,23 -1,11 -9,47 -18,80 -9,33 -22,85 -29,115 -15,60 -35,141 -59,238 -9,34 -22,88 -30,120 -8,31 -22,86 -31,122 -9,36 -23,92 -31,125 -42,168 -60,202 -125,235 -32,17 -59,20 -174,20 l -137,0 -29,-29 z M 1221,771 c 20,-20 29,-39 29,-61 0,-43 -47,-90 -90,-90 -43,0 -90,47 -90,90 0,22 9,41 29,61 40,39 82,39 122,0 z m 810,0 c 20,-20 29,-39 29,-61 0,-43 -47,-90 -90,-90 -43,0 -90,47 -90,90 0,22 9,41 29,61 40,39 82,39 122,0 z"
       id="path8"
       inkscape:connector-curvature="0" />
  </g>
</svg>
