<?xml version="1.0" encoding="UTF-8"?>
<svg xmlns="http://www.w3.org/2000/svg" xmlns:xlink="http://www.w3.org/1999/xlink" width="50pt" height="50pt" viewBox="0 0 50 50" version="1.1">
<g id="surface1">
<path style=" stroke:none;fill-rule:nonzero;fill:rgb(10.196078%,25.882353%,53.72549%);fill-opacity:1;" d="M 6.640625 11.714844 C 6.007812 12.367188 5.96875 13.09375 6.554688 13.78125 C 6.96875 14.257812 7.042969 14.277344 9.121094 14.367188 C 11.117188 14.449219 11.300781 14.484375 11.351562 14.796875 C 11.367188 14.988281 11.507812 15.585938 11.625 16.113281 C 12.132812 18.085938 12.472656 19.390625 12.730469 20.40625 C 12.871094 20.976562 13.09375 21.921875 13.261719 22.503906 C 13.398438 23.082031 13.625 24.027344 13.78125 24.605469 C 13.917969 25.183594 14.144531 26.097656 14.277344 26.617188 C 15.554688 31.839844 15.722656 32.257812 16.863281 32.851562 C 17.164062 33.011719 17.6875 33.1875 18.015625 33.257812 C 18.6875 33.375 18.839844 33.675781 18.269531 33.765625 C 17.703125 33.851562 16.289062 35.359375 15.914062 36.269531 C 14.382812 40.054688 18.476562 44.027344 22.15625 42.308594 C 24.5 41.222656 25.601562 38.667969 24.726562 36.355469 C 24.34375 35.359375 23.308594 34.222656 22.488281 33.867188 C 22.15625 33.726562 21.921875 33.53125 21.976562 33.449219 C 22.121094 33.222656 32.695312 33.222656 32.835938 33.449219 C 32.890625 33.53125 32.660156 33.726562 32.328125 33.867188 C 31.539062 34.203125 30.472656 35.339844 30.105469 36.289062 C 28.5625 40.054688 32.675781 44.027344 36.339844 42.308594 C 38.6875 41.222656 39.792969 38.667969 38.914062 36.355469 C 38.523438 35.359375 37.492188 34.222656 36.671875 33.867188 C 36.007812 33.589844 36.027344 33.273438 36.707031 33.273438 C 37.234375 33.273438 38.332031 32.734375 38.722656 32.292969 C 39.089844 31.875 39.757812 30.417969 39.757812 30.019531 C 39.757812 29.855469 39.878906 29.367188 40 28.914062 C 40.140625 28.476562 40.382812 27.652344 40.542969 27.113281 C 41.015625 25.359375 41.332031 24.207031 41.59375 23.261719 C 41.714844 22.746094 41.964844 21.851562 42.121094 21.277344 C 42.289062 20.699219 42.535156 19.789062 42.679688 19.269531 C 42.824219 18.734375 43.046875 17.945312 43.183594 17.515625 C 43.324219 17.070312 43.429688 16.550781 43.429688 16.324219 L 43.429688 15.9375 L 30.382812 15.9375 C 19.820312 15.9375 17.304688 15.96875 17.234375 16.167969 C 17.203125 16.289062 17.269531 16.691406 17.425781 17.035156 C 17.5625 17.390625 17.6875 17.898438 17.6875 18.179688 C 17.6875 18.460938 17.789062 18.792969 17.914062 18.894531 C 18.085938 19.03125 21.277344 19.109375 28.734375 19.125 L 39.3125 19.179688 L 39.28125 19.613281 C 39.246094 19.855469 39.109375 20.488281 38.949219 21.015625 C 38.792969 21.539062 38.542969 22.402344 38.417969 22.886719 C 38.28125 23.398438 38.058594 24.253906 37.917969 24.777344 C 37.761719 25.308594 37.527344 26.183594 37.390625 26.703125 C 37.234375 27.234375 36.988281 28.128906 36.832031 28.664062 C 36.671875 29.230469 36.527344 29.789062 36.492188 29.914062 C 36.445312 30.089844 34.535156 30.125 27.371094 30.089844 C 18.460938 30.035156 18.304688 30.035156 18.25 29.679688 C 18.234375 29.492188 18.085938 28.863281 17.929688 28.285156 C 17.773438 27.699219 17.546875 26.792969 17.425781 26.273438 C 17.164062 25.222656 16.808594 23.796875 16.394531 22.105469 C 16.238281 21.503906 16.003906 20.5625 15.867188 19.996094 C 15.722656 19.457031 15.484375 18.496094 15.328125 17.859375 C 15.164062 17.234375 14.921875 16.253906 14.78125 15.675781 C 14.042969 12.730469 13.730469 12.132812 12.59375 11.558594 C 12.027344 11.261719 11.558594 11.207031 9.546875 11.207031 L 7.140625 11.207031 Z M 21.386719 36.9375 C 21.730469 37.28125 21.886719 37.617188 21.886719 38.003906 C 21.886719 38.753906 21.070312 39.578125 20.316406 39.578125 C 19.5625 39.578125 18.734375 38.753906 18.734375 38.003906 C 18.734375 37.617188 18.894531 37.28125 19.25 36.9375 C 19.945312 36.25 20.679688 36.25 21.386719 36.9375 Z M 35.566406 36.9375 C 35.921875 37.28125 36.078125 37.617188 36.078125 38.003906 C 36.078125 38.753906 35.253906 39.578125 34.5 39.578125 C 33.746094 39.578125 32.925781 38.753906 32.925781 38.003906 C 32.925781 37.617188 33.082031 37.28125 33.429688 36.9375 C 34.132812 36.25 34.875 36.25 35.566406 36.9375 Z M 35.566406 36.9375 "/>
</g>
</svg>
