<svg xmlns="http://www.w3.org/2000/svg" xmlns:xlink="http://www.w3.org/1999/xlink" version="1.1" enable-background="new 0 0 100 100" xml:space="preserve" width="82" height="84"><rect id="backgroundrect" width="100%" height="100%" x="0" y="0" fill="none" stroke="none" class="" style=""/><g class="currentLayer" style=""><title>Layer 1</title><g id="svg_1" class=""><path fill="none" d="M22.143716705322262,23.479509666442873 c0.08300000000000002,-0.793 1.08,-7.341 7.067,-7.612 C23.222716705322263,16.13750966644287 22.225716705322263,22.686509666442873 22.143716705322262,23.479509666442873 c-0.0020000000000000005,0.020000000000000004 -0.004000000000000001,0.04000000000000001 -0.004000000000000001,0.06000000000000001 c0,0 0,0 0.0010000000000000002,0 C22.140716705322262,23.51950966644287 22.142716705322265,23.49950966644287 22.143716705322262,23.479509666442873 z" id="svg_2"/><path fill="none" d="M42.39371670532226,16.16750966644287 c0.30500000000000005,-0.007000000000000002 0.6040000000000001,-0.011000000000000003 0.8970000000000001,-0.012000000000000002 C42.998716705322266,16.156509666442872 42.697716705322264,16.16050966644287 42.39371670532226,16.16750966644287 c-1.774,0.6330000000000001 -3.604,0.8450000000000001 -5.28,0.8360000000000001 C38.791716705322266,17.01250966644287 40.61971670532227,16.80050966644287 42.39371670532226,16.16750966644287 z" id="svg_3"/><path fill="none" d="M54.00571670532227,23.283509666442868 c-0.24000000000000002,-0.04200000000000001 -0.49000000000000005,0.04700000000000001 -0.7370000000000001,0.24000000000000002 l-0.013000000000000003,0.016000000000000004 l0.014000000000000002,-0.016000000000000004 C53.51671670532227,23.33050966644287 53.76671670532227,23.241509666442873 54.00571670532227,23.283509666442868 z" id="svg_4"/><path fill="none" d="M23.208716705322267,31.110509666442873 L23.208716705322267,31.110509666442873 c1.458,4.537 4.252,9.056 7.7780000000000005,11.752 c2.031,1.558 4.304,2.509 6.704,2.509 l0,0 c-2.4,0 -4.672000000000001,-0.9510000000000001 -6.704,-2.509 C27.461716705322267,40.16650966644287 24.667716705322263,35.646509666442874 23.208716705322267,31.110509666442873 z" id="svg_5"/><path fill="none" d="M52.17771670532227,31.11150966644287 c0.11700000000000002,0.11000000000000001 0.24800000000000003,0.18100000000000002 0.3940000000000001,0.20500000000000002 h0.0010000000000000002 C52.42771670532227,31.292509666442868 52.29471670532226,31.220509666442872 52.17771670532227,31.11150966644287 C52.17771670532227,31.110509666442873 52.17771670532227,31.110509666442873 52.17771670532227,31.11150966644287 z" id="svg_6"/><path fill="none" d="M49.794716705322266,18.261509666442873 c-0.06300000000000001,-0.774 -0.6560000000000001,-1.568 -0.6270000000000001,-2.092 C49.13771670532226,16.69350966644287 49.73171670532226,17.48750966644287 49.794716705322266,18.261509666442873 z" id="svg_7"/><path fill="none" d="M21.896716705322262,30.91650966644287 c0.22700000000000004,0.22700000000000004 0.461,0.36800000000000005 0.6900000000000002,0.402 C22.357716705322268,31.284509666442872 22.124716705322264,31.143509666442874 21.896716705322262,30.91650966644287 c-0.6110000000000001,-0.6100000000000001 -1.169,-1.848 -1.433,-3.332 c-0.018000000000000002,-0.09800000000000003 -0.027000000000000007,-0.19200000000000003 -0.04100000000000001,-0.28900000000000003 c0.016000000000000004,-1.039 0.06000000000000001,-2.045 0.131,-3.041 c0.129,-0.38200000000000006 0.30200000000000005,-0.6810000000000002 0.524,-0.8390000000000001 c0.09300000000000003,-0.06700000000000002 0.19400000000000003,-0.11200000000000002 0.30300000000000005,-0.131 c0,0 0,0 -0.0010000000000000002,0 c-0.10900000000000001,0.019000000000000003 -0.21000000000000002,0.06400000000000002 -0.30300000000000005,0.131 c-0.22200000000000003,0.15800000000000003 -0.3950000000000001,0.457 -0.524,0.8390000000000001 c-0.07100000000000001,0.996 -0.11500000000000002,2.002 -0.132,3.041 c0.014000000000000002,0.09700000000000003 0.023000000000000007,0.19100000000000003 0.04100000000000001,0.28900000000000003 C20.726716705322268,29.06850966644287 21.284716705322268,30.30650966644287 21.896716705322262,30.91650966644287 z" id="svg_8"/><path fill="none" d="M20.553716705322266,24.25450966644287 c-0.07100000000000001,0.996 -0.11500000000000002,2.002 -0.131,3.041 c0.014000000000000002,0.09700000000000003 0.023000000000000007,0.19100000000000003 0.04100000000000001,0.28900000000000003 c0.264,1.484 0.8220000000000001,2.722 1.4340000000000002,3.332 c0.22700000000000004,0.22700000000000004 0.46,0.36800000000000005 0.6890000000000002,0.402 c0.07600000000000001,0.011000000000000003 0.15100000000000002,0.011000000000000003 0.22600000000000003,-0.0020000000000000005 c0.14500000000000002,-0.024000000000000004 0.276,-0.09600000000000003 0.3950000000000001,-0.20600000000000002 l0,0 c0,0 0,0 0.0010000000000000002,0 c1.459,4.536 4.253,9.056 7.779,11.752 c2.031,1.558 4.304,2.509 6.704,2.509 c2.454,0 4.775,-0.996 6.839,-2.6100000000000003 c3.462,-2.71 6.206,-7.173 7.646,-11.651 c0,0 0.0020000000000000005,0 0.0020000000000000005,0.0010000000000000002 c0,0 0,0 0,-0.0010000000000000002 c0.11700000000000002,0.11000000000000001 0.25,0.18200000000000002 0.3960000000000001,0.20600000000000002 c0.259,0.04400000000000001 0.525,-0.05900000000000001 0.79,-0.281 c0.49500000000000005,-0.41800000000000004 0.9690000000000001,-1.2570000000000001 1.2930000000000001,-2.3200000000000003 c0.10700000000000001,-0.35400000000000004 0.2,-0.7330000000000001 0.271,-1.129 c0.04600000000000001,-0.258 0.08000000000000002,-0.513 0.10500000000000001,-0.7610000000000001 c0.04900000000000001,-0.49600000000000005 0.05700000000000001,-0.9670000000000001 0.026000000000000006,-1.3940000000000001 c-0.07600000000000001,-1.068 -0.39000000000000007,-1.862 -0.8760000000000001,-2.092 c-0.05700000000000001,-0.026000000000000006 -0.11400000000000002,-0.04400000000000001 -0.17800000000000002,-0.05600000000000001 c-0.23800000000000002,-0.04200000000000001 -0.48800000000000004,0.04700000000000001 -0.7350000000000001,0.24000000000000002 l-0.015000000000000003,0.016000000000000004 c0,-0.0010000000000000002 -0.0020000000000000005,-0.0020000000000000005 -0.0020000000000000005,-0.004000000000000001 c-0.004000000000000001,0.003000000000000001 -0.006000000000000002,0.004000000000000001 -0.008000000000000002,0.006000000000000002 c-0.0020000000000000005,-0.014000000000000002 -0.0020000000000000005,-0.029000000000000005 -0.004000000000000001,-0.04400000000000001 c-0.934,-3.5460000000000003 -2.111,-5.716 -3.324,-7.009 c-0.233,-0.127 -0.47900000000000004,-0.24100000000000002 -0.7500000000000001,-0.31900000000000006 c-0.028000000000000004,0.524 0.5640000000000001,1.318 0.6270000000000001,2.092 c-0.21100000000000002,-0.09800000000000003 -0.42000000000000004,-0.203 -0.6290000000000001,-0.31300000000000006 c-1.47,-0.7610000000000001 -2.959,-1.7040000000000002 -5.018,-1.78 c-0.275,-0.010000000000000002 -0.5630000000000001,-0.014000000000000002 -0.8550000000000001,-0.014000000000000002 s-0.5950000000000001,0.005000000000000001 -0.8980000000000001,0.012000000000000002 c-1.7730000000000001,0.6330000000000001 -3.604,0.8450000000000001 -5.28,0.8360000000000001 c-3.688,-0.019000000000000003 -6.638,-1.103 -6.638,-1.103 c-0.44400000000000006,-0.04200000000000001 -0.8660000000000001,-0.05100000000000001 -1.2650000000000001,-0.03300000000000001 c-5.9879999999999995,0.271 -6.985,6.819 -7.067,7.612 c-0.0010000000000000002,0.020000000000000004 -0.003000000000000001,0.04000000000000001 -0.003000000000000001,0.06000000000000001 H22.140716705322262 c0,0 0,0 -0.0010000000000000002,0 c0,0 0,0 -0.0010000000000000002,0 c-0.253,-0.20400000000000001 -0.511,-0.29900000000000004 -0.7570000000000001,-0.255 c-0.10900000000000001,0.019000000000000003 -0.21000000000000002,0.06400000000000002 -0.30300000000000005,0.131 C20.855716705322266,23.573509666442874 20.682716705322264,23.872509666442873 20.553716705322266,24.25450966644287 z" id="svg_9"/><path d="M67.98071670532227,54.00150966644287 c0.6820000000000002,0 1.348,0.05700000000000001 2.005,0.14100000000000001 c-3.604,-4.022 -7.233,-4.33 -8.327,-4.586 c-3.373,-0.789 -7.457,-0.453 -9.635,-1.133 c-0.38200000000000006,3.189 -6.521,5.727 -14.042,5.727 c-7.52,0 -13.661,-2.537 -14.043,-5.727 c-2.178,0.6820000000000002 -6.2620000000000005,0.3440000000000001 -9.635,1.133 c-1.7120000000000002,0.4 -9.672,0.911 -13.978,15.729 c-0.5830000000000001,2.014 -0.37800000000000006,4.2 0.5720000000000001,5.993 c3.528,6.672000000000001 22.084,8.727 37.084,8.724 c5.438,0.0010000000000000002 11.345,-0.271 16.832,-0.933 C53.03171670532227,76.48950966644287 51.980716705322266,73.36750966644287 51.980716705322266,70.00150966644287 C51.980716705322266,61.17950966644287 59.15871670532226,54.00150966644287 67.98071670532227,54.00150966644287 z" id="svg_10"/><path d="M20.254716705322267,32.649509666442874 c1.5870000000000002,4.27 4.099,8.417 7.206,11.45 c1.758,1.719 3.706,3.08 5.784,3.902 c1.428,0.5660000000000001 2.919,0.8810000000000001 4.451,0.8810000000000001 c1.53,0 3.021,-0.31300000000000006 4.45,-0.8810000000000001 c2.149,-0.8520000000000001 4.163,-2.277 5.968,-4.082 c3.03,-3.027 5.48,-7.109 7.037,-11.306000000000001 c1.196,-0.35300000000000004 2.451,-2.5940000000000003 2.962,-5.457 c0.556,-3.107 0.030000000000000006,-5.817 -1.1680000000000001,-6.269 c0.04300000000000001,-0.7580000000000001 0.07100000000000001,-1.525 0.06900000000000002,-2.313 c-0.028000000000000004,-11.262 -6.631,-17.81 -17.045,-18.508 c-9.077,-0.6080000000000001 -15.917,2.997 -19.03,8.994 c-1.048,2.017 -1.6460000000000001,4.54 -1.8760000000000001,7.281 c-0.35000000000000003,1.427 -0.555,2.911 -0.555,4.445 h0.03400000000000001 c-0.0010000000000000002,0.012000000000000002 -0.0020000000000000005,0.023000000000000007 -0.0020000000000000005,0.036000000000000004 c-0.022000000000000006,0.0020000000000000005 -0.04500000000000001,0.003000000000000001 -0.06600000000000002,0.008000000000000002 c-1.328,0.231 -1.933,3.064 -1.35,6.327 C17.655716705322266,30.156509666442872 19.007716705322267,32.47550966644287 20.254716705322267,32.649509666442874 zM20.55271670532227,24.25450966644287 c0.129,-0.38200000000000006 0.30200000000000005,-0.6810000000000002 0.524,-0.8390000000000001 c0.09300000000000003,-0.06700000000000002 0.19400000000000003,-0.11200000000000002 0.30300000000000005,-0.131 c0,0 0,0 0.0010000000000000002,0 l0,0 c0.24700000000000003,-0.04400000000000001 0.505,0.05100000000000001 0.7580000000000001,0.255 h0.0010000000000000002 c0,-0.020000000000000004 0.0020000000000000005,-0.04000000000000001 0.003000000000000001,-0.06000000000000001 c0.08300000000000002,-0.793 1.08,-7.3420000000000005 7.068,-7.612 c0.3990000000000001,-0.018000000000000002 0.8210000000000001,-0.008000000000000002 1.266,0.03300000000000001 c0,0 2.949,1.084 6.6370000000000005,1.103 c1.6780000000000002,0.009000000000000003 3.5060000000000002,-0.203 5.279,-0.8360000000000001 c0.30500000000000005,-0.007000000000000002 0.6050000000000001,-0.011000000000000003 0.8980000000000001,-0.012000000000000002 c0.29500000000000004,0 0.5820000000000001,0.004000000000000001 0.8570000000000001,0.014000000000000002 c2.057,0.07600000000000001 3.547,1.02 5.016,1.78 c0.21100000000000002,0.10900000000000001 0.42000000000000004,0.21400000000000002 0.6310000000000001,0.31300000000000006 c-0.06300000000000001,-0.774 -0.6580000000000001,-1.568 -0.6270000000000001,-2.092 c0.271,0.07800000000000001 0.516,0.19200000000000003 0.7500000000000001,0.31900000000000006 c1.213,1.2930000000000001 2.391,3.463 3.324,7.009 c0.0020000000000000005,0.015000000000000003 0.0020000000000000005,0.030000000000000006 0.004000000000000001,0.04400000000000001 c0.0020000000000000005,-0.0020000000000000005 0.004000000000000001,-0.003000000000000001 0.008000000000000002,-0.006000000000000002 c0,0.0020000000000000005 0.0020000000000000005,0.003000000000000001 0.0020000000000000005,0.004000000000000001 l0.013000000000000003,-0.016000000000000004 c0.24700000000000003,-0.19300000000000003 0.49700000000000005,-0.28200000000000003 0.7370000000000001,-0.24000000000000002 c0.06300000000000001,0.012000000000000002 0.12100000000000001,0.030000000000000006 0.17800000000000002,0.05600000000000001 c0.48600000000000004,0.23 0.799,1.024 0.8750000000000001,2.092 c0.029000000000000005,0.42700000000000005 0.021000000000000005,0.8980000000000001 -0.027000000000000007,1.3940000000000001 c-0.023000000000000007,0.24800000000000003 -0.06000000000000001,0.502 -0.10500000000000001,0.7610000000000001 c-0.06900000000000002,0.3960000000000001 -0.16200000000000003,0.775 -0.271,1.129 c-0.32500000000000007,1.063 -0.798,1.901 -1.292,2.3200000000000003 c-0.265,0.22200000000000003 -0.533,0.32600000000000007 -0.791,0.281 l0,0 h-0.0010000000000000002 c-0.14600000000000002,-0.024000000000000004 -0.274,-0.09500000000000003 -0.3940000000000001,-0.20500000000000002 c-1.441,4.478 -4.184,8.94 -7.646,11.65 c-2.064,1.614 -4.386,2.6100000000000003 -6.84,2.6100000000000003 l0,0 l0,0 c-2.4,0 -4.673,-0.9510000000000001 -6.704,-2.509 c-3.526,-2.696 -6.319,-7.216 -7.779,-11.752 c-0.11900000000000002,0.11000000000000001 -0.25,0.18200000000000002 -0.3940000000000001,0.20600000000000002 c-0.07500000000000001,0.013000000000000003 -0.15000000000000002,0.014000000000000002 -0.22700000000000004,0.0020000000000000005 c-0.22900000000000004,-0.03400000000000001 -0.464,-0.17500000000000002 -0.6900000000000002,-0.402 c-0.6120000000000001,-0.6100000000000001 -1.17,-1.848 -1.435,-3.332 c-0.018000000000000002,-0.09800000000000003 -0.027000000000000007,-0.19200000000000003 -0.04100000000000001,-0.28900000000000003 C20.437716705322266,26.256509666442874 20.481716705322263,25.250509666442873 20.55271670532227,24.25450966644287 z" id="svg_11"/><path d="M44.53071670532226,42.76150966644287 c-2.063,1.614 -4.386,2.6100000000000003 -6.839,2.6100000000000003 l0,0 C40.145716705322265,45.37150966644287 42.46671670532226,44.37550966644287 44.53071670532226,42.76150966644287 c3.464,-2.71 6.206,-7.172 7.647,-11.65 c-0.0020000000000000005,0 -0.0020000000000000005,0 -0.0020000000000000005,-0.0010000000000000002 C50.736716705322266,35.588509666442874 47.992716705322266,40.05150966644287 44.53071670532226,42.76150966644287 z" id="svg_12"/><path d="M53.36271670532227,31.03550966644287 c-0.265,0.22200000000000003 -0.532,0.32500000000000007 -0.79,0.281 l0,0 C52.83071670532226,31.36150966644287 53.09871670532226,31.25750966644287 53.36271670532227,31.03550966644287 c0.49500000000000005,-0.41800000000000004 0.9680000000000001,-1.2570000000000001 1.2930000000000001,-2.3200000000000003 C54.33071670532226,29.778509666442872 53.85771670532226,30.61750966644287 53.36271670532227,31.03550966644287 z" id="svg_13"/><path d="M22.812716705322266,31.31650966644287 c-0.07400000000000001,0.013000000000000003 -0.15000000000000002,0.013000000000000003 -0.22600000000000003,0.0020000000000000005 C22.663716705322265,31.33050966644287 22.73871670532227,31.329509666442874 22.812716705322266,31.31650966644287 c0.14600000000000002,-0.024000000000000004 0.276,-0.09600000000000003 0.3950000000000001,-0.20600000000000002 l0,0 C23.088716705322263,31.220509666442872 22.957716705322262,31.292509666442868 22.812716705322266,31.31650966644287 z" id="svg_14"/><path d="M37.11371670532227,17.00350966644287 c-3.688,-0.019000000000000003 -6.6370000000000005,-1.103 -6.6370000000000005,-1.103 c-0.44500000000000006,-0.04200000000000001 -0.8660000000000001,-0.05100000000000001 -1.266,-0.03300000000000001 c0.3990000000000001,-0.018000000000000002 0.8200000000000001,-0.008000000000000002 1.2650000000000001,0.03300000000000001 C30.475716705322263,15.900509666442872 33.425716705322266,16.98450966644287 37.11371670532227,17.00350966644287 z" id="svg_15"/><path d="M22.138716705322267,23.539509666442868 c-0.253,-0.20400000000000001 -0.511,-0.29900000000000004 -0.7580000000000001,-0.255 l0,0 C21.626716705322266,23.24050966644287 21.88471670532227,23.335509666442874 22.138716705322267,23.539509666442868 L22.138716705322267,23.539509666442868 z" id="svg_16"/><path d="M49.166716705322266,17.94950966644287 c-1.47,-0.7610000000000001 -2.959,-1.7040000000000002 -5.017,-1.78 c-0.276,-0.010000000000000002 -0.5630000000000001,-0.014000000000000002 -0.8560000000000001,-0.014000000000000002 c0.29300000000000004,0 0.5800000000000001,0.004000000000000001 0.8550000000000001,0.014000000000000002 C46.20771670532226,16.24550966644287 47.69671670532227,17.18950966644287 49.166716705322266,17.94950966644287 z" id="svg_17"/><path d="M55.05871670532227,25.43150966644287 c-0.07600000000000001,-1.068 -0.38900000000000007,-1.862 -0.8750000000000001,-2.092 c-0.05700000000000001,-0.026000000000000006 -0.11400000000000002,-0.04400000000000001 -0.17800000000000002,-0.05600000000000001 c0.06300000000000001,0.012000000000000002 0.12100000000000001,0.030000000000000006 0.17700000000000002,0.05600000000000001 C54.66871670532227,23.56950966644287 54.98271670532226,24.363509666442873 55.05871670532227,25.43150966644287 z" id="svg_18"/><path d="M55.03171670532227,26.82550966644287 c0.05100000000000001,-0.49600000000000005 0.05900000000000001,-0.9670000000000001 0.027000000000000007,-1.3940000000000001 C55.087716705322265,25.85850966644287 55.08271670532227,26.329509666442874 55.03171670532227,26.82550966644287 z" id="svg_19"/><path d="M67.98071670532227,56.00150966644287 c-7.721,0 -14,6.279 -14,14 s6.279,14 14,14 c7.719,0 14,-6.279 14,-14 S75.69971670532226,56.00150966644287 67.98071670532227,56.00150966644287 zM71.42471670532227,75.83050966644286 l-3.221,-3.22 l-3.444,3.444 l-2.8200000000000003,-2.821 l3.444,-3.444 l-3.231,-3.231 l2.819,-2.8200000000000003 l3.232,3.231 l3.009,-3.009 l2.821,2.8200000000000003 l-3.01,3.01 l3.222,3.222 L71.42471670532227,75.83050966644286 z" id="svg_20"/></g></g></svg>