<svg xmlns="http://www.w3.org/2000/svg" xmlns:xlink="http://www.w3.org/1999/xlink" version="1.1" enable-background="new 0 0 100 100" xml:space="preserve" width="81" height="84"><rect id="backgroundrect" width="100%" height="100%" x="0" y="0" fill="none" stroke="none" class="" style=""/><g class="currentLayer" style=""><title>Layer 1</title><g id="svg_1" class=""><path fill="none" d="M25.433452514648437,38.79128800964355 c0.14300000000000002,0.23 0.28800000000000003,0.458 0.43800000000000006,0.6830000000000002 C25.722452514648438,39.250288009643555 25.577452514648435,39.021288009643555 25.433452514648437,38.79128800964355 z" id="svg_2"/><path fill="none" d="M26.347452514648438,40.155288009643556 c0.15300000000000002,0.21300000000000002 0.30500000000000005,0.42600000000000005 0.463,0.6320000000000001 C26.65145251464844,40.58128800964356 26.49945251464844,40.36828800964356 26.347452514648438,40.155288009643556 z" id="svg_3"/><path fill="none" d="M27.36245251464844,41.463288009643556 c0.15300000000000002,0.18400000000000002 0.30200000000000005,0.37100000000000005 0.46,0.547 C27.66445251464844,41.83428800964356 27.515452514648437,41.646288009643555 27.36245251464844,41.463288009643556 z" id="svg_4"/><path fill="none" d="M24.60945251464844,37.369288009643554 c0.13,0.24100000000000002 0.264,0.47800000000000004 0.4,0.7150000000000001 C24.873452514648434,37.847288009643556 24.739452514648434,37.60928800964356 24.60945251464844,37.369288009643554 z" id="svg_5"/><path fill="none" d="M22.97445251464844,33.667288009643556 c0.08500000000000002,0.23900000000000002 0.16500000000000004,0.47900000000000004 0.257,0.7160000000000001 c0.10300000000000001,0.264 0.21800000000000003,0.524 0.32900000000000007,0.786 c0.10200000000000001,0.24000000000000002 0.202,0.47900000000000004 0.31100000000000005,0.7170000000000001 c0.11800000000000002,0.258 0.24600000000000002,0.511 0.37300000000000005,0.7650000000000001 c0.11800000000000002,0.23700000000000002 0.23700000000000002,0.47300000000000003 0.36200000000000004,0.7070000000000001 c0.133,0.24800000000000003 0.271,0.49200000000000005 0.41100000000000003,0.7350000000000001 c0.134,0.232 0.272,0.462 0.41300000000000003,0.6890000000000002 c0.14600000000000002,0.234 0.29300000000000004,0.467 0.44500000000000006,0.6960000000000002 c0.15200000000000002,0.22800000000000004 0.31000000000000005,0.44900000000000007 0.468,0.6700000000000002 c0.15500000000000003,0.21600000000000003 0.30900000000000005,0.43200000000000005 0.46900000000000003,0.6410000000000001 c0.17700000000000002,0.23 0.36200000000000004,0.44900000000000007 0.547,0.6700000000000002 c0.15400000000000003,0.18500000000000003 0.30500000000000005,0.37400000000000005 0.464,0.551 c0.266,0.29700000000000004 0.542,0.5770000000000001 0.8210000000000001,0.8520000000000001 c0.08300000000000002,0.08200000000000002 0.16200000000000003,0.17200000000000001 0.24600000000000002,0.252 c-0.08300000000000002,-0.07900000000000001 -0.16200000000000003,-0.16900000000000004 -0.24500000000000002,-0.251 c0.47300000000000003,0.466 0.9580000000000001,0.909 1.464,1.303 c1.193,0.93 2.478,1.6260000000000001 3.822,2.044 c0.32700000000000007,0.10200000000000001 0.6540000000000001,0.2 0.987,0.266 c0.5680000000000001,0.11000000000000001 1.147,0.17200000000000001 1.733,0.17200000000000001 c2.329,0 4.536,-0.93 6.506,-2.449 c3.374,-2.604 6.046,-6.9350000000000005 7.441,-11.283 c0.0010000000000000002,0.0010000000000000002 0.003000000000000001,0.0020000000000000005 0.004000000000000001,0.003000000000000001 c0.0010000000000000002,-0.0010000000000000002 0.0020000000000000005,-0.0020000000000000005 0.0020000000000000005,-0.004000000000000001 c0.11300000000000002,0.10800000000000001 0.24200000000000002,0.17600000000000002 0.38100000000000006,0.2 c0.12200000000000001,0.021000000000000005 0.24800000000000003,0.007000000000000002 0.37400000000000005,-0.03900000000000001 c0.128,-0.04600000000000001 0.257,-0.125 0.38300000000000006,-0.231 c0.6330000000000001,-0.537 1.231,-1.795 1.5030000000000001,-3.322 c0.09000000000000002,-0.49800000000000005 0.139,-0.98 0.14600000000000002,-1.4300000000000002 c0.026000000000000006,-1.347 -0.29500000000000004,-2.395 -0.8560000000000001,-2.6580000000000004 c-0.05600000000000001,-0.026000000000000006 -0.11000000000000001,-0.04400000000000001 -0.17,-0.05500000000000001 l-1.703,1.6400000000000001 l-20.96,-10.789 c-6.852,-0.6340000000000001 -7.94,8.52 -8.023,9.337 c-0.005000000000000001,0.038000000000000006 -0.006000000000000002,0.05800000000000001 -0.006000000000000002,0.05900000000000001 v-0.0010000000000000002 c-0.24300000000000002,-0.19700000000000004 -0.49100000000000005,-0.28800000000000003 -0.7300000000000001,-0.24700000000000003 c-0.10400000000000001,0.017000000000000005 -0.201,0.06200000000000001 -0.29200000000000004,0.126 c-0.49500000000000005,0.35700000000000004 -0.7690000000000001,1.381 -0.7330000000000001,2.6630000000000003 c0.012000000000000002,0.42700000000000005 0.05900000000000001,0.8830000000000001 0.14200000000000002,1.353 c0.256,1.429 0.794,2.621 1.383,3.209 c0.29100000000000004,0.29200000000000004 0.5960000000000001,0.43600000000000005 0.8830000000000001,0.38500000000000006 c0.07600000000000001,-0.014000000000000002 0.14700000000000002,-0.04200000000000001 0.21500000000000002,-0.08100000000000002 c0.05700000000000001,-0.03200000000000001 0.11200000000000002,-0.07100000000000001 0.16200000000000003,-0.12100000000000001 c0,0.0010000000000000002 0.0010000000000000002,0.0020000000000000005 0.0010000000000000002,0.003000000000000001 c0.0010000000000000002,-0.0010000000000000002 0.0020000000000000005,-0.0010000000000000002 0.003000000000000001,-0.0020000000000000005 C22.78845251464844,33.164288009643556 22.884452514648437,33.41628800964355 22.97445251464844,33.667288009643556 z" id="svg_6"/><path fill="none" d="M50.60345251464844,32.917288009643556 c0.11200000000000002,0.10500000000000001 0.23900000000000002,0.17300000000000001 0.37600000000000006,0.19600000000000004 c0.0020000000000000005,0 0.003000000000000001,0 0.005000000000000001,0 c-0.139,-0.024000000000000004 -0.267,-0.09200000000000003 -0.38000000000000006,-0.19900000000000004 C50.60445251464844,32.915288009643554 50.60345251464844,32.917288009643556 50.60345251464844,32.917288009643556 z" id="svg_7"/><path fill="none" d="M23.875452514648437,35.89828800964356 c0.11400000000000002,0.24700000000000003 0.23600000000000002,0.49000000000000005 0.35700000000000004,0.7330000000000001 C24.111452514648434,36.38828800964355 23.989452514648434,36.14528800964356 23.875452514648437,35.89828800964356 z" id="svg_8"/><polygon fill="none" points="60.57945251464844,75.99928855895996 64.33045196533203,74.95728874206543 61.62145233154297,72.24828910827637 " id="svg_9"/><path fill="none" d="M70.77845251464844,64.23828800964355 c-0.31700000000000006,-0.31600000000000006 -0.8310000000000001,-0.31600000000000006 -1.146,0 l-7.482,7.482 l2.709,2.709 l7.482,-7.482 c0.31500000000000006,-0.31600000000000006 0.31500000000000006,-0.8310000000000001 0,-1.1480000000000001 L70.77845251464844,64.23828800964355 z" id="svg_10"/><path fill="none" d="M22.707452514648438,32.914288009643556 c-0.0010000000000000002,0 -0.0010000000000000002,0.0010000000000000002 -0.0020000000000000005,0.0010000000000000002 c0.06700000000000002,0.20800000000000002 0.15000000000000002,0.41400000000000003 0.22300000000000003,0.6210000000000001 C22.854452514648436,33.329288009643555 22.774452514648438,33.122288009643555 22.707452514648438,32.914288009643556 z" id="svg_11"/><path fill="none" d="M23.23445251464844,34.39528800964356 c0.09600000000000003,0.24700000000000003 0.20400000000000001,0.48900000000000005 0.30800000000000005,0.7340000000000001 C23.43845251464844,34.884288009643555 23.330452514648435,34.64128800964355 23.23445251464844,34.39528800964356 z" id="svg_12"/><path fill="none" d="M46.613452514648436,45.37628800964355 c-0.013000000000000003,-0.005000000000000001 -0.022000000000000006,-0.011000000000000003 -0.03400000000000001,-0.017000000000000005 c-1.711,1.681 -3.609,3.016 -5.6370000000000005,3.824 c-1.375,0.545 -2.813,0.8480000000000001 -4.287,0.8480000000000001 c-1.474,0 -2.91,-0.30300000000000005 -4.286,-0.8480000000000001 c-2.046,-0.81 -3.9610000000000003,-2.162 -5.684,-3.871 c-0.0010000000000000002,0 -0.0010000000000000002,0 -0.0020000000000000005,0 c-0.0010000000000000002,1.836 -1.228,2.982 -2.266,3.6270000000000002 c-0.14800000000000002,0.09000000000000002 -0.29300000000000004,0.17200000000000001 -0.42900000000000005,0.24400000000000002 c-0.129,0.06600000000000002 -0.251,0.125 -0.36300000000000004,0.17600000000000002 c-0.271,0.125 -0.47900000000000004,0.19900000000000004 -0.5690000000000001,0.22900000000000004 c0,0 0,0 0,0.0020000000000000005 c0.06300000000000001,0.537 0.30300000000000005,1.059 0.6870000000000002,1.5510000000000002 c1.804,2.305 6.867,5.631 12.837,5.631 c5.968,0 11.032,-3.326 12.834,-5.631 c0.38600000000000007,-0.49200000000000005 0.6250000000000001,-1.016 0.6880000000000002,-1.549 c0.004000000000000001,-0.020000000000000004 0.004000000000000001,-0.031000000000000007 0.006000000000000002,-0.04900000000000001 C49.37145251464844,49.271288009643555 46.656452514648436,48.08428800964356 46.613452514648436,45.37628800964355 z" id="svg_13"/><path d="M66.33945251464844,54.012288009643555 c-3.098,-2.854 -6.013,-3.113 -6.957,-3.332 c-0.19100000000000003,-0.04500000000000001 -0.38700000000000007,-0.08700000000000002 -0.5820000000000001,-0.12300000000000001 c-5.005,-4.627 -1.588,-23.938 -1.588,-23.938 c0,-29.437 -19.91,-26.541 -19.91,-26.541 c-0.24400000000000002,-0.014000000000000002 -0.48400000000000004,-0.023000000000000007 -0.7230000000000001,-0.030000000000000006 c-0.23900000000000002,0.007000000000000002 -0.47800000000000004,0.018000000000000002 -0.7220000000000001,0.031000000000000007 c0,0 -19.911,-2.896 -19.911,26.54 c0,0 3.417,19.311 -1.589,23.938 c-0.19600000000000004,0.037000000000000005 -0.39000000000000007,0.08000000000000002 -0.5800000000000001,0.125 c-1.6500000000000001,0.38300000000000006 -9.315,0.8750000000000001 -13.464,15.146 c-0.561,1.9380000000000002 -0.36400000000000005,4.046 0.551,5.771 C4.262452514648437,78.02328800964355 22.134452514648437,80.00328800964355 36.57945251464844,80.00028800964355 c5.436,0.0020000000000000005 11.354,-0.277 16.805,-0.971 C51.617452514648434,76.45828800964355 50.57945251464844,73.35028800964355 50.57945251464844,70.00028800964355 C50.57945251464844,61.259288009643555 57.628452514648444,54.143288009643555 66.33945251464844,54.012288009643555 zM50.97945251464844,33.11428800964355 c-0.137,-0.023000000000000007 -0.264,-0.09100000000000003 -0.37600000000000006,-0.19600000000000004 c0,-0.0010000000000000002 0.0010000000000000002,-0.0020000000000000005 0.0010000000000000002,-0.003000000000000001 c0.11300000000000002,0.10700000000000001 0.24100000000000002,0.17500000000000002 0.38000000000000006,0.19900000000000004 C50.98245251464844,33.113288009643554 50.98145251464844,33.11428800964355 50.97945251464844,33.11428800964355 zM22.70345251464844,32.911288009643556 c-0.05000000000000001,0.04900000000000001 -0.10400000000000001,0.08800000000000002 -0.16200000000000003,0.12100000000000001 c-0.06800000000000002,0.03900000000000001 -0.14,0.06700000000000002 -0.21500000000000002,0.08100000000000002 c-0.28700000000000003,0.05100000000000001 -0.5920000000000001,-0.09300000000000003 -0.8830000000000001,-0.38500000000000006 c-0.5890000000000001,-0.5880000000000001 -1.127,-1.78 -1.383,-3.209 c-0.08300000000000002,-0.47000000000000003 -0.13,-0.926 -0.14200000000000002,-1.353 c-0.036000000000000004,-1.282 0.23800000000000002,-2.306 0.7330000000000001,-2.6630000000000003 c0.09100000000000003,-0.06400000000000002 0.18800000000000003,-0.10900000000000001 0.29200000000000004,-0.126 c0.23900000000000002,-0.04100000000000001 0.48700000000000004,0.05000000000000001 0.7300000000000001,0.24700000000000003 v0.0010000000000000002 c0,-0.0010000000000000002 0.0010000000000000002,-0.021000000000000005 0.006000000000000002,-0.05900000000000001 c0.08300000000000002,-0.8170000000000001 1.171,-9.971 8.023,-9.337 l20.96,10.789 l1.703,-1.6400000000000001 c0.06000000000000001,0.011000000000000003 0.11400000000000002,0.029000000000000005 0.17,0.05500000000000001 c0.562,0.263 0.8830000000000001,1.311 0.8560000000000001,2.6580000000000004 c-0.008000000000000002,0.45 -0.05700000000000001,0.932 -0.14600000000000002,1.4300000000000002 c-0.271,1.5270000000000001 -0.8700000000000001,2.785 -1.5030000000000001,3.322 c-0.126,0.10600000000000001 -0.255,0.18500000000000003 -0.38300000000000006,0.231 c-0.126,0.04500000000000001 -0.252,0.06000000000000001 -0.37400000000000005,0.03900000000000001 c-0.139,-0.024000000000000004 -0.268,-0.09200000000000003 -0.38100000000000006,-0.2 c0,0.0010000000000000002 -0.0010000000000000002,0.003000000000000001 -0.0020000000000000005,0.004000000000000001 c-0.0010000000000000002,-0.0010000000000000002 -0.003000000000000001,-0.0010000000000000002 -0.004000000000000001,-0.003000000000000001 c-1.3960000000000001,4.348 -4.067,8.68 -7.441,11.283 c-1.971,1.52 -4.178,2.449 -6.506,2.449 c-0.5860000000000001,0 -1.165,-0.06200000000000001 -1.733,-0.17200000000000001 c-0.3330000000000001,-0.06500000000000002 -0.6610000000000001,-0.16400000000000003 -0.987,-0.266 c-1.344,-0.41800000000000004 -2.628,-1.114 -3.822,-2.044 c-0.506,-0.3940000000000001 -0.991,-0.8370000000000001 -1.464,-1.303 c0.08300000000000002,0.08200000000000002 0.16100000000000003,0.17200000000000001 0.24500000000000002,0.251 c-0.08400000000000002,-0.08000000000000002 -0.16300000000000003,-0.17 -0.24600000000000002,-0.252 c-0.279,-0.274 -0.555,-0.555 -0.8210000000000001,-0.8520000000000001 c-0.15900000000000003,-0.17700000000000002 -0.31000000000000005,-0.36600000000000005 -0.464,-0.551 c-0.18500000000000003,-0.22100000000000003 -0.37000000000000005,-0.43900000000000006 -0.547,-0.6700000000000002 c-0.16100000000000003,-0.20900000000000002 -0.31400000000000006,-0.42500000000000004 -0.46900000000000003,-0.6410000000000001 c-0.15900000000000003,-0.22100000000000003 -0.31600000000000006,-0.44200000000000006 -0.468,-0.6700000000000002 c-0.15200000000000002,-0.22900000000000004 -0.30000000000000004,-0.461 -0.44500000000000006,-0.6960000000000002 c-0.14100000000000001,-0.22800000000000004 -0.279,-0.457 -0.41300000000000003,-0.6890000000000002 c-0.14,-0.24300000000000002 -0.278,-0.48700000000000004 -0.41100000000000003,-0.7350000000000001 c-0.125,-0.233 -0.24400000000000002,-0.47000000000000003 -0.36200000000000004,-0.7070000000000001 c-0.126,-0.254 -0.254,-0.507 -0.37300000000000005,-0.7650000000000001 c-0.10900000000000001,-0.23700000000000002 -0.20800000000000002,-0.47700000000000004 -0.31100000000000005,-0.7170000000000001 c-0.11100000000000002,-0.262 -0.22700000000000004,-0.522 -0.32900000000000007,-0.786 c-0.09200000000000003,-0.23800000000000002 -0.171,-0.47800000000000004 -0.257,-0.7160000000000001 c-0.08900000000000002,-0.252 -0.18600000000000003,-0.503 -0.267,-0.7550000000000001 c-0.0010000000000000002,0.0010000000000000002 -0.0020000000000000005,0.0010000000000000002 -0.003000000000000001,0.0020000000000000005 C22.704452514648438,32.91328800964355 22.704452514648438,32.912288009643554 22.70345251464844,32.911288009643556 zM27.82245251464844,42.01028800964355 c-0.15800000000000003,-0.17600000000000002 -0.30700000000000005,-0.36300000000000004 -0.46,-0.547 C27.515452514648437,41.646288009643555 27.66445251464844,41.83428800964356 27.82245251464844,42.01028800964355 zM26.81045251464844,40.787288009643554 c-0.15900000000000003,-0.20600000000000002 -0.31100000000000005,-0.41900000000000004 -0.463,-0.6320000000000001 C26.49945251464844,40.36828800964356 26.65145251464844,40.58128800964356 26.81045251464844,40.787288009643554 zM25.87145251464844,39.47428800964355 c-0.15000000000000002,-0.22500000000000003 -0.29400000000000004,-0.452 -0.43800000000000006,-0.6830000000000002 C25.577452514648435,39.021288009643555 25.722452514648438,39.250288009643555 25.87145251464844,39.47428800964355 zM25.010452514648435,38.08328800964355 c-0.137,-0.23700000000000002 -0.271,-0.47400000000000003 -0.4,-0.7150000000000001 C24.739452514648434,37.60928800964356 24.873452514648434,37.847288009643556 25.010452514648435,38.08328800964355 zM24.232452514648436,36.63228800964355 c-0.12200000000000001,-0.24400000000000002 -0.24400000000000002,-0.48600000000000004 -0.35700000000000004,-0.7330000000000001 C23.989452514648434,36.14528800964356 24.111452514648434,36.38828800964355 24.232452514648436,36.63228800964355 zM23.54245251464844,35.12928800964355 c-0.10400000000000001,-0.24500000000000002 -0.21200000000000002,-0.48700000000000004 -0.30800000000000005,-0.7340000000000001 C23.330452514648435,34.64128800964355 23.43845251464844,34.884288009643555 23.54245251464844,35.12928800964355 zM22.707452514648438,32.914288009643556 c0.06700000000000002,0.20800000000000002 0.14700000000000002,0.41500000000000004 0.22000000000000003,0.6230000000000001 c-0.07300000000000001,-0.20700000000000002 -0.15600000000000003,-0.41400000000000003 -0.22300000000000003,-0.6210000000000001 C22.705452514648435,32.915288009643554 22.70645251464844,32.915288009643554 22.707452514648438,32.914288009643556 zM50.10245251464844,49.59228800964355 c-0.06300000000000001,0.533 -0.30300000000000005,1.057 -0.6880000000000002,1.549 c-1.802,2.305 -6.866,5.631 -12.834,5.631 c-5.97,0 -11.033,-3.326 -12.837,-5.631 c-0.38400000000000006,-0.49200000000000005 -0.6240000000000001,-1.014 -0.6870000000000002,-1.5510000000000002 c0,-0.0020000000000000005 0,-0.0020000000000000005 0,-0.0020000000000000005 c0.09000000000000002,-0.029000000000000005 0.29800000000000004,-0.10400000000000001 0.5690000000000001,-0.22900000000000004 c0.11200000000000002,-0.05100000000000001 0.234,-0.10900000000000001 0.36300000000000004,-0.17600000000000002 c0.136,-0.07200000000000001 0.281,-0.15400000000000003 0.42900000000000005,-0.24400000000000002 c1.038,-0.6450000000000001 2.265,-1.791 2.266,-3.6270000000000002 c0.0010000000000000002,0 0.0010000000000000002,0 0.0020000000000000005,0 c1.723,1.709 3.638,3.062 5.684,3.871 c1.3760000000000001,0.545 2.8120000000000003,0.8480000000000001 4.286,0.8480000000000001 c1.475,0 2.912,-0.30300000000000005 4.287,-0.8480000000000001 c2.027,-0.809 3.926,-2.144 5.6370000000000005,-3.824 c0.012000000000000002,0.006000000000000002 0.021000000000000005,0.012000000000000002 0.03400000000000001,0.017000000000000005 c0.04300000000000001,2.708 2.758,3.896 3.495,4.167 C50.10645251464844,49.561288009643555 50.10645251464844,49.57228800964356 50.10245251464844,49.59228800964355 z" id="svg_14"/><path d="M66.57945251464844,56.000288009643555 c-7.721,0 -14,6.279 -14,14 s6.279,14 14,14 c7.719,0 14,-6.279 14,-14 S74.29845251464843,56.000288009643555 66.57945251464844,56.000288009643555 zM60.57945251464844,75.99928800964355 l1.042,-3.7510000000000003 l2.709,2.709 L60.57945251464844,75.99928800964355 zM72.34145251464844,66.94728800964356 l-7.482,7.482 l-2.709,-2.709 l7.482,-7.482 c0.31500000000000006,-0.31600000000000006 0.8290000000000001,-0.31600000000000006 1.146,0 l1.5630000000000002,1.561 C72.65645251464844,66.11628800964355 72.65645251464844,66.63128800964355 72.34145251464844,66.94728800964356 z" id="svg_15"/></g></g></svg>