<svg id="svg" version="1.1" xmlns="http://www.w3.org/2000/svg" xmlns:xlink="http://www.w3.org/1999/xlink" width="400" height="400" viewBox="0, 0, 400,400"><g id="svgg"><path id="path0" d="M177.716 18.800 C 177.520 19.548,177.170 19.600,172.367 19.600 C 167.638 19.600,167.194 19.664,166.800 20.400 C 166.420 21.110,165.962 21.200,162.748 21.200 C 159.462 21.200,159.106 21.274,158.916 22.000 C 158.730 22.710,158.370 22.800,155.716 22.800 C 153.062 22.800,152.702 22.890,152.516 23.600 C 152.337 24.284,151.970 24.400,149.986 24.400 C 147.302 24.400,146.400 24.662,146.400 25.443 C 146.400 25.853,145.808 26.000,144.163 26.000 C 142.262 26.000,141.894 26.120,141.716 26.800 C 141.540 27.473,141.170 27.600,139.380 27.600 C 137.605 27.600,137.212 27.732,137.000 28.400 C 136.803 29.021,136.395 29.200,135.173 29.200 C 134.041 29.200,133.600 29.368,133.600 29.800 C 133.600 30.231,133.159 30.400,132.033 30.400 C 130.078 30.400,129.200 30.723,129.200 31.443 C 129.200 31.816,128.725 32.000,127.763 32.000 C 126.662 32.000,126.276 32.187,126.116 32.800 C 125.952 33.427,125.570 33.600,124.353 33.600 C 123.333 33.600,122.525 33.875,122.000 34.400 C 121.560 34.840,120.883 35.200,120.496 35.200 C 120.109 35.200,119.568 35.560,119.293 36.000 C 118.974 36.510,118.360 36.800,117.597 36.800 C 116.933 36.800,116.043 37.157,115.600 37.600 C 115.160 38.040,114.483 38.400,114.096 38.400 C 113.709 38.400,113.168 38.760,112.893 39.200 C 112.610 39.652,111.960 40.000,111.397 40.000 C 110.667 40.000,110.400 40.214,110.400 40.800 C 110.400 41.467,110.133 41.600,108.800 41.600 C 107.467 41.600,107.200 41.733,107.200 42.400 C 107.200 43.052,106.933 43.200,105.763 43.200 C 104.662 43.200,104.276 43.387,104.116 44.000 C 104.000 44.443,103.570 44.800,103.153 44.800 C 102.739 44.800,102.400 45.070,102.400 45.400 C 102.400 45.771,102.024 46.000,101.416 46.000 C 100.874 46.000,100.109 46.331,99.716 46.736 C 99.322 47.141,98.685 47.585,98.300 47.723 C 97.915 47.862,97.600 48.231,97.600 48.543 C 97.600 48.875,97.019 49.220,96.200 49.374 C 95.362 49.531,94.800 49.870,94.800 50.218 C 94.800 50.538,94.440 50.800,94.000 50.800 C 93.482 50.800,93.200 51.067,93.200 51.555 C 93.200 52.098,92.816 52.383,91.839 52.566 C 91.090 52.707,90.376 53.087,90.251 53.411 C 90.127 53.735,89.659 54.000,89.213 54.000 C 88.667 54.000,88.400 54.263,88.400 54.800 C 88.400 55.333,88.133 55.600,87.600 55.600 C 87.067 55.600,86.800 55.867,86.800 56.400 C 86.800 56.933,86.533 57.200,86.000 57.200 C 85.467 57.200,85.200 57.467,85.200 58.000 C 85.200 58.628,84.933 58.800,83.963 58.800 C 83.062 58.800,82.668 59.017,82.516 59.600 C 82.401 60.040,81.980 60.400,81.580 60.400 C 81.181 60.400,80.740 60.760,80.600 61.200 C 80.460 61.640,80.088 62.000,79.773 62.000 C 79.458 62.000,79.200 62.270,79.200 62.600 C 79.200 62.933,78.844 63.200,78.400 63.200 C 77.867 63.200,77.600 63.467,77.600 64.000 C 77.600 64.533,77.333 64.800,76.800 64.800 C 76.267 64.800,76.000 65.067,76.000 65.600 C 76.000 66.133,75.733 66.400,75.200 66.400 C 74.667 66.400,74.400 66.667,74.400 67.200 C 74.400 67.733,74.133 68.000,73.600 68.000 C 73.067 68.000,72.800 68.267,72.800 68.800 C 72.800 69.333,72.533 69.600,72.000 69.600 C 71.467 69.600,71.200 69.867,71.200 70.400 C 71.200 70.933,70.933 71.200,70.400 71.200 C 69.867 71.200,69.600 71.467,69.600 72.000 C 69.600 72.533,69.333 72.800,68.800 72.800 C 68.267 72.800,68.000 73.067,68.000 73.600 C 68.000 74.133,67.733 74.400,67.200 74.400 C 66.667 74.400,66.400 74.667,66.400 75.200 C 66.400 75.733,66.133 76.000,65.600 76.000 C 65.067 76.000,64.800 76.267,64.800 76.800 C 64.800 77.333,64.533 77.600,64.000 77.600 C 63.467 77.600,63.200 77.867,63.200 78.400 C 63.200 78.844,62.933 79.200,62.600 79.200 C 62.270 79.200,62.000 79.458,62.000 79.773 C 62.000 80.088,61.640 80.460,61.200 80.600 C 60.760 80.740,60.400 81.181,60.400 81.580 C 60.400 81.980,60.040 82.401,59.600 82.516 C 59.123 82.641,58.800 83.062,58.800 83.559 C 58.800 84.018,58.440 84.618,58.000 84.893 C 57.560 85.168,57.200 85.709,57.200 86.096 C 57.200 86.533,56.897 86.800,56.400 86.800 C 55.867 86.800,55.600 87.067,55.600 87.600 C 55.600 88.133,55.333 88.400,54.800 88.400 C 54.263 88.400,54.000 88.667,54.000 89.213 C 54.000 89.659,53.735 90.127,53.411 90.251 C 53.087 90.376,52.707 91.090,52.566 91.839 C 52.383 92.816,52.098 93.200,51.555 93.200 C 51.067 93.200,50.800 93.482,50.800 94.000 C 50.800 94.440,50.538 94.800,50.218 94.800 C 49.870 94.800,49.531 95.362,49.374 96.200 C 49.221 97.016,48.875 97.600,48.546 97.600 C 48.235 97.600,47.818 98.025,47.621 98.545 C 47.423 99.065,46.977 99.600,46.631 99.733 C 46.248 99.880,46.000 100.452,46.000 101.187 C 46.000 101.999,45.801 102.400,45.400 102.400 C 45.070 102.400,44.800 102.748,44.800 103.173 C 44.800 103.598,44.440 104.060,44.000 104.200 C 43.405 104.389,43.200 104.805,43.200 105.827 C 43.200 106.933,43.045 107.200,42.400 107.200 C 41.733 107.200,41.600 107.467,41.600 108.800 C 41.600 110.133,41.467 110.400,40.800 110.400 C 40.214 110.400,40.000 110.667,40.000 111.397 C 40.000 111.960,39.652 112.610,39.200 112.893 C 38.760 113.168,38.400 113.709,38.400 114.096 C 38.400 114.483,38.040 115.160,37.600 115.600 C 37.160 116.040,36.800 116.900,36.800 117.512 C 36.800 118.165,36.470 118.861,36.000 119.200 C 35.560 119.517,35.200 120.159,35.200 120.626 C 35.200 121.094,34.840 121.802,34.400 122.200 C 33.873 122.677,33.600 123.432,33.600 124.415 C 33.600 125.570,33.420 125.954,32.800 126.116 C 32.187 126.276,32.000 126.662,32.000 127.763 C 32.000 128.725,31.816 129.200,31.443 129.200 C 30.723 129.200,30.400 130.078,30.400 132.033 C 30.400 133.159,30.231 133.600,29.800 133.600 C 29.368 133.600,29.200 134.041,29.200 135.173 C 29.200 136.395,29.021 136.803,28.400 137.000 C 27.732 137.212,27.600 137.605,27.600 139.380 C 27.600 141.170,27.473 141.540,26.800 141.716 C 26.123 141.893,26.000 142.262,26.000 144.116 C 26.000 145.970,25.877 146.339,25.200 146.516 C 24.496 146.700,24.400 147.062,24.400 149.516 C 24.400 151.970,24.304 152.332,23.600 152.516 C 22.890 152.702,22.800 153.062,22.800 155.716 C 22.800 158.370,22.710 158.730,22.000 158.916 C 21.271 159.107,21.200 159.462,21.200 162.916 C 21.200 166.370,21.129 166.725,20.400 166.916 C 19.652 167.112,19.600 167.462,19.600 172.316 C 19.600 177.170,19.548 177.520,18.800 177.716 C 17.541 178.045,17.541 222.200,18.800 222.600 C 19.543 222.836,19.600 223.205,19.600 227.824 C 19.600 232.360,19.670 232.837,20.400 233.293 C 21.102 233.731,21.200 234.226,21.200 237.334 C 21.200 240.538,21.276 240.895,22.000 241.084 C 22.710 241.270,22.800 241.630,22.800 244.284 C 22.800 246.938,22.890 247.298,23.600 247.484 C 24.295 247.666,24.400 248.030,24.400 250.251 C 24.400 252.313,24.555 252.940,25.200 253.493 C 25.797 254.004,26.000 254.673,26.000 256.126 C 26.000 257.738,26.138 258.111,26.800 258.284 C 27.477 258.461,27.600 258.830,27.600 260.684 C 27.600 262.538,27.723 262.907,28.400 263.084 C 29.027 263.248,29.200 263.630,29.200 264.847 C 29.200 265.961,29.370 266.400,29.800 266.400 C 30.245 266.400,30.400 266.867,30.400 268.204 C 30.400 269.513,30.620 270.196,31.200 270.693 C 31.643 271.072,32.000 271.873,32.000 272.486 C 32.000 273.160,32.313 273.789,32.800 274.093 C 33.321 274.418,33.600 275.026,33.600 275.834 C 33.600 276.568,33.927 277.372,34.400 277.800 C 34.840 278.198,35.200 278.918,35.200 279.400 C 35.200 279.882,35.560 280.602,36.000 281.000 C 36.440 281.398,36.800 282.112,36.800 282.587 C 36.800 283.061,37.160 283.836,37.600 284.308 C 38.040 284.780,38.400 285.534,38.400 285.983 C 38.400 286.533,38.661 286.800,39.200 286.800 C 39.852 286.800,40.000 287.067,40.000 288.237 C 40.000 289.338,40.187 289.724,40.800 289.884 C 41.401 290.041,41.600 290.430,41.600 291.447 C 41.600 292.533,41.758 292.800,42.400 292.800 C 43.052 292.800,43.200 293.067,43.200 294.237 C 43.200 295.338,43.387 295.724,44.000 295.884 C 44.443 296.000,44.800 296.430,44.800 296.847 C 44.800 297.261,45.070 297.600,45.400 297.600 C 45.797 297.600,46.000 297.997,46.000 298.777 C 46.000 299.456,46.307 300.176,46.726 300.477 C 47.126 300.765,47.570 301.315,47.714 301.700 C 47.857 302.085,48.231 302.400,48.543 302.400 C 48.875 302.400,49.220 302.981,49.374 303.800 C 49.531 304.638,49.870 305.200,50.218 305.200 C 50.542 305.200,50.800 305.571,50.800 306.037 C 50.800 306.530,51.120 306.959,51.577 307.078 C 52.035 307.198,52.462 307.770,52.615 308.468 C 52.758 309.120,53.128 309.751,53.438 309.870 C 53.747 309.988,54.000 310.426,54.000 310.843 C 54.000 311.333,54.282 311.600,54.800 311.600 C 55.333 311.600,55.600 311.867,55.600 312.400 C 55.600 312.933,55.867 313.200,56.400 313.200 C 56.897 313.200,57.200 313.467,57.200 313.904 C 57.200 314.291,57.560 314.832,58.000 315.107 C 58.440 315.382,58.800 315.971,58.800 316.416 C 58.800 316.861,59.084 317.334,59.431 317.467 C 59.777 317.600,60.223 318.135,60.421 318.655 C 60.618 319.175,61.055 319.600,61.390 319.600 C 61.726 319.600,62.000 319.861,62.000 320.180 C 62.000 320.499,62.239 320.904,62.530 321.080 C 62.822 321.256,63.176 321.715,63.318 322.100 C 63.459 322.485,63.851 322.800,64.187 322.800 C 64.524 322.800,64.800 323.087,64.800 323.437 C 64.800 323.788,65.160 324.169,65.600 324.284 C 66.040 324.399,66.400 324.742,66.400 325.047 C 66.400 325.351,66.760 325.600,67.200 325.600 C 67.733 325.600,68.000 325.867,68.000 326.400 C 68.000 326.933,68.267 327.200,68.800 327.200 C 69.333 327.200,69.600 327.467,69.600 328.000 C 69.600 328.533,69.867 328.800,70.400 328.800 C 70.933 328.800,71.200 329.067,71.200 329.600 C 71.200 330.133,71.467 330.400,72.000 330.400 C 72.533 330.400,72.800 330.667,72.800 331.200 C 72.800 331.733,73.067 332.000,73.600 332.000 C 74.133 332.000,74.400 332.267,74.400 332.800 C 74.400 333.333,74.667 333.600,75.200 333.600 C 75.733 333.600,76.000 333.867,76.000 334.400 C 76.000 334.933,76.267 335.200,76.800 335.200 C 77.333 335.200,77.600 335.467,77.600 336.000 C 77.600 336.533,77.867 336.800,78.400 336.800 C 78.840 336.800,79.200 337.009,79.200 337.264 C 79.200 337.770,81.541 340.000,82.072 340.000 C 82.252 340.000,82.400 340.262,82.400 340.582 C 82.400 340.930,82.962 341.269,83.800 341.426 C 84.602 341.577,85.200 341.926,85.200 342.245 C 85.200 342.550,85.560 342.800,86.000 342.800 C 86.533 342.800,86.800 343.067,86.800 343.600 C 86.800 344.133,87.067 344.400,87.600 344.400 C 88.133 344.400,88.400 344.667,88.400 345.200 C 88.400 345.700,88.667 346.000,89.111 346.000 C 89.502 346.000,90.130 346.360,90.507 346.800 C 90.884 347.240,91.644 347.600,92.196 347.600 C 92.933 347.600,93.200 347.813,93.200 348.400 C 93.200 348.917,93.467 349.200,93.953 349.200 C 94.370 349.200,94.800 349.557,94.916 350.000 C 95.068 350.583,95.462 350.800,96.363 350.800 C 97.205 350.800,97.600 350.995,97.600 351.410 C 97.600 351.745,98.025 352.182,98.545 352.379 C 99.065 352.577,99.600 353.023,99.733 353.369 C 99.880 353.752,100.452 354.000,101.187 354.000 C 102.010 354.000,102.400 354.197,102.400 354.613 C 102.400 354.949,102.715 355.341,103.100 355.482 C 103.485 355.624,103.940 355.971,104.111 356.254 C 104.282 356.536,105.047 356.885,105.811 357.028 C 106.604 357.177,107.200 357.527,107.200 357.845 C 107.200 358.226,107.701 358.400,108.800 358.400 C 110.133 358.400,110.400 358.533,110.400 359.200 C 110.400 359.764,110.667 360.000,111.304 360.000 C 111.801 360.000,112.432 360.360,112.707 360.800 C 112.990 361.252,113.640 361.600,114.203 361.600 C 114.789 361.600,115.200 361.830,115.200 362.157 C 115.200 362.802,116.052 363.200,117.433 363.200 C 117.993 363.200,118.400 363.435,118.400 363.757 C 118.400 364.352,119.235 364.800,120.344 364.800 C 120.717 364.800,121.330 365.160,121.707 365.600 C 122.204 366.180,122.887 366.400,124.196 366.400 C 125.733 366.400,126.000 366.518,126.000 367.200 C 126.000 367.867,126.267 368.000,127.600 368.000 C 128.933 368.000,129.200 368.133,129.200 368.800 C 129.200 369.468,129.467 369.600,130.817 369.600 C 131.881 369.600,132.727 369.874,133.292 370.400 C 133.764 370.840,134.657 371.200,135.275 371.200 C 135.894 371.200,136.760 371.560,137.200 372.000 C 137.763 372.563,138.533 372.800,139.800 372.800 C 141.066 372.800,141.600 372.964,141.600 373.353 C 141.600 373.985,142.801 374.387,144.713 374.395 C 145.506 374.398,146.116 374.637,146.255 375.000 C 146.431 375.458,147.183 375.600,149.443 375.600 C 152.133 375.600,152.400 375.672,152.400 376.400 C 152.400 377.133,152.667 377.200,155.600 377.200 C 158.533 377.200,158.800 377.267,158.800 378.000 C 158.800 378.733,159.067 378.800,162.000 378.800 C 164.667 378.800,165.333 378.933,166.000 379.600 C 166.706 380.306,167.333 380.400,171.353 380.400 C 175.570 380.400,175.922 380.459,176.116 381.200 C 176.445 382.460,223.555 382.460,223.884 381.200 C 224.078 380.457,224.430 380.400,228.785 380.400 C 232.968 380.400,233.554 380.313,234.200 379.600 C 234.808 378.928,235.432 378.800,238.099 378.800 C 240.938 378.800,241.297 378.715,241.484 378.000 C 241.669 377.291,242.030 377.200,244.647 377.200 C 247.333 377.200,247.600 377.128,247.600 376.400 C 247.600 375.671,247.867 375.600,250.613 375.600 C 252.921 375.600,253.679 375.460,253.855 375.000 C 254.004 374.612,254.624 374.400,255.610 374.400 C 257.523 374.400,258.400 374.072,258.400 373.357 C 258.400 372.981,258.887 372.798,259.900 372.795 C 261.989 372.787,263.200 372.405,263.200 371.753 C 263.200 371.374,263.704 371.200,264.800 371.200 C 265.867 371.200,266.667 370.933,267.200 370.400 C 267.689 369.911,268.533 369.600,269.373 369.600 C 270.395 369.600,270.811 369.395,271.000 368.800 C 271.191 368.199,271.605 368.000,272.664 368.000 C 273.738 368.000,274.125 367.809,274.284 367.200 C 274.441 366.599,274.830 366.400,275.847 366.400 C 276.667 366.400,277.515 366.085,278.000 365.600 C 278.440 365.160,279.160 364.800,279.600 364.800 C 280.040 364.800,280.760 364.440,281.200 364.000 C 281.640 363.560,282.360 363.200,282.800 363.200 C 283.240 363.200,283.960 362.840,284.400 362.400 C 284.840 361.960,285.560 361.600,286.000 361.600 C 286.533 361.600,286.800 361.333,286.800 360.800 C 286.800 360.148,287.067 360.000,288.237 360.000 C 289.338 360.000,289.724 359.813,289.884 359.200 C 290.041 358.599,290.430 358.400,291.447 358.400 C 292.335 358.400,292.800 358.209,292.800 357.845 C 292.800 357.527,293.396 357.177,294.189 357.028 C 294.953 356.885,295.718 356.536,295.889 356.254 C 296.060 355.971,296.515 355.624,296.900 355.482 C 297.285 355.341,297.600 354.949,297.600 354.613 C 297.600 354.199,297.989 354.000,298.797 354.000 C 299.560 354.000,300.174 353.710,300.493 353.200 C 300.768 352.760,301.309 352.400,301.696 352.400 C 302.133 352.400,302.400 352.097,302.400 351.600 C 302.400 351.078,302.667 350.800,303.167 350.800 C 304.359 350.800,305.200 350.369,305.200 349.757 C 305.200 349.451,305.577 349.200,306.037 349.200 C 306.538 349.200,306.959 348.879,307.084 348.400 C 307.199 347.960,307.503 347.600,307.758 347.600 C 308.014 347.600,308.483 347.240,308.800 346.800 C 309.139 346.330,309.835 346.000,310.488 346.000 C 311.333 346.000,311.600 345.808,311.600 345.200 C 311.600 344.667,311.867 344.400,312.400 344.400 C 312.933 344.400,313.200 344.133,313.200 343.600 C 313.200 343.067,313.467 342.800,314.000 342.800 C 314.444 342.800,314.800 342.533,314.800 342.200 C 314.800 341.870,315.078 341.600,315.418 341.600 C 315.758 341.600,316.486 341.150,317.036 340.600 C 317.586 340.050,318.214 339.600,318.432 339.600 C 318.649 339.600,319.429 338.998,320.166 338.261 C 320.902 337.525,321.796 336.810,322.152 336.674 C 322.508 336.537,322.800 336.170,322.800 335.859 C 322.800 335.548,323.160 335.199,323.600 335.084 C 324.040 334.969,324.400 334.588,324.400 334.237 C 324.400 333.887,324.670 333.600,325.000 333.600 C 325.333 333.600,325.600 333.244,325.600 332.800 C 325.600 332.267,325.867 332.000,326.400 332.000 C 326.933 332.000,327.200 331.733,327.200 331.200 C 327.200 330.667,327.467 330.400,328.000 330.400 C 328.533 330.400,328.800 330.133,328.800 329.600 C 328.800 329.067,329.067 328.800,329.600 328.800 C 330.097 328.800,330.400 328.533,330.400 328.096 C 330.400 327.709,330.760 327.168,331.200 326.893 C 331.927 326.439,332.000 325.960,332.000 321.624 C 332.000 317.205,331.941 316.835,331.200 316.600 C 330.760 316.460,330.400 316.088,330.400 315.773 C 330.400 315.378,329.935 315.199,328.900 315.198 C 327.904 315.197,326.795 314.794,325.600 314.000 C 321.694 311.403,318.623 312.291,312.649 317.744 C 308.281 321.731,305.952 323.850,305.200 324.524 C 304.870 324.820,303.070 326.276,301.200 327.760 C 299.330 329.244,297.201 330.940,296.469 331.529 C 295.736 332.118,294.662 332.851,294.082 333.158 C 293.501 333.465,292.806 333.915,292.537 334.158 C 291.435 335.154,284.763 339.570,284.335 339.589 C 284.189 339.595,283.113 340.230,281.944 341.000 C 280.775 341.770,279.617 342.400,279.371 342.400 C 279.125 342.400,278.598 342.760,278.200 343.200 C 277.802 343.640,277.168 344.000,276.792 344.000 C 276.416 344.000,275.650 344.360,275.091 344.800 C 274.531 345.240,273.922 345.601,273.737 345.602 C 273.552 345.603,271.979 346.323,270.242 347.202 C 268.505 348.081,266.862 348.800,266.591 348.800 C 266.320 348.800,265.883 349.058,265.621 349.374 C 265.359 349.690,264.572 350.074,263.872 350.228 C 263.173 350.381,261.973 350.843,261.206 351.253 C 260.439 351.664,259.584 352.000,259.304 352.000 C 259.025 352.000,258.125 352.360,257.304 352.800 C 256.484 353.240,255.485 353.600,255.086 353.600 C 254.687 353.600,253.868 353.855,253.266 354.166 C 252.665 354.477,251.459 354.864,250.586 355.026 C 249.714 355.188,248.640 355.550,248.200 355.831 C 247.760 356.111,246.680 356.460,245.800 356.606 C 244.920 356.751,243.658 357.113,242.995 357.409 C 242.333 357.705,240.803 358.073,239.595 358.227 C 238.388 358.381,237.204 358.660,236.965 358.848 C 236.726 359.036,235.111 359.387,233.376 359.629 C 231.641 359.870,229.885 360.248,229.473 360.468 C 229.061 360.689,226.896 361.032,224.662 361.231 C 222.428 361.431,219.790 361.820,218.800 362.097 C 216.253 362.809,183.767 362.813,181.200 362.101 C 180.210 361.827,177.545 361.423,175.278 361.203 C 173.010 360.984,170.845 360.638,170.467 360.436 C 170.088 360.233,168.359 359.870,166.624 359.629 C 164.889 359.387,163.274 359.036,163.035 358.848 C 162.796 358.660,161.627 358.383,160.437 358.231 C 159.248 358.080,157.808 357.721,157.237 357.434 C 156.667 357.146,155.412 356.790,154.450 356.643 C 153.487 356.495,152.317 356.158,151.850 355.894 C 151.382 355.629,150.190 355.199,149.200 354.937 C 146.453 354.212,142.669 352.829,142.231 352.391 C 142.016 352.176,141.505 352.000,141.095 352.000 C 140.686 352.000,139.327 351.534,138.075 350.965 C 136.824 350.396,135.260 349.693,134.600 349.402 C 133.940 349.111,131.856 348.136,129.970 347.236 C 128.083 346.336,126.341 345.600,126.098 345.600 C 125.856 345.600,125.409 345.375,125.106 345.100 C 124.601 344.642,122.790 343.616,118.623 341.428 C 117.756 340.973,116.856 340.462,116.623 340.294 C 115.577 339.538,113.140 338.000,111.352 336.966 C 110.278 336.346,109.306 335.706,109.191 335.543 C 108.940 335.188,106.043 333.200,105.776 333.200 C 105.673 333.200,104.196 332.121,102.494 330.802 C 100.792 329.483,98.977 328.088,98.459 327.702 C 97.942 327.316,97.022 326.550,96.416 326.000 C 95.809 325.450,94.613 324.417,93.757 323.705 C 87.770 318.725,80.417 311.228,74.800 304.377 C 74.030 303.438,73.085 302.294,72.699 301.835 C 70.593 299.325,66.800 294.284,66.800 293.994 C 66.800 293.809,66.575 293.419,66.300 293.129 C 65.503 292.286,62.400 287.608,62.400 287.249 C 62.400 287.069,62.085 286.548,61.700 286.091 C 60.982 285.237,60.373 284.229,58.267 280.400 C 57.601 279.190,56.641 277.480,56.133 276.600 C 55.626 275.720,55.001 274.550,54.745 274.000 C 54.489 273.450,53.598 271.560,52.763 269.800 C 50.204 264.399,49.600 262.972,49.600 262.323 C 49.600 261.979,49.349 261.490,49.042 261.235 C 48.735 260.980,48.373 260.183,48.238 259.463 C 48.103 258.744,47.634 257.452,47.196 256.593 C 46.758 255.734,46.400 254.729,46.400 254.361 C 46.400 253.993,46.131 253.176,45.802 252.546 C 45.474 251.916,45.200 251.040,45.194 250.600 C 45.187 250.160,44.856 249.080,44.457 248.200 C 44.058 247.320,43.604 245.799,43.448 244.820 C 43.292 243.841,42.992 242.831,42.780 242.576 C 42.568 242.320,42.135 240.781,41.819 239.156 C 41.100 235.467,40.558 232.795,39.595 228.200 C 39.180 226.220,38.749 223.148,38.638 221.374 C 38.527 219.600,38.214 217.620,37.942 216.974 C 37.244 215.317,37.235 184.703,37.932 183.053 C 38.198 182.422,38.583 179.863,38.786 177.368 C 38.989 174.872,39.337 172.492,39.557 172.080 C 39.778 171.667,40.143 169.857,40.369 168.058 C 40.595 166.258,40.954 164.460,41.167 164.062 C 41.380 163.664,41.679 162.362,41.831 161.169 C 41.984 159.976,42.349 158.524,42.643 157.942 C 42.937 157.360,43.294 156.100,43.436 155.142 C 43.578 154.184,43.930 153.021,44.218 152.558 C 44.506 152.096,44.866 151.016,45.018 150.158 C 45.170 149.301,45.533 148.060,45.824 147.400 C 46.115 146.740,46.549 145.443,46.787 144.517 C 47.026 143.591,47.397 142.726,47.611 142.593 C 47.825 142.461,48.002 142.048,48.004 141.676 C 48.006 141.304,48.450 140.100,48.991 139.000 C 49.532 137.900,49.981 136.790,49.987 136.532 C 49.994 136.275,50.252 135.555,50.560 134.932 C 51.216 133.607,54.108 127.451,54.757 126.000 C 55.003 125.450,55.931 123.740,56.818 122.200 C 57.706 120.660,58.697 118.815,59.022 118.100 C 59.346 117.385,59.752 116.800,59.925 116.800 C 60.098 116.800,60.467 116.170,60.746 115.400 C 61.024 114.630,61.408 114.000,61.599 114.000 C 61.790 114.000,62.071 113.605,62.225 113.123 C 62.523 112.183,64.819 108.734,66.052 107.374 C 66.463 106.920,66.800 106.344,66.800 106.095 C 66.800 105.845,67.205 105.198,67.700 104.656 C 68.195 104.114,68.870 103.273,69.200 102.788 C 69.940 101.699,74.811 95.547,75.614 94.687 C 75.936 94.342,76.920 93.193,77.800 92.134 C 81.487 87.694,87.694 81.487,92.134 77.800 C 93.193 76.920,94.342 75.936,94.687 75.614 C 95.593 74.768,101.743 69.908,102.804 69.200 C 103.298 68.870,104.084 68.284,104.551 67.897 C 106.388 66.377,114.037 61.447,115.700 60.711 C 116.305 60.444,116.800 60.099,116.800 59.946 C 116.800 59.792,117.925 59.094,119.300 58.393 C 120.675 57.693,122.520 56.692,123.400 56.168 C 124.280 55.644,125.450 55.012,126.000 54.763 C 127.665 54.009,133.724 51.158,134.932 50.560 C 135.555 50.252,136.275 49.994,136.532 49.987 C 136.790 49.981,137.900 49.532,139.000 48.991 C 140.100 48.450,141.275 48.006,141.611 48.004 C 141.947 48.002,142.586 47.745,143.031 47.433 C 143.477 47.121,144.509 46.741,145.325 46.588 C 146.141 46.435,146.900 46.162,147.011 45.982 C 147.123 45.801,148.246 45.440,149.507 45.179 C 150.768 44.917,152.155 44.455,152.589 44.152 C 153.023 43.848,153.833 43.592,154.389 43.582 C 154.945 43.573,156.120 43.286,157.000 42.946 C 157.880 42.605,159.767 42.150,161.194 41.934 C 162.621 41.718,163.977 41.385,164.207 41.194 C 164.437 41.003,166.108 40.661,167.920 40.434 C 169.732 40.207,171.578 39.826,172.023 39.588 C 172.467 39.350,174.790 38.996,177.185 38.801 C 179.579 38.607,182.317 38.219,183.269 37.941 C 186.165 37.093,213.708 37.233,217.683 38.115 C 219.379 38.492,221.731 38.800,222.910 38.800 C 224.089 38.800,226.392 39.156,228.027 39.591 C 229.662 40.025,231.652 40.385,232.448 40.391 C 233.244 40.396,235.023 40.760,236.400 41.200 C 237.777 41.640,239.376 42.001,239.952 42.002 C 240.528 42.004,241.519 42.276,242.153 42.606 C 242.787 42.937,244.047 43.325,244.953 43.470 C 245.859 43.614,247.320 44.058,248.200 44.457 C 249.080 44.856,250.160 45.187,250.600 45.194 C 251.040 45.200,251.867 45.448,252.437 45.746 C 253.008 46.044,254.098 46.404,254.860 46.547 C 255.622 46.690,256.948 47.166,257.807 47.604 C 258.666 48.042,259.669 48.400,260.036 48.400 C 260.402 48.400,260.914 48.656,261.174 48.969 C 261.434 49.282,262.345 49.656,263.200 49.800 C 264.055 49.944,264.966 50.318,265.226 50.631 C 265.486 50.944,265.948 51.200,266.253 51.200 C 266.558 51.200,268.201 51.894,269.904 52.743 C 271.607 53.592,273.450 54.491,274.000 54.740 C 274.550 54.990,275.270 55.347,275.600 55.534 C 277.341 56.520,277.999 56.877,280.182 58.022 C 281.493 58.709,283.002 59.616,283.536 60.036 C 284.071 60.456,284.726 60.800,284.992 60.800 C 285.258 60.800,285.802 61.160,286.200 61.600 C 286.598 62.040,287.065 62.400,287.237 62.400 C 287.939 62.400,300.097 70.954,302.020 72.800 C 302.363 73.130,303.423 74.030,304.374 74.800 C 305.324 75.570,306.399 76.470,306.762 76.800 C 307.125 77.130,308.046 77.916,308.811 78.547 C 309.575 79.178,311.550 80.982,313.200 82.557 C 318.282 87.408,322.114 88.618,325.191 86.344 C 325.868 85.843,327.189 85.407,328.374 85.293 C 330.018 85.135,330.400 84.957,330.400 84.349 C 330.400 83.867,330.685 83.600,331.200 83.600 C 331.959 83.600,332.000 83.333,332.000 78.363 C 332.000 73.462,331.949 73.112,331.200 72.916 C 330.757 72.800,330.400 72.370,330.400 71.953 C 330.400 71.467,330.117 71.200,329.600 71.200 C 329.067 71.200,328.800 70.933,328.800 70.400 C 328.800 69.867,328.533 69.600,328.000 69.600 C 327.467 69.600,327.200 69.333,327.200 68.800 C 327.200 68.267,326.933 68.000,326.400 68.000 C 325.867 68.000,325.600 67.733,325.600 67.200 C 325.600 66.760,325.351 66.400,325.047 66.400 C 324.742 66.400,324.399 66.040,324.284 65.600 C 324.169 65.160,323.788 64.800,323.437 64.800 C 323.087 64.800,322.800 64.524,322.800 64.187 C 322.800 63.851,322.485 63.459,322.100 63.318 C 321.715 63.176,321.256 62.822,321.080 62.530 C 320.904 62.239,320.499 62.000,320.180 62.000 C 319.861 62.000,319.600 61.726,319.600 61.390 C 319.600 61.055,319.175 60.618,318.655 60.421 C 318.135 60.223,317.600 59.777,317.467 59.431 C 317.334 59.084,316.861 58.800,316.416 58.800 C 315.971 58.800,315.382 58.440,315.107 58.000 C 314.832 57.560,314.291 57.200,313.904 57.200 C 313.467 57.200,313.200 56.897,313.200 56.400 C 313.200 55.867,312.933 55.600,312.400 55.600 C 311.867 55.600,311.600 55.333,311.600 54.800 C 311.600 54.282,311.333 54.000,310.843 54.000 C 310.426 54.000,309.988 53.747,309.870 53.438 C 309.751 53.128,309.102 52.754,308.427 52.606 C 307.745 52.456,307.200 52.079,307.200 51.756 C 307.200 51.436,306.885 51.062,306.500 50.923 C 306.115 50.785,305.478 50.341,305.084 49.936 C 304.691 49.531,303.926 49.200,303.384 49.200 C 302.750 49.200,302.400 48.973,302.400 48.563 C 302.400 48.212,302.040 47.831,301.600 47.716 C 301.160 47.601,300.800 47.277,300.800 46.996 C 300.800 46.394,299.917 46.000,298.567 46.000 C 297.974 46.000,297.600 45.768,297.600 45.400 C 297.600 45.070,297.261 44.800,296.847 44.800 C 296.430 44.800,296.000 44.443,295.884 44.000 C 295.724 43.387,295.338 43.200,294.237 43.200 C 293.067 43.200,292.800 43.052,292.800 42.400 C 292.800 41.758,292.533 41.600,291.447 41.600 C 290.430 41.600,290.041 41.401,289.884 40.800 C 289.724 40.187,289.338 40.000,288.237 40.000 C 287.067 40.000,286.800 39.852,286.800 39.200 C 286.800 38.661,286.533 38.400,285.983 38.400 C 285.534 38.400,284.780 38.040,284.308 37.600 C 283.836 37.160,283.123 36.800,282.725 36.800 C 282.326 36.800,281.640 36.440,281.200 36.000 C 280.760 35.560,279.978 35.200,279.462 35.200 C 278.946 35.200,278.198 34.840,277.800 34.400 C 277.361 33.915,276.568 33.600,275.785 33.600 C 274.830 33.600,274.439 33.392,274.284 32.800 C 274.127 32.200,273.738 32.000,272.726 32.000 C 271.873 32.000,271.126 31.706,270.693 31.200 C 270.196 30.620,269.513 30.400,268.204 30.400 C 266.867 30.400,266.400 30.245,266.400 29.800 C 266.400 29.370,265.961 29.200,264.847 29.200 C 263.630 29.200,263.248 29.027,263.084 28.400 C 262.906 27.720,262.538 27.600,260.637 27.600 C 258.667 27.600,258.400 27.505,258.400 26.800 C 258.400 26.098,258.133 26.000,256.214 26.000 C 254.438 26.000,253.948 25.850,253.600 25.200 C 253.236 24.520,252.762 24.400,250.433 24.400 C 248.030 24.400,247.668 24.302,247.484 23.600 C 247.298 22.890,246.938 22.800,244.284 22.800 C 241.630 22.800,241.270 22.710,241.084 22.000 C 240.895 21.276,240.538 21.200,237.334 21.200 C 234.226 21.200,233.731 21.102,233.293 20.400 C 232.837 19.670,232.360 19.600,227.811 19.600 C 223.238 19.600,222.793 19.534,222.400 18.800 C 221.980 18.015,221.562 18.000,199.948 18.000 C 178.262 18.000,177.922 18.012,177.716 18.800 " stroke="none" fill="#454c54" fill-rule="evenodd"></path><path id="path1" d="M314.727 144.951 C 309.757 147.906,308.029 153.403,310.744 157.622 C 311.374 158.600,318.740 166.238,327.114 174.596 C 338.595 186.054,342.236 189.915,341.921 190.296 C 341.588 190.696,331.571 190.800,293.138 190.800 C 240.202 190.800,243.237 190.666,240.687 193.109 C 235.889 197.704,236.770 205.162,242.479 208.279 C 243.726 208.959,246.547 209.011,292.600 209.200 C 319.630 209.311,341.644 209.557,341.946 209.752 C 342.352 210.014,338.493 214.119,326.906 225.752 C 309.861 242.864,309.600 243.184,309.600 247.000 C 309.600 253.827,317.365 258.575,323.000 255.193 C 323.880 254.665,335.025 243.820,347.767 231.093 L 370.935 207.952 372.429 208.205 C 373.854 208.446,373.937 208.399,374.200 207.202 C 374.351 206.511,374.728 205.849,375.038 205.730 C 376.034 205.348,375.830 195.200,374.800 193.891 C 374.360 193.331,374.000 192.587,374.000 192.237 C 374.000 191.501,373.646 191.450,372.239 191.985 C 371.281 192.349,369.984 191.131,348.043 169.236 C 333.048 154.273,324.194 145.730,322.979 145.051 C 320.522 143.677,316.942 143.634,314.727 144.951 M196.194 191.641 C 187.221 196.375,190.001 209.200,200.000 209.200 C 209.829 209.200,212.898 196.117,204.116 191.656 C 201.846 190.502,198.365 190.496,196.194 191.641 " stroke="none" fill="#74c4fc" fill-rule="evenodd"></path><path id="path2" d="M193.600 38.433 C 192.170 38.605,188.030 38.947,184.400 39.195 C 180.770 39.443,176.990 39.903,176.000 40.218 C 175.010 40.532,172.747 40.948,170.972 41.142 C 169.196 41.336,167.396 41.677,166.972 41.898 C 166.547 42.120,164.951 42.431,163.425 42.590 C 161.899 42.750,160.279 43.118,159.825 43.409 C 159.371 43.700,158.100 44.068,157.000 44.228 C 155.900 44.387,154.640 44.744,154.200 45.020 C 153.760 45.297,152.590 45.653,151.600 45.812 C 150.610 45.970,149.445 46.348,149.011 46.650 C 148.577 46.953,147.767 47.201,147.211 47.203 C 146.655 47.204,145.660 47.563,145.000 48.000 C 144.340 48.437,143.437 48.796,142.994 48.797 C 142.551 48.799,141.516 49.160,140.696 49.600 C 139.875 50.040,138.916 50.400,138.565 50.400 C 138.213 50.400,137.469 50.760,136.909 51.200 C 136.350 51.640,135.511 52.001,135.046 52.003 C 134.581 52.004,133.660 52.363,133.000 52.800 C 132.340 53.237,131.507 53.596,131.149 53.597 C 130.791 53.599,130.289 53.852,130.033 54.161 C 129.777 54.469,129.080 54.843,128.484 54.992 C 127.888 55.141,127.130 55.497,126.800 55.784 C 126.470 56.071,125.750 56.441,125.200 56.608 C 124.650 56.774,123.771 57.245,123.246 57.655 C 122.721 58.065,121.976 58.400,121.589 58.400 C 121.202 58.400,120.788 58.653,120.670 58.962 C 120.551 59.272,119.902 59.646,119.227 59.794 C 118.552 59.942,118.000 60.234,118.000 60.442 C 118.000 60.650,117.545 60.993,116.989 61.204 C 116.434 61.415,115.759 61.773,115.489 61.999 C 114.699 62.661,109.557 66.000,109.326 66.000 C 109.210 66.000,108.611 66.405,107.994 66.900 C 105.635 68.793,105.022 69.200,104.533 69.200 C 104.255 69.200,103.835 69.560,103.600 70.000 C 103.365 70.440,102.998 70.800,102.786 70.800 C 102.574 70.800,102.067 71.115,101.661 71.500 C 101.254 71.885,100.411 72.560,99.787 73.000 C 98.780 73.709,97.594 74.649,95.611 76.312 C 95.275 76.593,93.495 78.213,91.656 79.912 C 89.816 81.610,88.086 83.130,87.811 83.289 C 86.838 83.851,75.130 96.770,73.614 98.955 C 72.721 100.243,72.265 100.795,71.500 101.517 C 71.115 101.880,70.800 102.401,70.800 102.675 C 70.800 102.948,70.440 103.365,70.000 103.600 C 69.560 103.835,69.200 104.264,69.200 104.552 C 69.200 104.840,68.840 105.402,68.400 105.800 C 67.960 106.198,67.600 106.738,67.600 107.000 C 67.600 107.262,67.240 107.802,66.800 108.200 C 66.360 108.598,66.000 109.138,66.000 109.400 C 66.000 109.662,65.640 110.202,65.200 110.600 C 64.760 110.998,64.400 111.557,64.400 111.842 C 64.400 112.127,64.164 112.504,63.877 112.680 C 63.589 112.856,63.117 113.585,62.828 114.300 C 62.539 115.015,62.162 115.600,61.991 115.600 C 61.819 115.600,61.490 116.140,61.260 116.800 C 61.030 117.460,60.667 118.000,60.453 118.000 C 60.239 118.000,59.942 118.552,59.794 119.227 C 59.646 119.902,59.272 120.551,58.962 120.670 C 58.653 120.788,58.400 121.202,58.400 121.589 C 58.400 121.976,58.051 122.736,57.625 123.278 C 57.198 123.820,56.731 124.737,56.586 125.315 C 56.440 125.894,56.081 126.567,55.786 126.811 C 55.492 127.055,55.138 127.770,55.000 128.400 C 54.862 129.030,54.490 129.759,54.174 130.021 C 53.858 130.283,53.600 130.755,53.600 131.070 C 53.600 131.384,53.240 132.352,52.800 133.221 C 52.360 134.089,51.640 135.511,51.200 136.379 C 50.760 137.248,50.400 138.238,50.400 138.581 C 50.400 138.923,50.040 139.875,49.600 140.696 C 49.160 141.516,48.800 142.501,48.800 142.884 C 48.800 143.267,48.441 144.170,48.001 144.890 C 47.562 145.611,47.202 146.655,47.201 147.211 C 47.201 147.767,46.953 148.577,46.650 149.011 C 46.348 149.445,45.970 150.610,45.812 151.600 C 45.653 152.590,45.297 153.760,45.020 154.200 C 44.744 154.640,44.387 155.900,44.228 157.000 C 44.068 158.100,43.704 159.365,43.419 159.810 C 43.133 160.256,42.766 161.786,42.603 163.210 C 42.440 164.635,42.082 166.250,41.808 166.800 C 41.534 167.350,41.208 169.198,41.085 170.907 C 40.962 172.616,40.594 174.776,40.267 175.707 C 39.940 176.641,39.478 180.360,39.238 184.000 C 38.999 187.630,38.607 192.715,38.367 195.300 C 38.052 198.693,38.052 201.307,38.367 204.700 C 38.607 207.285,38.999 212.370,39.238 216.000 C 39.478 219.630,39.926 223.323,40.234 224.206 C 40.542 225.089,40.911 227.249,41.053 229.006 C 41.195 230.763,41.535 232.650,41.809 233.200 C 42.083 233.750,42.440 235.365,42.603 236.790 C 42.766 238.214,43.130 239.744,43.412 240.190 C 43.693 240.635,44.050 241.990,44.205 243.200 C 44.360 244.410,44.717 245.670,45.000 246.000 C 45.282 246.330,45.643 247.410,45.802 248.400 C 45.961 249.390,46.274 250.427,46.498 250.704 C 46.722 250.981,47.062 252.048,47.253 253.074 C 47.445 254.100,47.871 255.237,48.201 255.601 C 48.530 255.965,48.806 256.609,48.814 257.031 C 48.821 257.454,49.175 258.520,49.600 259.400 C 50.025 260.280,50.379 261.234,50.386 261.521 C 50.394 261.807,50.738 262.707,51.151 263.521 C 51.565 264.334,52.306 265.900,52.800 267.000 C 53.294 268.100,54.035 269.666,54.449 270.479 C 54.862 271.293,55.200 272.238,55.200 272.579 C 55.200 272.921,55.358 273.200,55.551 273.200 C 55.745 273.200,56.138 273.785,56.424 274.500 C 56.711 275.215,57.273 276.229,57.673 276.754 C 58.073 277.279,58.400 278.024,58.400 278.411 C 58.400 278.798,58.647 279.209,58.949 279.325 C 59.250 279.441,59.616 280.010,59.762 280.591 C 59.908 281.171,60.628 282.501,61.362 283.546 C 62.096 284.590,62.817 285.823,62.964 286.286 C 63.110 286.748,63.494 287.227,63.815 287.350 C 64.137 287.474,64.400 287.834,64.400 288.152 C 64.400 288.469,65.120 289.639,66.000 290.752 C 66.880 291.866,67.600 292.934,67.600 293.126 C 67.600 293.319,67.960 293.802,68.400 294.200 C 68.840 294.598,69.200 295.160,69.200 295.448 C 69.200 295.736,69.560 296.165,70.000 296.400 C 70.440 296.635,70.800 297.032,70.800 297.281 C 70.800 297.529,71.073 298.018,71.407 298.366 C 71.741 298.715,72.866 300.088,73.907 301.417 C 78.833 307.708,93.819 323.200,94.979 323.200 C 95.086 323.200,95.803 323.830,96.573 324.600 C 97.343 325.370,98.072 326.000,98.192 326.000 C 98.391 326.000,102.131 328.862,103.600 330.139 C 103.930 330.425,105.145 331.262,106.300 331.997 C 107.455 332.733,108.400 333.484,108.400 333.667 C 108.400 333.850,108.572 334.000,108.782 334.000 C 109.203 334.000,111.853 335.665,112.800 336.525 C 113.130 336.825,113.729 337.189,114.132 337.335 C 114.534 337.480,115.794 338.186,116.932 338.904 C 120.221 340.980,120.523 341.154,121.986 341.810 C 122.748 342.151,123.468 342.559,123.586 342.716 C 123.880 343.106,128.182 345.200,128.691 345.200 C 128.917 345.200,129.326 345.470,129.600 345.800 C 129.874 346.130,130.412 346.400,130.795 346.400 C 131.178 346.400,131.950 346.760,132.509 347.200 C 133.069 347.640,133.879 348.000,134.309 348.000 C 134.740 348.000,135.521 348.337,136.046 348.748 C 136.571 349.159,137.630 349.632,138.400 349.799 C 139.170 349.966,140.155 350.349,140.589 350.651 C 141.023 350.953,141.699 351.200,142.090 351.200 C 142.482 351.200,143.475 351.560,144.296 352.000 C 145.116 352.440,146.156 352.800,146.605 352.800 C 147.054 352.800,147.799 353.064,148.260 353.387 C 148.721 353.710,149.886 354.097,150.849 354.248 C 151.812 354.398,153.227 354.854,153.994 355.261 C 154.761 355.667,156.026 356.000,156.805 356.000 C 157.584 356.000,158.613 356.274,159.091 356.608 C 159.568 356.943,161.203 357.373,162.723 357.564 C 164.242 357.755,165.827 358.092,166.243 358.314 C 166.659 358.536,168.260 358.836,169.800 358.982 C 171.340 359.127,173.320 359.492,174.200 359.793 C 175.080 360.094,178.410 360.533,181.600 360.768 C 184.790 361.002,188.029 361.376,188.797 361.597 C 189.566 361.819,194.607 362.000,200.000 362.000 C 205.393 362.000,210.434 361.819,211.203 361.597 C 211.971 361.376,215.210 361.002,218.400 360.768 C 221.590 360.533,224.920 360.094,225.800 359.793 C 226.680 359.492,228.660 359.127,230.200 358.982 C 231.740 358.836,233.341 358.536,233.757 358.314 C 234.173 358.092,235.758 357.755,237.277 357.564 C 238.797 357.373,240.432 356.943,240.909 356.608 C 241.387 356.274,242.416 356.000,243.195 356.000 C 243.974 356.000,245.284 355.640,246.104 355.200 C 246.925 354.760,248.003 354.396,248.499 354.391 C 248.994 354.386,250.185 354.026,251.144 353.591 C 252.103 353.156,253.273 352.799,253.744 352.797 C 254.215 352.796,255.140 352.437,255.800 352.000 C 256.460 351.563,257.316 351.204,257.701 351.203 C 258.087 351.201,259.075 350.840,259.896 350.400 C 260.716 349.960,261.774 349.600,262.245 349.600 C 262.716 349.600,263.317 349.342,263.579 349.026 C 263.841 348.710,264.628 348.326,265.328 348.174 C 266.027 348.021,267.029 347.559,267.554 347.148 C 268.079 346.737,268.822 346.400,269.205 346.400 C 269.588 346.400,270.117 346.142,270.379 345.826 C 270.641 345.510,271.370 345.138,272.000 345.000 C 272.630 344.862,273.350 344.502,273.600 344.200 C 273.850 343.898,274.581 343.536,275.223 343.395 C 275.865 343.254,276.505 342.954,276.644 342.728 C 276.784 342.503,277.461 342.064,278.149 341.753 C 279.476 341.154,279.811 340.960,283.068 338.904 C 284.206 338.186,285.465 337.473,285.867 337.319 C 286.268 337.165,287.497 336.356,288.598 335.521 C 289.699 334.686,290.825 334.003,291.100 334.002 C 291.375 334.001,291.600 333.838,291.600 333.640 C 291.600 333.326,292.327 332.791,295.190 331.000 C 295.864 330.578,296.750 329.860,298.029 328.700 C 298.453 328.315,298.986 328.000,299.213 328.000 C 299.439 328.000,299.731 327.725,299.860 327.388 C 299.989 327.051,300.507 326.556,301.011 326.288 C 302.398 325.549,305.613 322.724,312.251 316.410 C 316.515 312.354,316.851 312.200,321.400 312.203 C 325.260 312.206,325.465 312.252,327.258 313.503 C 329.727 315.226,332.000 314.637,332.000 312.274 C 332.000 311.867,332.316 311.600,332.800 311.600 C 333.333 311.600,333.600 311.333,333.600 310.800 C 333.600 310.267,333.867 310.000,334.400 310.000 C 334.933 310.000,335.200 309.733,335.200 309.200 C 335.200 308.667,335.467 308.400,336.000 308.400 C 336.518 308.400,336.800 308.133,336.800 307.643 C 336.800 307.226,337.053 306.788,337.362 306.670 C 337.672 306.551,338.046 305.902,338.194 305.227 C 338.350 304.517,338.719 304.000,339.069 304.000 C 339.402 304.000,339.769 303.640,339.884 303.200 C 339.999 302.760,340.339 302.400,340.639 302.400 C 340.939 302.400,341.309 301.907,341.460 301.304 C 341.611 300.701,341.975 299.968,342.267 299.675 C 342.560 299.382,342.800 298.796,342.800 298.371 C 342.800 297.867,343.077 297.600,343.600 297.600 C 344.117 297.600,344.400 297.333,344.400 296.847 C 344.400 296.430,344.757 296.000,345.200 295.884 C 345.813 295.724,346.000 295.338,346.000 294.237 C 346.000 293.067,346.148 292.800,346.800 292.800 C 347.448 292.800,347.600 292.533,347.600 291.400 C 347.600 290.267,347.752 290.000,348.400 290.000 C 348.976 290.000,349.200 289.733,349.200 289.047 C 349.200 288.430,349.482 288.019,350.000 287.884 C 350.574 287.734,350.800 287.338,350.800 286.484 C 350.800 285.630,351.026 285.234,351.600 285.084 C 352.213 284.924,352.400 284.538,352.400 283.437 C 352.400 282.267,352.548 282.000,353.200 282.000 C 353.863 282.000,354.000 281.733,354.000 280.447 C 354.000 279.230,354.173 278.848,354.800 278.684 C 355.406 278.525,355.600 278.138,355.600 277.084 C 355.600 276.030,355.794 275.643,356.400 275.484 C 356.975 275.334,357.200 274.938,357.200 274.080 C 357.200 273.387,357.452 272.789,357.800 272.655 C 358.171 272.513,358.400 271.904,358.400 271.059 C 358.400 270.030,358.597 269.642,359.200 269.484 C 359.846 269.315,360.000 268.938,360.000 267.526 C 360.000 266.235,360.210 265.625,360.800 265.200 C 361.349 264.804,361.600 264.165,361.600 263.158 C 361.600 262.030,361.784 261.645,362.400 261.484 C 363.066 261.310,363.200 260.938,363.200 259.264 C 363.200 257.605,363.340 257.210,364.000 257.000 C 364.668 256.788,364.800 256.395,364.800 254.620 C 364.800 252.830,364.927 252.460,365.600 252.284 C 366.287 252.105,366.400 251.738,366.400 249.699 C 366.400 247.832,366.571 247.169,367.200 246.600 C 367.810 246.048,368.000 245.368,368.000 243.738 C 368.000 242.133,368.200 241.400,368.800 240.800 C 369.458 240.142,369.600 239.467,369.600 237.000 C 369.600 234.533,369.742 233.858,370.400 233.200 C 371.095 232.505,371.200 231.867,371.200 228.344 C 371.200 224.943,371.313 224.206,371.900 223.777 C 373.083 222.913,372.955 208.251,371.763 208.080 C 371.121 207.989,365.526 213.355,347.763 231.097 C 335.023 243.822,323.880 254.665,323.000 255.193 C 317.365 258.575,309.600 253.827,309.600 247.000 C 309.600 243.184,309.861 242.864,326.906 225.752 C 338.493 214.119,342.352 210.014,341.946 209.752 C 341.644 209.557,319.630 209.311,292.600 209.200 C 246.547 209.011,243.726 208.959,242.479 208.279 C 236.770 205.162,235.889 197.704,240.687 193.109 C 243.237 190.666,240.202 190.800,293.138 190.800 C 331.571 190.800,341.588 190.696,341.921 190.296 C 342.236 189.915,338.595 186.054,327.114 174.596 C 318.740 166.238,311.374 158.600,310.744 157.622 C 305.993 150.237,315.246 140.729,322.979 145.051 C 324.194 145.730,333.042 154.267,348.022 169.215 C 366.965 188.118,371.337 192.289,372.017 192.111 C 373.186 191.806,373.082 177.813,371.900 176.509 C 371.344 175.896,371.199 175.001,371.195 172.169 C 371.188 168.140,370.938 166.800,370.193 166.800 C 369.823 166.800,369.641 165.785,369.540 163.168 C 369.429 160.278,369.257 159.430,368.700 159.023 C 368.181 158.644,368.000 157.946,368.000 156.318 C 368.000 154.632,367.815 153.956,367.200 153.400 C 366.576 152.835,366.400 152.168,366.400 150.365 C 366.400 148.405,366.278 148.015,365.600 147.800 C 364.929 147.587,364.800 147.195,364.800 145.373 C 364.800 143.467,364.702 143.200,364.000 143.200 C 363.295 143.200,363.200 142.933,363.200 140.963 C 363.200 139.062,363.080 138.694,362.400 138.516 C 361.780 138.354,361.600 137.970,361.600 136.815 C 361.600 135.832,361.327 135.077,360.800 134.600 C 360.273 134.123,360.000 133.368,360.000 132.385 C 360.000 131.230,359.820 130.846,359.200 130.684 C 358.587 130.524,358.400 130.138,358.400 129.037 C 358.400 128.026,358.222 127.600,357.800 127.600 C 357.378 127.600,357.200 127.174,357.200 126.163 C 357.200 125.062,357.013 124.676,356.400 124.516 C 355.794 124.357,355.600 123.970,355.600 122.916 C 355.600 121.862,355.406 121.475,354.800 121.316 C 354.194 121.157,354.000 120.770,354.000 119.716 C 354.000 118.662,353.806 118.275,353.200 118.116 C 352.603 117.960,352.400 117.570,352.400 116.580 C 352.400 115.605,352.188 115.187,351.600 115.000 C 351.032 114.820,350.800 114.395,350.800 113.536 C 350.800 112.662,350.578 112.267,350.000 112.116 C 349.557 112.000,349.200 111.570,349.200 111.153 C 349.200 110.667,348.917 110.400,348.400 110.400 C 347.733 110.400,347.600 110.133,347.600 108.800 C 347.600 107.467,347.467 107.200,346.800 107.200 C 346.178 107.200,346.000 106.933,346.000 106.003 C 346.000 105.240,345.710 104.626,345.200 104.307 C 344.760 104.032,344.400 103.491,344.400 103.104 C 344.400 102.667,344.097 102.400,343.600 102.400 C 343.024 102.400,342.800 102.133,342.800 101.449 C 342.800 100.926,342.530 100.274,342.200 100.000 C 341.870 99.726,341.600 99.264,341.600 98.974 C 341.600 98.683,341.273 98.210,340.874 97.923 C 340.474 97.635,340.030 97.085,339.886 96.700 C 339.743 96.315,339.364 96.000,339.044 96.000 C 338.721 96.000,338.344 95.455,338.194 94.773 C 338.046 94.098,337.672 93.449,337.362 93.330 C 337.053 93.212,336.800 92.774,336.800 92.357 C 336.800 91.867,336.518 91.600,336.000 91.600 C 335.467 91.600,335.200 91.333,335.200 90.800 C 335.200 90.267,334.933 90.000,334.400 90.000 C 333.867 90.000,333.600 89.733,333.600 89.200 C 333.600 88.667,333.333 88.400,332.800 88.400 C 332.289 88.400,332.000 88.133,332.000 87.662 C 332.000 85.783,329.816 85.139,327.800 86.423 C 325.881 87.646,325.108 87.903,322.992 88.021 C 319.637 88.207,317.682 88.025,317.129 87.474 C 316.838 87.185,316.308 86.780,315.951 86.574 C 315.594 86.368,313.450 84.490,311.187 82.400 C 308.923 80.310,306.605 78.200,306.035 77.711 C 305.466 77.222,304.730 76.581,304.400 76.287 C 302.275 74.390,297.593 70.800,297.246 70.800 C 297.016 70.800,296.635 70.440,296.400 70.000 C 296.165 69.560,295.779 69.200,295.544 69.200 C 295.308 69.200,294.620 68.795,294.013 68.300 C 293.407 67.805,292.509 67.130,292.018 66.800 C 291.527 66.470,290.567 65.795,289.885 65.300 C 289.203 64.805,288.404 64.400,288.110 64.400 C 287.816 64.400,287.474 64.137,287.350 63.815 C 287.227 63.494,286.748 63.110,286.286 62.964 C 285.823 62.817,284.625 62.126,283.623 61.429 C 282.620 60.731,281.215 59.922,280.500 59.632 C 279.785 59.341,279.200 58.945,279.200 58.751 C 279.200 58.558,278.864 58.400,278.454 58.400 C 278.044 58.400,277.279 58.078,276.754 57.684 C 276.229 57.290,275.350 56.752,274.800 56.487 C 274.250 56.222,273.530 55.851,273.200 55.662 C 272.870 55.473,271.700 54.910,270.600 54.410 C 269.500 53.911,267.934 53.165,267.121 52.751 C 266.307 52.338,265.375 52.000,265.049 52.000 C 264.724 52.000,264.201 51.744,263.889 51.432 C 263.576 51.119,262.588 50.666,261.693 50.425 C 260.799 50.184,259.557 49.721,258.933 49.396 C 258.310 49.071,257.574 48.804,257.299 48.802 C 257.023 48.801,256.125 48.440,255.304 48.000 C 254.484 47.560,253.354 47.200,252.795 47.200 C 252.236 47.200,251.423 46.953,250.989 46.650 C 250.555 46.348,249.390 45.968,248.400 45.807 C 247.410 45.645,246.330 45.282,246.000 45.000 C 245.670 44.717,244.410 44.360,243.200 44.205 C 241.990 44.050,240.627 43.688,240.172 43.400 C 239.716 43.111,238.276 42.745,236.972 42.586 C 235.667 42.427,233.970 42.066,233.200 41.783 C 232.430 41.500,230.417 41.167,228.726 41.042 C 227.036 40.917,224.966 40.561,224.126 40.252 C 223.287 39.942,219.540 39.481,215.800 39.228 C 212.060 38.975,207.650 38.606,206.000 38.409 C 202.470 37.986,197.248 37.996,193.600 38.433 M204.116 191.656 C 208.673 193.971,210.605 199.661,208.346 204.116 C 203.943 212.801,190.800 209.837,190.800 200.160 C 190.800 193.317,198.148 188.624,204.116 191.656 " stroke="none" fill="#fbfbfb" fill-rule="evenodd"></path><path id="path3" d="M193.600 37.828 C 190.045 38.052,178.804 39.208,176.200 39.616 C 170.334 40.536,161.246 42.424,158.698 43.252 C 157.433 43.663,156.044 44.000,155.612 44.000 C 155.180 44.000,154.236 44.256,153.514 44.569 C 152.791 44.882,150.490 45.683,148.400 46.348 C 142.450 48.242,139.855 49.185,139.431 49.609 C 139.216 49.824,138.781 50.000,138.464 50.000 C 137.900 50.000,137.316 50.247,132.000 52.732 C 130.570 53.400,128.590 54.313,127.600 54.760 C 126.610 55.207,124.540 56.299,123.000 57.187 C 121.460 58.074,119.480 59.160,118.600 59.600 C 117.720 60.040,115.920 61.121,114.600 62.002 C 113.280 62.884,111.749 63.828,111.199 64.102 C 110.648 64.376,109.388 65.199,108.399 65.930 C 99.600 72.437,97.239 74.266,93.587 77.403 C 84.620 85.107,75.871 94.643,69.000 104.205 C 68.120 105.429,66.725 107.319,65.900 108.404 C 65.075 109.489,64.400 110.498,64.400 110.647 C 64.400 110.796,63.747 111.926,62.948 113.159 C 62.150 114.391,61.090 116.030,60.593 116.800 C 58.817 119.552,55.507 125.937,52.714 132.000 C 52.056 133.430,51.175 135.340,50.758 136.244 C 50.341 137.148,50.000 138.055,50.000 138.259 C 50.000 138.464,49.640 139.337,49.200 140.200 C 48.760 141.063,48.400 142.018,48.400 142.323 C 48.400 142.627,48.141 143.354,47.825 143.938 C 47.509 144.522,46.773 146.620,46.191 148.600 C 45.609 150.580,44.890 152.830,44.593 153.600 C 44.296 154.370,43.936 155.714,43.792 156.586 C 43.649 157.459,43.277 158.665,42.966 159.266 C 42.655 159.868,42.400 160.768,42.400 161.267 C 42.400 161.766,42.058 163.620,41.640 165.387 C 40.383 170.708,39.516 176.184,38.536 185.000 C 37.284 196.262,37.718 211.701,39.626 223.800 C 40.609 230.033,41.193 233.191,41.772 235.384 C 42.117 236.695,42.401 238.225,42.402 238.784 C 42.404 239.343,42.648 240.267,42.946 240.837 C 43.244 241.408,43.616 242.578,43.774 243.437 C 44.093 245.174,46.968 254.324,47.785 256.200 C 48.072 256.860,48.881 258.907,49.581 260.750 C 50.282 262.592,50.994 264.392,51.165 264.750 C 51.335 265.107,51.846 266.210,52.300 267.200 C 54.974 273.022,59.244 281.191,61.111 284.057 C 61.490 284.638,62.413 286.168,63.163 287.457 C 63.913 288.746,65.087 290.520,65.772 291.400 C 66.457 292.280,67.553 293.804,68.208 294.787 C 68.864 295.769,69.638 296.849,69.929 297.187 C 70.220 297.524,71.570 299.245,72.929 301.012 C 75.408 304.233,75.957 304.887,79.964 309.376 C 86.127 316.282,99.093 327.915,105.061 331.893 C 105.467 332.164,106.475 332.839,107.300 333.393 C 108.125 333.947,109.475 334.853,110.300 335.407 C 111.125 335.961,112.070 336.596,112.400 336.817 C 114.067 337.935,117.517 340.045,118.400 340.487 C 118.950 340.762,120.840 341.806,122.600 342.807 C 124.360 343.808,126.880 345.131,128.200 345.746 C 132.432 347.718,134.969 348.878,136.200 349.402 C 136.860 349.684,138.230 350.293,139.244 350.757 C 140.258 351.221,141.433 351.600,141.855 351.600 C 142.277 351.600,142.977 351.838,143.411 352.128 C 143.845 352.419,145.730 353.143,147.600 353.737 C 149.470 354.331,151.540 355.009,152.200 355.243 C 154.050 355.900,158.737 357.185,161.400 357.766 C 162.720 358.054,164.520 358.480,165.400 358.713 C 166.280 358.946,167.990 359.263,169.200 359.418 C 170.410 359.573,171.829 359.862,172.353 360.060 C 172.878 360.259,175.668 360.686,178.553 361.010 C 181.439 361.334,185.150 361.771,186.800 361.982 C 190.490 362.453,209.238 362.483,212.800 362.023 C 214.230 361.839,217.952 361.399,221.070 361.045 C 224.189 360.692,227.159 360.245,227.670 360.051 C 228.182 359.858,229.590 359.573,230.800 359.418 C 232.010 359.263,233.720 358.946,234.600 358.713 C 235.480 358.480,237.280 358.054,238.600 357.766 C 241.402 357.155,246.081 355.862,247.800 355.223 C 248.460 354.978,250.620 354.257,252.600 353.620 C 254.580 352.983,257.190 352.069,258.400 351.589 C 259.610 351.109,261.320 350.454,262.200 350.133 C 263.080 349.812,265.820 348.571,268.288 347.375 C 270.757 346.179,272.882 345.200,273.010 345.200 C 273.138 345.200,274.957 344.210,277.053 343.000 C 279.149 341.790,280.956 340.800,281.070 340.800 C 281.712 340.800,295.296 331.776,297.153 330.115 C 297.509 329.797,298.880 328.725,300.200 327.732 C 303.146 325.517,306.312 322.771,310.629 318.687 C 316.561 313.074,317.289 312.638,321.200 312.347 L 324.600 312.095 321.000 312.160 C 316.910 312.234,316.361 312.501,312.251 316.410 C 305.543 322.791,302.399 325.549,300.964 326.313 C 300.434 326.595,300.000 327.005,300.000 327.225 C 300.000 327.445,299.699 327.741,299.331 327.882 C 298.962 328.023,298.345 328.423,297.959 328.769 C 296.699 329.901,295.841 330.593,295.190 331.000 C 292.327 332.791,291.600 333.326,291.600 333.640 C 291.600 333.838,291.375 334.001,291.100 334.002 C 290.825 334.003,289.699 334.686,288.598 335.521 C 287.497 336.356,286.268 337.165,285.867 337.319 C 285.465 337.473,284.206 338.186,283.068 338.904 C 279.811 340.960,279.476 341.154,278.149 341.753 C 277.461 342.064,276.784 342.503,276.644 342.728 C 276.505 342.954,275.865 343.254,275.223 343.395 C 274.581 343.536,273.850 343.898,273.600 344.200 C 273.350 344.502,272.630 344.862,272.000 345.000 C 271.370 345.138,270.641 345.510,270.379 345.826 C 270.117 346.142,269.588 346.400,269.205 346.400 C 268.822 346.400,268.079 346.737,267.554 347.148 C 267.029 347.559,266.027 348.021,265.328 348.174 C 264.628 348.326,263.841 348.710,263.579 349.026 C 263.317 349.342,262.716 349.600,262.245 349.600 C 261.774 349.600,260.716 349.960,259.896 350.400 C 259.075 350.840,258.087 351.201,257.701 351.203 C 257.316 351.204,256.460 351.563,255.800 352.000 C 255.140 352.437,254.215 352.796,253.744 352.797 C 253.273 352.799,252.103 353.156,251.144 353.591 C 250.185 354.026,248.994 354.386,248.499 354.391 C 248.003 354.396,246.925 354.760,246.104 355.200 C 245.284 355.640,243.974 356.000,243.195 356.000 C 242.416 356.000,241.387 356.274,240.909 356.608 C 240.432 356.943,238.797 357.373,237.277 357.564 C 235.758 357.755,234.173 358.092,233.757 358.314 C 233.341 358.536,231.740 358.836,230.200 358.982 C 228.660 359.127,226.680 359.492,225.800 359.793 C 224.920 360.094,221.590 360.533,218.400 360.768 C 215.210 361.002,211.971 361.376,211.203 361.597 C 209.384 362.121,190.616 362.121,188.797 361.597 C 188.029 361.376,184.790 361.002,181.600 360.768 C 178.410 360.533,175.080 360.094,174.200 359.793 C 173.320 359.492,171.340 359.127,169.800 358.982 C 168.260 358.836,166.659 358.536,166.243 358.314 C 165.827 358.092,164.242 357.755,162.723 357.564 C 161.203 357.373,159.568 356.943,159.091 356.608 C 158.613 356.274,157.584 356.000,156.805 356.000 C 156.026 356.000,154.761 355.667,153.994 355.261 C 153.227 354.854,151.812 354.398,150.849 354.248 C 149.886 354.097,148.721 353.710,148.260 353.387 C 147.799 353.064,147.054 352.800,146.605 352.800 C 146.156 352.800,145.116 352.440,144.296 352.000 C 143.475 351.560,142.482 351.200,142.090 351.200 C 141.699 351.200,141.023 350.953,140.589 350.651 C 140.155 350.349,139.170 349.966,138.400 349.799 C 137.630 349.632,136.571 349.159,136.046 348.748 C 135.521 348.337,134.740 348.000,134.309 348.000 C 133.879 348.000,133.069 347.640,132.509 347.200 C 131.950 346.760,131.178 346.400,130.795 346.400 C 130.412 346.400,129.874 346.130,129.600 345.800 C 129.326 345.470,128.917 345.200,128.691 345.200 C 128.182 345.200,123.880 343.106,123.586 342.716 C 123.468 342.559,122.748 342.151,121.986 341.810 C 120.523 341.154,120.221 340.980,116.932 338.904 C 115.794 338.186,114.534 337.480,114.132 337.335 C 113.729 337.189,113.130 336.825,112.800 336.525 C 111.853 335.665,109.203 334.000,108.782 334.000 C 108.572 334.000,108.400 333.850,108.400 333.667 C 108.400 333.484,107.455 332.733,106.300 331.997 C 105.145 331.262,103.930 330.425,103.600 330.139 C 102.131 328.862,98.391 326.000,98.192 326.000 C 98.072 326.000,97.343 325.370,96.573 324.600 C 95.803 323.830,95.086 323.200,94.979 323.200 C 94.412 323.200,82.666 311.668,79.091 307.600 C 75.885 303.953,76.003 304.093,73.907 301.417 C 72.866 300.088,71.741 298.715,71.407 298.366 C 71.073 298.018,70.800 297.529,70.800 297.281 C 70.800 297.032,70.440 296.635,70.000 296.400 C 69.560 296.165,69.200 295.736,69.200 295.448 C 69.200 295.160,68.840 294.598,68.400 294.200 C 67.960 293.802,67.600 293.319,67.600 293.126 C 67.600 292.934,66.880 291.866,66.000 290.752 C 65.120 289.639,64.400 288.469,64.400 288.152 C 64.400 287.834,64.137 287.474,63.815 287.350 C 63.494 287.227,63.110 286.748,62.964 286.286 C 62.817 285.823,62.096 284.590,61.362 283.546 C 60.628 282.501,59.908 281.171,59.762 280.591 C 59.616 280.010,59.250 279.441,58.949 279.325 C 58.647 279.209,58.400 278.798,58.400 278.411 C 58.400 278.024,58.073 277.279,57.673 276.754 C 57.273 276.229,56.711 275.215,56.424 274.500 C 56.138 273.785,55.745 273.200,55.551 273.200 C 55.358 273.200,55.200 272.921,55.200 272.579 C 55.200 272.238,54.862 271.293,54.449 270.479 C 54.035 269.666,53.294 268.100,52.800 267.000 C 52.306 265.900,51.565 264.334,51.151 263.521 C 50.738 262.707,50.394 261.807,50.386 261.521 C 50.379 261.234,50.025 260.280,49.600 259.400 C 49.175 258.520,48.821 257.454,48.814 257.031 C 48.806 256.609,48.530 255.965,48.201 255.601 C 47.871 255.237,47.445 254.100,47.253 253.074 C 47.062 252.048,46.722 250.981,46.498 250.704 C 46.274 250.427,45.961 249.390,45.802 248.400 C 45.643 247.410,45.282 246.330,45.000 246.000 C 44.717 245.670,44.360 244.410,44.205 243.200 C 44.050 241.990,43.693 240.635,43.412 240.190 C 43.130 239.744,42.766 238.214,42.603 236.790 C 42.440 235.365,42.083 233.750,41.809 233.200 C 41.535 232.650,41.195 230.763,41.053 229.006 C 40.911 227.249,40.542 225.089,40.234 224.206 C 39.926 223.323,39.478 219.630,39.238 216.000 C 38.999 212.370,38.607 207.285,38.367 204.700 C 38.052 201.307,38.052 198.693,38.367 195.300 C 38.607 192.715,38.999 187.630,39.238 184.000 C 39.478 180.360,39.940 176.641,40.267 175.707 C 40.594 174.776,40.962 172.616,41.085 170.907 C 41.208 169.198,41.534 167.350,41.808 166.800 C 42.082 166.250,42.440 164.635,42.603 163.210 C 42.766 161.786,43.133 160.256,43.419 159.810 C 43.704 159.365,44.068 158.100,44.228 157.000 C 44.387 155.900,44.744 154.640,45.020 154.200 C 45.297 153.760,45.653 152.590,45.812 151.600 C 45.970 150.610,46.348 149.445,46.650 149.011 C 46.953 148.577,47.201 147.767,47.201 147.211 C 47.202 146.655,47.562 145.611,48.001 144.890 C 48.441 144.170,48.800 143.267,48.800 142.884 C 48.800 142.501,49.160 141.516,49.600 140.696 C 50.040 139.875,50.400 138.923,50.400 138.581 C 50.400 138.238,50.760 137.248,51.200 136.379 C 51.640 135.511,52.360 134.089,52.800 133.221 C 53.240 132.352,53.600 131.384,53.600 131.070 C 53.600 130.755,53.858 130.283,54.174 130.021 C 54.490 129.759,54.862 129.030,55.000 128.400 C 55.138 127.770,55.492 127.055,55.786 126.811 C 56.081 126.567,56.440 125.894,56.586 125.315 C 56.731 124.737,57.198 123.820,57.625 123.278 C 58.051 122.736,58.400 121.976,58.400 121.589 C 58.400 121.202,58.653 120.788,58.962 120.670 C 59.272 120.551,59.646 119.902,59.794 119.227 C 59.942 118.552,60.239 118.000,60.453 118.000 C 60.667 118.000,61.030 117.460,61.260 116.800 C 61.490 116.140,61.819 115.600,61.991 115.600 C 62.162 115.600,62.539 115.015,62.828 114.300 C 63.117 113.585,63.589 112.856,63.877 112.680 C 64.164 112.504,64.400 112.127,64.400 111.842 C 64.400 111.557,64.760 110.998,65.200 110.600 C 65.640 110.202,66.000 109.662,66.000 109.400 C 66.000 109.138,66.360 108.598,66.800 108.200 C 67.240 107.802,67.600 107.262,67.600 107.000 C 67.600 106.738,67.960 106.198,68.400 105.800 C 68.840 105.402,69.200 104.840,69.200 104.552 C 69.200 104.264,69.560 103.835,70.000 103.600 C 70.440 103.365,70.800 102.948,70.800 102.675 C 70.800 102.401,71.115 101.880,71.500 101.517 C 72.265 100.795,72.721 100.243,73.614 98.955 C 75.130 96.770,86.838 83.851,87.811 83.289 C 88.086 83.130,89.816 81.610,91.656 79.912 C 93.495 78.213,95.275 76.593,95.611 76.312 C 97.594 74.649,98.780 73.709,99.787 73.000 C 100.411 72.560,101.254 71.885,101.661 71.500 C 102.067 71.115,102.574 70.800,102.786 70.800 C 102.998 70.800,103.365 70.440,103.600 70.000 C 103.835 69.560,104.255 69.200,104.533 69.200 C 105.022 69.200,105.635 68.793,107.994 66.900 C 108.611 66.405,109.210 66.000,109.326 66.000 C 109.557 66.000,114.699 62.661,115.489 61.999 C 115.759 61.773,116.434 61.415,116.989 61.204 C 117.545 60.993,118.000 60.650,118.000 60.442 C 118.000 60.234,118.552 59.942,119.227 59.794 C 119.902 59.646,120.551 59.272,120.670 58.962 C 120.788 58.653,121.202 58.400,121.589 58.400 C 121.976 58.400,122.721 58.065,123.246 57.655 C 123.771 57.245,124.650 56.774,125.200 56.608 C 125.750 56.441,126.470 56.071,126.800 55.784 C 127.130 55.497,127.888 55.141,128.484 54.992 C 129.080 54.843,129.777 54.469,130.033 54.161 C 130.289 53.852,130.791 53.599,131.149 53.597 C 131.507 53.596,132.340 53.237,133.000 52.800 C 133.660 52.363,134.581 52.004,135.046 52.003 C 135.511 52.001,136.350 51.640,136.909 51.200 C 137.469 50.760,138.213 50.400,138.565 50.400 C 138.916 50.400,139.875 50.040,140.696 49.600 C 141.516 49.160,142.551 48.799,142.994 48.797 C 143.437 48.796,144.340 48.437,145.000 48.000 C 145.660 47.563,146.655 47.204,147.211 47.203 C 147.767 47.201,148.577 46.953,149.011 46.650 C 149.445 46.348,150.610 45.970,151.600 45.812 C 152.590 45.653,153.760 45.297,154.200 45.020 C 154.640 44.744,155.900 44.387,157.000 44.228 C 158.100 44.068,159.371 43.700,159.825 43.409 C 160.279 43.118,161.899 42.750,163.425 42.590 C 164.951 42.431,166.547 42.120,166.972 41.898 C 167.396 41.677,169.196 41.336,170.972 41.142 C 172.747 40.948,175.010 40.532,176.000 40.217 C 176.990 39.902,180.680 39.453,184.200 39.219 C 187.720 38.985,192.715 38.586,195.300 38.334 C 198.844 37.987,201.156 37.988,204.700 38.336 C 207.285 38.590,212.370 38.997,216.000 39.242 C 219.630 39.486,223.287 39.940,224.126 40.250 C 224.966 40.561,227.036 40.917,228.726 41.042 C 230.417 41.167,232.430 41.500,233.200 41.783 C 233.970 42.066,235.667 42.427,236.972 42.586 C 238.276 42.745,239.716 43.111,240.172 43.400 C 240.627 43.688,241.990 44.050,243.200 44.205 C 244.410 44.360,245.670 44.717,246.000 45.000 C 246.330 45.282,247.410 45.645,248.400 45.807 C 249.390 45.968,250.555 46.348,250.989 46.650 C 251.423 46.953,252.236 47.200,252.795 47.200 C 253.354 47.200,254.484 47.560,255.304 48.000 C 256.125 48.440,257.023 48.801,257.299 48.802 C 257.574 48.804,258.310 49.071,258.933 49.396 C 259.557 49.721,260.799 50.184,261.693 50.425 C 262.588 50.666,263.576 51.119,263.889 51.432 C 264.201 51.744,264.724 52.000,265.049 52.000 C 265.375 52.000,266.307 52.338,267.121 52.751 C 267.934 53.165,269.500 53.911,270.600 54.410 C 271.700 54.910,272.870 55.473,273.200 55.662 C 273.530 55.851,274.250 56.222,274.800 56.487 C 275.350 56.752,276.229 57.290,276.754 57.684 C 277.279 58.078,278.044 58.400,278.454 58.400 C 278.864 58.400,279.200 58.558,279.200 58.751 C 279.200 58.945,279.785 59.341,280.500 59.632 C 281.215 59.922,282.620 60.731,283.623 61.429 C 284.625 62.126,285.823 62.817,286.286 62.964 C 286.748 63.110,287.227 63.494,287.350 63.815 C 287.474 64.137,287.816 64.400,288.110 64.400 C 288.404 64.400,289.203 64.805,289.885 65.300 C 290.567 65.795,291.527 66.470,292.018 66.800 C 292.509 67.130,293.407 67.805,294.013 68.300 C 294.620 68.795,295.308 69.200,295.544 69.200 C 295.779 69.200,296.165 69.560,296.400 70.000 C 296.635 70.440,297.016 70.800,297.246 70.800 C 297.593 70.800,302.275 74.390,304.400 76.287 C 304.730 76.581,305.466 77.222,306.035 77.711 C 306.605 78.200,308.923 80.310,311.187 82.400 C 313.450 84.490,315.594 86.368,315.951 86.574 C 316.308 86.780,316.838 87.185,317.129 87.474 C 317.682 88.025,319.637 88.207,322.992 88.021 C 325.108 87.903,325.881 87.646,327.800 86.423 C 328.460 86.003,329.360 85.624,329.800 85.583 C 330.476 85.519,330.492 85.479,329.905 85.325 C 329.523 85.225,328.110 85.703,326.765 86.386 C 321.212 89.208,318.580 88.465,311.748 82.149 C 309.577 80.142,307.170 77.983,306.400 77.352 C 305.630 76.721,304.820 76.002,304.600 75.754 C 304.380 75.505,302.760 74.199,301.000 72.851 C 296.728 69.579,295.592 68.685,295.032 68.152 C 294.773 67.905,294.030 67.408,293.380 67.046 C 292.210 66.394,288.652 63.977,287.711 63.195 C 287.441 62.971,286.811 62.608,286.311 62.388 C 285.810 62.168,284.921 61.676,284.335 61.294 C 283.750 60.912,282.220 60.009,280.935 59.286 C 279.651 58.563,278.330 57.804,278.000 57.598 C 277.376 57.208,271.370 54.244,265.755 51.554 C 263.970 50.700,262.354 50.000,262.164 50.000 C 261.973 50.000,260.284 49.390,258.409 48.644 C 254.285 47.004,246.616 44.489,243.600 43.788 C 242.390 43.507,240.860 43.087,240.200 42.855 C 236.658 41.610,225.790 39.749,215.400 38.608 C 209.817 37.995,197.775 37.564,193.600 37.828 M325.699 313.192 C 326.253 313.628,327.218 314.179,327.845 314.417 C 329.191 314.929,329.080 314.785,327.072 313.423 C 325.300 312.220,324.236 312.041,325.699 313.192 " stroke="none" fill="#b8babf" fill-rule="evenodd"></path><path id="path4" d="M186.784 37.558 C 184.685 37.718,182.766 37.974,182.520 38.126 C 182.274 38.278,179.993 38.572,177.451 38.779 C 174.909 38.986,172.466 39.350,172.022 39.588 C 171.578 39.826,169.732 40.207,167.920 40.434 C 166.108 40.661,164.437 41.003,164.207 41.194 C 163.977 41.385,162.621 41.718,161.194 41.934 C 159.767 42.150,157.880 42.605,157.000 42.946 C 156.120 43.286,154.945 43.573,154.389 43.582 C 153.833 43.592,153.023 43.848,152.589 44.152 C 152.155 44.455,150.768 44.917,149.507 45.179 C 148.246 45.440,147.123 45.801,147.011 45.982 C 146.900 46.162,146.141 46.435,145.325 46.588 C 144.509 46.741,143.477 47.121,143.031 47.433 C 142.586 47.745,141.947 48.002,141.611 48.004 C 141.275 48.006,140.100 48.450,139.000 48.991 C 137.900 49.532,136.790 49.981,136.532 49.987 C 136.275 49.994,135.555 50.252,134.932 50.560 C 133.724 51.158,127.665 54.009,126.000 54.763 C 125.450 55.012,124.280 55.644,123.400 56.168 C 122.520 56.692,120.675 57.693,119.300 58.393 C 117.925 59.094,116.800 59.792,116.800 59.946 C 116.800 60.099,116.305 60.444,115.700 60.711 C 114.037 61.447,106.388 66.377,104.551 67.897 C 104.084 68.284,103.298 68.870,102.804 69.200 C 101.743 69.908,95.593 74.768,94.687 75.614 C 94.342 75.936,93.193 76.920,92.134 77.800 C 87.694 81.487,81.487 87.694,77.800 92.134 C 76.920 93.193,75.936 94.342,75.614 94.687 C 74.811 95.547,69.940 101.699,69.200 102.788 C 68.870 103.273,68.195 104.114,67.700 104.656 C 67.205 105.198,66.800 105.845,66.800 106.095 C 66.800 106.344,66.463 106.920,66.052 107.374 C 64.819 108.734,62.523 112.183,62.225 113.123 C 62.071 113.605,61.790 114.000,61.599 114.000 C 61.408 114.000,61.024 114.630,60.746 115.400 C 60.467 116.170,60.098 116.800,59.925 116.800 C 59.752 116.800,59.346 117.385,59.022 118.100 C 58.697 118.815,57.706 120.660,56.818 122.200 C 55.931 123.740,55.003 125.450,54.757 126.000 C 54.108 127.451,51.216 133.607,50.560 134.932 C 50.252 135.555,49.994 136.275,49.987 136.532 C 49.981 136.790,49.532 137.900,48.991 139.000 C 48.450 140.100,48.006 141.304,48.004 141.676 C 48.002 142.048,47.825 142.461,47.611 142.593 C 47.397 142.726,47.026 143.591,46.787 144.517 C 46.549 145.443,46.115 146.740,45.824 147.400 C 45.533 148.060,45.170 149.301,45.018 150.158 C 44.866 151.016,44.506 152.096,44.218 152.558 C 43.930 153.021,43.578 154.184,43.436 155.142 C 43.294 156.100,42.937 157.360,42.643 157.942 C 42.349 158.524,41.984 159.976,41.831 161.169 C 41.679 162.362,41.380 163.664,41.167 164.062 C 40.954 164.460,40.595 166.258,40.369 168.058 C 40.143 169.857,39.778 171.667,39.557 172.080 C 39.337 172.492,38.989 174.872,38.786 177.368 C 38.583 179.863,38.198 182.422,37.932 183.053 C 37.235 184.703,37.244 215.317,37.942 216.974 C 38.214 217.620,38.527 219.600,38.638 221.374 C 38.749 223.148,39.180 226.220,39.595 228.200 C 40.558 232.795,41.100 235.467,41.819 239.156 C 42.135 240.781,42.568 242.320,42.780 242.576 C 42.992 242.831,43.292 243.841,43.448 244.820 C 43.604 245.799,44.058 247.320,44.457 248.200 C 44.856 249.080,45.187 250.160,45.194 250.600 C 45.200 251.040,45.474 251.916,45.802 252.546 C 46.131 253.176,46.400 253.993,46.400 254.361 C 46.400 254.729,46.758 255.734,47.196 256.593 C 47.634 257.452,48.103 258.744,48.238 259.463 C 48.373 260.183,48.735 260.980,49.042 261.235 C 49.349 261.490,49.600 261.979,49.600 262.323 C 49.600 262.972,50.204 264.399,52.763 269.800 C 53.598 271.560,54.489 273.450,54.745 274.000 C 55.001 274.550,55.626 275.720,56.133 276.600 C 56.641 277.480,57.601 279.190,58.267 280.400 C 60.373 284.229,60.982 285.237,61.700 286.091 C 62.085 286.548,62.400 287.069,62.400 287.249 C 62.400 287.608,65.503 292.286,66.300 293.129 C 66.575 293.419,66.800 293.809,66.800 293.994 C 66.800 294.310,70.429 299.092,73.304 302.565 C 74.017 303.426,74.960 304.566,75.400 305.098 C 77.318 307.418,78.184 308.403,81.299 311.800 C 84.426 315.211,90.349 320.870,93.757 323.705 C 94.613 324.417,95.809 325.450,96.416 326.000 C 97.022 326.550,97.942 327.316,98.459 327.702 C 98.977 328.088,100.792 329.483,102.494 330.802 C 104.196 332.121,105.673 333.200,105.776 333.200 C 106.043 333.200,108.940 335.188,109.191 335.543 C 109.306 335.706,110.278 336.346,111.352 336.966 C 113.140 338.000,115.577 339.538,116.623 340.294 C 116.856 340.462,117.756 340.973,118.623 341.428 C 122.790 343.616,124.601 344.642,125.106 345.100 C 125.409 345.375,125.856 345.600,126.098 345.600 C 126.341 345.600,128.083 346.336,129.970 347.236 C 131.856 348.136,133.940 349.111,134.600 349.402 C 135.260 349.693,136.824 350.396,138.075 350.965 C 139.327 351.534,140.686 352.000,141.095 352.000 C 141.505 352.000,142.016 352.176,142.231 352.391 C 142.669 352.829,146.453 354.212,149.200 354.937 C 150.190 355.199,151.382 355.629,151.850 355.894 C 152.317 356.158,153.487 356.495,154.450 356.643 C 155.412 356.790,156.667 357.146,157.237 357.434 C 157.808 357.721,159.248 358.080,160.437 358.231 C 161.627 358.383,162.796 358.660,163.035 358.848 C 163.274 359.036,164.889 359.387,166.624 359.629 C 168.359 359.870,170.088 360.233,170.467 360.436 C 170.845 360.638,173.010 360.984,175.278 361.203 C 177.545 361.423,180.210 361.827,181.200 362.101 C 183.767 362.813,216.253 362.809,218.800 362.097 C 219.790 361.820,222.428 361.431,224.662 361.231 C 226.896 361.032,229.061 360.689,229.473 360.468 C 229.885 360.248,231.641 359.870,233.376 359.629 C 235.111 359.387,236.726 359.036,236.965 358.848 C 237.204 358.660,238.388 358.381,239.595 358.227 C 240.803 358.073,242.333 357.705,242.995 357.409 C 243.658 357.113,244.920 356.751,245.800 356.606 C 246.680 356.460,247.760 356.111,248.200 355.831 C 248.640 355.550,249.714 355.188,250.586 355.026 C 251.459 354.864,252.665 354.477,253.266 354.166 C 253.868 353.855,254.687 353.600,255.086 353.600 C 255.485 353.600,256.484 353.240,257.304 352.800 C 258.125 352.360,259.025 352.000,259.304 352.000 C 259.584 352.000,260.439 351.664,261.206 351.253 C 261.973 350.843,263.173 350.381,263.872 350.228 C 264.572 350.074,265.359 349.690,265.621 349.374 C 265.883 349.058,266.320 348.800,266.591 348.800 C 266.862 348.800,268.505 348.081,270.242 347.202 C 271.979 346.323,273.552 345.603,273.737 345.602 C 273.922 345.601,274.531 345.240,275.091 344.800 C 275.650 344.360,276.416 344.000,276.792 344.000 C 277.168 344.000,277.802 343.640,278.200 343.200 C 278.598 342.760,279.125 342.400,279.371 342.400 C 279.617 342.400,280.775 341.770,281.944 341.000 C 283.113 340.230,284.189 339.595,284.335 339.589 C 284.763 339.570,291.435 335.154,292.537 334.158 C 292.806 333.915,293.501 333.465,294.082 333.158 C 294.662 332.851,295.736 332.118,296.469 331.529 C 297.201 330.940,299.330 329.244,301.200 327.760 C 303.070 326.276,304.870 324.820,305.200 324.524 C 305.952 323.850,308.281 321.731,312.649 317.744 C 318.623 312.291,321.694 311.403,325.600 314.000 C 326.881 314.851,327.862 315.189,329.000 315.171 L 330.600 315.146 328.762 314.650 C 327.750 314.378,326.421 313.760,325.808 313.277 C 324.866 312.537,324.183 312.400,321.418 312.400 C 317.603 312.400,316.748 312.897,310.681 318.637 C 306.315 322.769,303.157 325.509,300.200 327.732 C 298.880 328.725,297.509 329.797,297.153 330.115 C 295.296 331.776,281.712 340.800,281.070 340.800 C 280.956 340.800,279.149 341.790,277.053 343.000 C 274.957 344.210,273.138 345.200,273.010 345.200 C 272.882 345.200,270.757 346.179,268.288 347.375 C 265.820 348.571,263.080 349.812,262.200 350.133 C 261.320 350.454,259.610 351.109,258.400 351.589 C 257.190 352.069,254.580 352.983,252.600 353.620 C 250.620 354.257,248.460 354.978,247.800 355.223 C 246.081 355.862,241.402 357.155,238.600 357.766 C 237.280 358.054,235.480 358.480,234.600 358.713 C 233.720 358.946,232.010 359.263,230.800 359.418 C 229.590 359.573,228.182 359.858,227.670 360.051 C 227.159 360.245,224.189 360.692,221.070 361.045 C 217.952 361.399,214.230 361.839,212.800 362.023 C 209.238 362.483,190.490 362.453,186.800 361.982 C 185.150 361.771,181.439 361.334,178.553 361.010 C 175.668 360.686,172.878 360.259,172.353 360.060 C 171.829 359.862,170.410 359.573,169.200 359.418 C 167.990 359.263,166.280 358.946,165.400 358.713 C 164.520 358.480,162.720 358.054,161.400 357.766 C 158.737 357.185,154.050 355.900,152.200 355.243 C 151.540 355.009,149.470 354.331,147.600 353.737 C 145.730 353.143,143.845 352.419,143.411 352.128 C 142.977 351.838,142.277 351.600,141.855 351.600 C 141.433 351.600,140.258 351.221,139.244 350.757 C 138.230 350.293,136.860 349.684,136.200 349.402 C 134.969 348.878,132.432 347.718,128.200 345.746 C 126.880 345.131,124.360 343.808,122.600 342.807 C 120.840 341.806,118.950 340.762,118.400 340.487 C 117.517 340.045,114.067 337.935,112.400 336.817 C 112.070 336.596,111.125 335.961,110.300 335.407 C 109.475 334.853,108.125 333.947,107.300 333.393 C 106.475 332.839,105.467 332.164,105.061 331.893 C 99.093 327.915,86.127 316.282,79.964 309.376 C 75.957 304.887,75.408 304.233,72.929 301.012 C 71.570 299.245,70.220 297.524,69.929 297.187 C 69.638 296.849,68.864 295.769,68.208 294.787 C 67.553 293.804,66.457 292.280,65.772 291.400 C 65.087 290.520,63.913 288.746,63.163 287.457 C 62.413 286.168,61.490 284.638,61.111 284.057 C 59.244 281.191,54.974 273.022,52.300 267.200 C 51.846 266.210,51.335 265.107,51.165 264.750 C 50.994 264.392,50.282 262.592,49.581 260.750 C 48.881 258.907,48.072 256.860,47.785 256.200 C 46.968 254.324,44.093 245.174,43.774 243.437 C 43.616 242.578,43.244 241.408,42.946 240.837 C 42.648 240.267,42.404 239.343,42.402 238.784 C 42.401 238.225,42.117 236.695,41.772 235.384 C 41.193 233.191,40.609 230.033,39.626 223.800 C 36.689 205.174,37.450 183.113,41.640 165.387 C 42.058 163.620,42.400 161.766,42.400 161.267 C 42.400 160.768,42.655 159.868,42.966 159.266 C 43.277 158.665,43.649 157.459,43.792 156.586 C 43.936 155.714,44.296 154.370,44.593 153.600 C 44.890 152.830,45.609 150.580,46.191 148.600 C 46.773 146.620,47.509 144.522,47.825 143.938 C 48.141 143.354,48.400 142.627,48.400 142.323 C 48.400 142.018,48.760 141.063,49.200 140.200 C 49.640 139.337,50.000 138.464,50.000 138.259 C 50.000 138.055,50.341 137.148,50.758 136.244 C 51.175 135.340,52.056 133.430,52.714 132.000 C 56.583 123.603,59.407 118.442,63.452 112.378 C 63.973 111.597,64.400 110.826,64.400 110.667 C 64.400 110.507,65.075 109.489,65.900 108.404 C 66.725 107.319,68.120 105.429,69.000 104.205 C 75.871 94.643,84.620 85.107,93.587 77.403 C 97.239 74.266,99.600 72.437,108.399 65.930 C 109.388 65.199,110.648 64.376,111.199 64.102 C 111.749 63.828,113.280 62.884,114.600 62.002 C 115.920 61.121,117.720 60.040,118.600 59.600 C 119.480 59.160,121.460 58.074,123.000 57.187 C 124.540 56.299,126.610 55.207,127.600 54.760 C 128.590 54.313,130.570 53.400,132.000 52.732 C 137.316 50.247,137.900 50.000,138.464 50.000 C 138.781 50.000,139.216 49.824,139.431 49.609 C 139.855 49.185,142.450 48.242,148.400 46.348 C 150.490 45.683,152.791 44.882,153.514 44.569 C 154.236 44.256,155.180 44.000,155.612 44.000 C 156.044 44.000,157.433 43.663,158.698 43.252 C 160.731 42.592,163.838 41.909,171.600 40.416 C 187.943 37.272,207.282 36.993,224.000 39.659 C 225.430 39.887,227.680 40.242,229.000 40.448 C 232.349 40.971,238.763 42.350,240.200 42.855 C 240.860 43.087,242.390 43.507,243.600 43.788 C 246.616 44.489,254.285 47.004,258.409 48.644 C 260.284 49.390,261.973 50.000,262.164 50.000 C 262.354 50.000,263.970 50.700,265.755 51.554 C 271.370 54.244,277.376 57.208,278.000 57.598 C 278.330 57.804,279.651 58.563,280.935 59.286 C 282.220 60.009,283.750 60.912,284.335 61.294 C 284.921 61.676,285.810 62.168,286.311 62.388 C 286.811 62.608,287.441 62.971,287.711 63.195 C 288.652 63.977,292.210 66.394,293.380 67.046 C 294.030 67.408,294.773 67.905,295.032 68.152 C 295.592 68.685,296.728 69.579,301.000 72.851 C 302.760 74.199,304.380 75.505,304.600 75.754 C 304.820 76.002,305.630 76.721,306.400 77.352 C 307.170 77.983,309.577 80.142,311.748 82.149 C 318.572 88.458,321.314 89.237,326.666 86.385 C 328.764 85.266,328.858 85.164,327.600 85.376 C 326.830 85.505,325.712 85.968,325.116 86.405 C 322.110 88.610,318.228 87.356,313.200 82.557 C 311.550 80.982,309.575 79.178,308.811 78.547 C 308.046 77.916,307.125 77.130,306.762 76.800 C 306.399 76.470,305.324 75.570,304.374 74.800 C 303.423 74.030,302.363 73.130,302.020 72.800 C 300.097 70.954,287.939 62.400,287.237 62.400 C 287.065 62.400,286.598 62.040,286.200 61.600 C 285.802 61.160,285.258 60.800,284.992 60.800 C 284.726 60.800,284.071 60.456,283.536 60.036 C 283.002 59.616,281.493 58.709,280.182 58.022 C 277.716 56.729,276.891 56.283,275.700 55.597 C 275.315 55.375,274.550 54.990,274.000 54.740 C 273.450 54.491,271.607 53.592,269.904 52.743 C 268.201 51.894,266.558 51.200,266.253 51.200 C 265.948 51.200,265.486 50.944,265.226 50.631 C 264.966 50.318,264.055 49.944,263.200 49.800 C 262.345 49.656,261.434 49.282,261.174 48.969 C 260.914 48.656,260.402 48.400,260.036 48.400 C 259.669 48.400,258.666 48.042,257.807 47.604 C 256.948 47.166,255.622 46.690,254.860 46.547 C 254.098 46.404,253.008 46.044,252.437 45.746 C 251.867 45.448,251.040 45.200,250.600 45.194 C 250.160 45.187,249.080 44.856,248.200 44.457 C 247.320 44.058,245.859 43.614,244.953 43.470 C 244.047 43.325,242.787 42.937,242.153 42.606 C 241.519 42.276,240.528 42.004,239.952 42.002 C 239.376 42.001,237.777 41.640,236.400 41.200 C 235.023 40.760,233.244 40.396,232.448 40.391 C 231.652 40.385,229.662 40.025,228.027 39.591 C 226.392 39.156,224.052 38.797,222.827 38.793 C 221.602 38.789,219.340 38.507,217.800 38.167 C 214.616 37.463,193.465 37.047,186.784 37.558 " stroke="none" fill="#a4acac" fill-rule="evenodd"></path></g></svg>