<svg xmlns="http://www.w3.org/2000/svg" xmlns:xlink="http://www.w3.org/1999/xlink" version="1.1" enable-background="new 0 0 100 100" xml:space="preserve" width="82" height="84" style=""><rect id="backgroundrect" width="100%" height="100%" x="0" y="0" fill="none" stroke="none" class="" style=""/><g class="currentLayer" style=""><title>Layer 1</title><g id="svg_1" class=""><path fill="none" d="M21.897716705322267,30.917509666442868 c0.22600000000000003,0.22700000000000004 0.461,0.36800000000000005 0.6900000000000002,0.402 c0.07700000000000001,0.012000000000000002 0.15200000000000002,0.011000000000000003 0.22700000000000004,-0.0020000000000000005 c0.14400000000000002,-0.024000000000000004 0.275,-0.09600000000000003 0.3940000000000001,-0.20600000000000002 c1.46,4.536 4.253,9.056 7.779,11.751 c2.031,1.5590000000000002 4.304,2.51 6.704,2.51 c2.454,0 4.775,-0.996 6.84,-2.609 c3.463,-2.7110000000000003 6.205,-7.173 7.646,-11.651 c0.11900000000000002,0.11000000000000001 0.24800000000000003,0.18100000000000002 0.3940000000000001,0.20500000000000002 h0.0010000000000000002 c0.258,0.04500000000000001 0.526,-0.05900000000000001 0.791,-0.281 c0.49400000000000005,-0.41900000000000004 0.9670000000000001,-1.2570000000000001 1.292,-2.3200000000000003 c0.11000000000000001,-0.35400000000000004 0.203,-0.7330000000000001 0.271,-1.129 c0.04600000000000001,-0.259 0.08200000000000002,-0.513 0.10500000000000001,-0.7610000000000001 c0.0010000000000000002,-0.008000000000000002 0.0010000000000000002,-0.016000000000000004 0.0020000000000000005,-0.024000000000000004 c-0.0010000000000000002,0.008000000000000002 -0.0010000000000000002,0.015000000000000003 -0.0020000000000000005,0.023000000000000007 c0.0010000000000000002,-0.010000000000000002 0.0010000000000000002,-0.019000000000000003 0.0020000000000000005,-0.029000000000000005 c0,0.0020000000000000005 0,0.004000000000000001 0,0.006000000000000002 c0,-0.011000000000000003 0.0010000000000000002,-0.022000000000000006 0.0020000000000000005,-0.03400000000000001 c0.04300000000000001,-0.47400000000000003 0.05200000000000001,-0.926 0.023000000000000007,-1.336 c-0.008000000000000002,-0.11600000000000002 -0.029000000000000005,-0.21400000000000002 -0.04300000000000001,-0.32200000000000006 c-0.08700000000000002,-0.6860000000000002 -0.275,-1.231 -0.555,-1.541 c-0.08600000000000002,-0.09500000000000003 -0.17600000000000002,-0.18100000000000002 -0.277,-0.22900000000000004 c-0.05700000000000001,-0.026000000000000006 -0.11500000000000002,-0.04400000000000001 -0.17800000000000002,-0.05600000000000001 c-0.24000000000000002,-0.04200000000000001 -0.49000000000000005,0.04700000000000001 -0.7370000000000001,0.24000000000000002 l-0.013000000000000003,0.016000000000000004 c0,-0.0010000000000000002 -0.0020000000000000005,-0.0020000000000000005 -0.0020000000000000005,-0.004000000000000001 c-0.004000000000000001,0.003000000000000001 -0.006000000000000002,0.004000000000000001 -0.008000000000000002,0.006000000000000002 c-0.0020000000000000005,-0.014000000000000002 -0.0020000000000000005,-0.029000000000000005 -0.004000000000000001,-0.04400000000000001 c-0.934,-3.5460000000000003 -2.111,-5.716 -3.324,-7.009 c-0.234,-0.127 -0.47900000000000004,-0.24100000000000002 -0.7500000000000001,-0.31900000000000006 c-0.031000000000000007,0.524 0.5630000000000001,1.318 0.6270000000000001,2.092 c-0.21100000000000002,-0.09900000000000003 -0.42000000000000004,-0.20400000000000001 -0.6310000000000001,-0.31300000000000006 c-1.471,-0.7600000000000001 -2.959,-1.7040000000000002 -5.018,-1.78 c-0.273,-0.010000000000000002 -0.561,-0.014000000000000002 -0.8550000000000001,-0.014000000000000002 c-0.29300000000000004,0.0010000000000000002 -0.5940000000000001,0.005000000000000001 -0.8980000000000001,0.012000000000000002 c-1.7730000000000001,0.6330000000000001 -3.6020000000000003,0.8450000000000001 -5.279,0.8360000000000001 c-0.461,-0.0020000000000000005 -0.911,-0.021000000000000005 -1.344,-0.05300000000000001 c-3.035,-0.22000000000000003 -5.293,-1.05 -5.293,-1.05 c-0.44500000000000006,-0.04100000000000001 -0.8660000000000001,-0.05100000000000001 -1.2650000000000001,-0.03300000000000001 c-5.9879999999999995,0.27 -6.985,6.819 -7.068,7.612 c-0.0010000000000000002,0.020000000000000004 -0.003000000000000001,0.04000000000000001 -0.003000000000000001,0.06000000000000001 h-0.0010000000000000002 c-0.254,-0.20400000000000001 -0.512,-0.29900000000000004 -0.7580000000000001,-0.255 c-0.0010000000000000002,0 -0.0010000000000000002,0 -0.0010000000000000002,0 c-0.10900000000000001,0.019000000000000003 -0.21000000000000002,0.06400000000000002 -0.30300000000000005,0.131 c-0.22200000000000003,0.15800000000000003 -0.3950000000000001,0.457 -0.524,0.8390000000000001 c-0.07100000000000001,0.996 -0.11500000000000002,2.002 -0.131,3.042 c0.014000000000000002,0.09700000000000003 0.023000000000000007,0.19100000000000003 0.04100000000000001,0.28900000000000003 C20.727716705322266,29.06950966644287 21.285716705322265,30.30750966644287 21.897716705322267,30.917509666442868 zM53.36271670532227,31.03550966644287 c-0.264,0.22200000000000003 -0.532,0.32600000000000007 -0.79,0.281 C52.83071670532226,31.360509666442873 53.09771670532227,31.25750966644287 53.36271670532227,31.03550966644287 zM44.53071670532226,42.76150966644287 c3.462,-2.71 6.206,-7.173 7.646,-11.651 c0,0.0010000000000000002 0,0.0010000000000000002 0.0020000000000000005,0.0010000000000000002 C50.736716705322266,35.58950966644287 47.99471670532227,40.05150966644287 44.53071670532226,42.76150966644287 c-2.063,1.614 -4.385,2.6100000000000003 -6.839,2.6100000000000003 C40.14471670532227,45.37150966644287 42.46671670532226,44.37550966644287 44.53071670532226,42.76150966644287 zM23.207716705322262,31.110509666442873 c-0.11900000000000002,0.11000000000000001 -0.24900000000000003,0.18200000000000002 -0.3950000000000001,0.20600000000000002 C22.957716705322262,31.292509666442868 23.088716705322263,31.220509666442872 23.207716705322262,31.110509666442873 z" id="svg_2"/><polygon fill="none" points="61.98171615600586,76.00051021575928 65.73271560668945,74.95851039886475 63.02371597290039,72.24951076507568 " id="svg_3"/><path fill="none" d="M72.18071670532227,64.23950966644287 c-0.31700000000000006,-0.31600000000000006 -0.8310000000000001,-0.31600000000000006 -1.147,0 l-7.482,7.482 l2.709,2.709 l7.482,-7.482 c0.31600000000000006,-0.31600000000000006 0.31600000000000006,-0.8310000000000001 0,-1.1480000000000001 L72.18071670532227,64.23950966644287 z" id="svg_4"/><path d="M67.98071670532227,54.00150966644287 c0.6820000000000002,0 1.348,0.05700000000000001 2.005,0.14100000000000001 c-3.604,-4.021 -7.233,-4.33 -8.327,-4.586 c-3.373,-0.789 -7.457,-0.453 -9.635,-1.133 c-0.38200000000000006,3.189 -6.521,5.727 -14.042,5.727 c-7.52,0 -13.661,-2.537 -14.043,-5.727 c-2.178,0.6820000000000002 -6.2620000000000005,0.3440000000000001 -9.635,1.133 c-1.7120000000000002,0.4 -9.672,0.911 -13.978,15.729 c-0.5830000000000001,2.014 -0.37800000000000006,4.2 0.5720000000000001,5.993 c3.528,6.672000000000001 22.084,8.727 37.084,8.724 c5.438,0.0010000000000000002 11.345,-0.271 16.832,-0.933 C53.03171670532227,76.48950966644287 51.980716705322266,73.36750966644287 51.980716705322266,70.00150966644287 C51.980716705322266,61.17950966644287 59.15871670532226,54.00150966644287 67.98071670532227,54.00150966644287 z" id="svg_5"/><path d="M55.03171670532227,26.82550966644287 c0.0010000000000000002,-0.008000000000000002 0.0010000000000000002,-0.015000000000000003 0.0020000000000000005,-0.023000000000000007 c0,-0.0020000000000000005 0,-0.004000000000000001 0,-0.006000000000000002 C55.03271670532227,26.80750966644287 55.03271670532227,26.81550966644287 55.03171670532227,26.82550966644287 z" id="svg_6"/><path d="M20.254716705322267,32.649509666442874 c1.5870000000000002,4.27 4.099,8.417 7.206,11.45 c1.758,1.719 3.706,3.08 5.784,3.902 c1.428,0.5660000000000001 2.919,0.8810000000000001 4.451,0.8810000000000001 c1.53,0 3.021,-0.31300000000000006 4.45,-0.8810000000000001 c2.149,-0.8520000000000001 4.163,-2.277 5.968,-4.082 c3.03,-3.027 5.48,-7.109 7.037,-11.306000000000001 c1.196,-0.35300000000000004 2.451,-2.5940000000000003 2.962,-5.457 c0.556,-3.107 0.030000000000000006,-5.817 -1.1680000000000001,-6.269 c0.04300000000000001,-0.7580000000000001 0.07100000000000001,-1.525 0.06900000000000002,-2.313 c-0.028000000000000004,-11.262 -6.631,-17.81 -17.045,-18.508 c-9.077,-0.6080000000000001 -15.917,2.997 -19.03,8.994 c-1.048,2.017 -1.6460000000000001,4.54 -1.8760000000000001,7.281 c-0.35000000000000003,1.427 -0.555,2.911 -0.555,4.445 h0.03400000000000001 c-0.0010000000000000002,0.012000000000000002 -0.0020000000000000005,0.023000000000000007 -0.0020000000000000005,0.036000000000000004 c-0.022000000000000006,0.0020000000000000005 -0.04500000000000001,0.003000000000000001 -0.06600000000000002,0.008000000000000002 c-1.328,0.231 -1.933,3.064 -1.35,6.327 C17.655716705322266,30.156509666442872 19.007716705322267,32.47550966644287 20.254716705322267,32.649509666442874 zM20.55271670532227,24.25450966644287 c0.129,-0.38200000000000006 0.30200000000000005,-0.6810000000000002 0.524,-0.8390000000000001 c0.09300000000000003,-0.06700000000000002 0.19400000000000003,-0.11200000000000002 0.30300000000000005,-0.131 c0,0 0,0 0.0010000000000000002,0 c0.24600000000000002,-0.04400000000000001 0.504,0.05100000000000001 0.7580000000000001,0.255 h0.0010000000000000002 c0,-0.020000000000000004 0.0020000000000000005,-0.04000000000000001 0.003000000000000001,-0.06000000000000001 c0.08300000000000002,-0.793 1.08,-7.3420000000000005 7.068,-7.612 c0.3990000000000001,-0.018000000000000002 0.8200000000000001,-0.008000000000000002 1.2650000000000001,0.03300000000000001 c0,0 2.258,0.8300000000000001 5.293,1.05 c0.43400000000000005,0.031000000000000007 0.8830000000000001,0.05000000000000001 1.344,0.05300000000000001 c1.6780000000000002,0.009000000000000003 3.5060000000000002,-0.203 5.279,-0.8360000000000001 c0.30500000000000005,-0.007000000000000002 0.6050000000000001,-0.011000000000000003 0.8980000000000001,-0.012000000000000002 c0.29500000000000004,0 0.5820000000000001,0.004000000000000001 0.8550000000000001,0.014000000000000002 c2.059,0.07600000000000001 3.547,1.02 5.018,1.78 c0.21100000000000002,0.10900000000000001 0.42000000000000004,0.21400000000000002 0.6310000000000001,0.31300000000000006 c-0.06300000000000001,-0.774 -0.6580000000000001,-1.568 -0.6270000000000001,-2.092 c0.271,0.07800000000000001 0.516,0.19200000000000003 0.7500000000000001,0.31900000000000006 c1.213,1.2930000000000001 2.391,3.463 3.324,7.009 c0.0020000000000000005,0.015000000000000003 0.0020000000000000005,0.030000000000000006 0.004000000000000001,0.04400000000000001 c0.0020000000000000005,-0.0020000000000000005 0.004000000000000001,-0.003000000000000001 0.008000000000000002,-0.006000000000000002 c0,0.0020000000000000005 0.0020000000000000005,0.003000000000000001 0.0020000000000000005,0.004000000000000001 l0.013000000000000003,-0.016000000000000004 c0.24700000000000003,-0.19300000000000003 0.49700000000000005,-0.28200000000000003 0.7370000000000001,-0.24000000000000002 c0.06300000000000001,0.012000000000000002 0.12100000000000001,0.030000000000000006 0.17800000000000002,0.05600000000000001 c0.10200000000000001,0.04800000000000001 0.19100000000000003,0.134 0.277,0.22900000000000004 c0.279,0.31000000000000005 0.468,0.8550000000000001 0.555,1.541 c0.014000000000000002,0.10800000000000001 0.035,0.20700000000000002 0.04300000000000001,0.32200000000000006 c0.028000000000000004,0.41000000000000003 0.020000000000000004,0.8620000000000001 -0.023000000000000007,1.336 c-0.0010000000000000002,0.012000000000000002 -0.0020000000000000005,0.023000000000000007 -0.0020000000000000005,0.03400000000000001 c-0.0010000000000000002,0.008000000000000002 -0.0010000000000000002,0.016000000000000004 -0.0020000000000000005,0.024000000000000004 c-0.023000000000000007,0.24800000000000003 -0.06000000000000001,0.502 -0.10500000000000001,0.7610000000000001 c-0.06700000000000002,0.3960000000000001 -0.16000000000000003,0.775 -0.271,1.129 c-0.32500000000000007,1.063 -0.798,1.901 -1.292,2.3200000000000003 c-0.265,0.22200000000000003 -0.533,0.32600000000000007 -0.791,0.281 h-0.0010000000000000002 c-0.14600000000000002,-0.024000000000000004 -0.274,-0.09500000000000003 -0.3940000000000001,-0.20500000000000002 c-1.441,4.478 -4.184,8.94 -7.646,11.651 c-2.064,1.613 -4.386,2.609 -6.84,2.609 c-2.4,0 -4.673,-0.9510000000000001 -6.704,-2.51 c-3.526,-2.6950000000000003 -6.319,-7.215 -7.779,-11.751 c-0.11900000000000002,0.11000000000000001 -0.25,0.18200000000000002 -0.3940000000000001,0.20600000000000002 c-0.07500000000000001,0.013000000000000003 -0.15000000000000002,0.014000000000000002 -0.22700000000000004,0.0020000000000000005 c-0.22900000000000004,-0.03400000000000001 -0.464,-0.17500000000000002 -0.6900000000000002,-0.402 c-0.6120000000000001,-0.6100000000000001 -1.17,-1.848 -1.435,-3.332 c-0.018000000000000002,-0.09800000000000003 -0.027000000000000007,-0.19200000000000003 -0.04100000000000001,-0.28900000000000003 C20.437716705322266,26.256509666442874 20.481716705322263,25.250509666442873 20.55271670532227,24.25450966644287 z" id="svg_7"/><path d="M37.691716705322264,45.37150966644287 c2.454,0 4.775,-0.996 6.839,-2.6100000000000003 C42.46671670532226,44.37550966644287 40.14471670532227,45.37150966644287 37.691716705322264,45.37150966644287 z" id="svg_8"/><path d="M52.17771670532227,31.11150966644287 c-0.0020000000000000005,0 -0.0020000000000000005,0 -0.0020000000000000005,-0.0010000000000000002 c-1.439,4.478 -4.184,8.941 -7.646,11.651 C47.99471670532227,40.05150966644287 50.736716705322266,35.58950966644287 52.17771670532227,31.11150966644287 z" id="svg_9"/><path d="M52.572716705322264,31.31650966644287 c0.258,0.04500000000000001 0.526,-0.05900000000000001 0.79,-0.281 C53.09771670532227,31.25750966644287 52.83071670532226,31.360509666442873 52.572716705322264,31.31650966644287 z" id="svg_10"/><path d="M22.812716705322266,31.31650966644287 c0.14600000000000002,-0.024000000000000004 0.276,-0.09600000000000003 0.3950000000000001,-0.20600000000000002 C23.088716705322263,31.220509666442872 22.957716705322262,31.292509666442868 22.812716705322266,31.31650966644287 z" id="svg_11"/><path d="M67.98071670532227,56.00150966644287 c-7.721,0 -14,6.279 -14,14 s6.279,14 14,14 c7.719,0 14,-6.279 14,-14 S75.69971670532226,56.00150966644287 67.98071670532227,56.00150966644287 zM61.98171670532227,76.00050966644287 l1.042,-3.7510000000000003 l2.709,2.709 L61.98171670532227,76.00050966644287 zM73.74271670532227,66.94850966644287 l-7.482,7.482 l-2.709,-2.709 l7.482,-7.482 c0.31600000000000006,-0.31600000000000006 0.8300000000000001,-0.31600000000000006 1.147,0 l1.562,1.561 C74.05871670532227,66.11750966644287 74.05871670532227,66.63250966644287 73.74271670532227,66.94850966644287 z" id="svg_12"/></g></g></svg>