<svg id="svg" version="1.1" xmlns="http://www.w3.org/2000/svg" xmlns:xlink="http://www.w3.org/1999/xlink" width="400" height="400" viewBox="0, 0, 400,400"><g id="svgg"><path id="path0" d="M173.400 84.955 C 171.860 85.461,169.250 86.288,167.600 86.793 C 165.950 87.298,163.610 88.024,162.400 88.406 C 160.213 89.097,154.571 90.841,149.600 92.363 C 148.170 92.800,143.760 94.170,139.800 95.407 C 135.840 96.644,130.800 98.206,128.600 98.878 C 126.400 99.549,123.610 100.419,122.400 100.810 C 121.190 101.201,118.310 102.102,116.000 102.813 C 113.690 103.524,110.270 104.598,108.400 105.200 C 104.954 106.309,99.299 108.068,94.200 109.617 C 86.437 111.975,84.028 112.883,83.833 113.527 C 83.381 115.015,83.696 286.380,84.152 286.924 C 84.506 287.347,93.569 290.319,103.400 293.235 C 104.060 293.431,106.220 294.107,108.200 294.737 C 110.180 295.367,113.690 296.474,116.000 297.197 C 118.310 297.920,121.190 298.824,122.400 299.206 C 123.610 299.588,126.490 300.481,128.800 301.190 C 131.110 301.899,133.990 302.805,135.200 303.204 C 136.410 303.603,139.560 304.589,142.200 305.395 C 153.631 308.886,155.114 309.340,157.200 309.997 C 158.410 310.377,160.750 311.095,162.400 311.592 C 164.050 312.089,165.760 312.642,166.200 312.821 C 166.640 313.000,167.630 313.335,168.400 313.565 C 169.170 313.794,170.880 314.330,172.200 314.754 C 179.287 317.034,181.792 316.614,184.241 312.735 L 185.200 311.216 185.200 200.143 L 185.200 89.070 184.162 87.298 C 182.248 84.033,178.614 83.242,173.400 84.955 M261.719 143.325 C 258.807 145.314,258.656 146.039,258.416 159.200 L 258.200 171.000 232.000 171.200 C 202.670 171.424,204.058 171.280,201.720 174.336 L 200.600 175.800 200.470 188.083 L 200.339 200.367 203.609 200.483 L 206.878 200.600 203.643 203.800 L 200.409 207.000 200.410 214.600 C 200.413 228.907,200.455 228.935,221.860 228.730 L 235.520 228.600 249.631 214.500 L 263.742 200.400 270.569 200.400 L 277.396 200.400 263.482 214.318 C 255.830 221.972,249.696 228.362,249.851 228.518 C 250.006 228.673,251.867 228.800,253.987 228.800 C 259.203 228.800,258.800 227.738,258.800 241.485 C 258.800 250.134,258.931 253.440,259.300 254.083 C 259.939 255.198,261.202 256.461,262.317 257.100 C 263.356 257.695,268.400 257.778,268.400 257.200 C 268.400 256.980,268.670 256.800,269.000 256.800 C 269.330 256.800,269.600 256.620,269.600 256.400 C 269.600 256.180,269.831 256.000,270.114 256.000 C 270.396 256.000,270.924 255.505,271.287 254.900 C 271.649 254.295,272.813 252.872,273.873 251.738 C 274.933 250.604,276.070 249.344,276.401 248.938 C 280.026 244.486,282.422 241.674,283.812 240.238 C 284.258 239.777,284.888 239.025,285.212 238.566 C 285.965 237.498,288.960 234.008,290.922 231.914 C 291.759 231.020,292.927 229.639,293.518 228.844 C 294.108 228.050,294.875 227.130,295.223 226.800 C 295.570 226.470,296.723 225.120,297.784 223.800 C 298.845 222.480,300.452 220.560,301.356 219.533 C 303.910 216.632,306.521 213.585,307.400 212.479 C 307.840 211.925,308.922 210.736,309.805 209.836 C 310.688 208.936,311.850 207.570,312.386 206.800 C 312.923 206.030,313.485 205.310,313.637 205.200 C 314.522 204.557,315.797 201.213,315.773 199.597 C 315.734 197.038,315.379 196.532,305.808 185.400 C 304.106 183.420,302.327 181.349,301.856 180.797 C 300.203 178.861,295.798 173.798,295.595 173.600 C 295.481 173.490,294.584 172.410,293.600 171.200 C 292.616 169.990,291.712 168.910,291.591 168.800 C 291.470 168.690,289.402 166.260,286.995 163.400 C 284.588 160.540,282.524 158.110,282.409 158.000 C 282.086 157.690,279.593 154.802,277.600 152.425 C 276.610 151.245,275.305 149.722,274.701 149.040 C 274.096 148.358,272.926 146.968,272.101 145.951 C 269.113 142.272,264.843 141.191,261.719 143.325 M162.424 172.067 C 170.024 175.550,173.394 185.343,169.374 192.265 C 161.568 205.708,141.836 200.652,141.937 185.234 C 142.005 174.881,153.060 167.776,162.424 172.067 " stroke="none" fill="#f0f1f7" fill-rule="evenodd"></path><path id="path1" d="M180.406 0.274 C 177.879 0.359,175.638 0.602,175.426 0.814 C 175.214 1.026,173.827 1.200,172.344 1.200 C 170.861 1.200,169.536 1.380,169.400 1.600 C 169.264 1.820,168.184 2.000,167.000 2.000 C 165.816 2.000,164.736 2.180,164.600 2.400 C 164.464 2.620,163.564 2.800,162.600 2.800 C 161.636 2.800,160.736 2.980,160.600 3.200 C 160.464 3.420,159.553 3.600,158.576 3.600 C 157.599 3.600,156.800 3.780,156.800 4.000 C 156.800 4.220,156.080 4.400,155.200 4.400 C 154.320 4.400,153.600 4.580,153.600 4.800 C 153.600 5.020,152.790 5.200,151.800 5.200 C 150.810 5.200,150.000 5.380,150.000 5.600 C 150.000 5.820,149.370 6.000,148.600 6.000 C 147.830 6.000,147.200 6.180,147.200 6.400 C 147.200 6.620,146.570 6.800,145.800 6.800 C 145.030 6.800,144.400 6.980,144.400 7.200 C 144.400 7.420,143.871 7.600,143.224 7.600 C 142.577 7.600,141.936 7.780,141.800 8.000 C 141.664 8.220,141.034 8.400,140.400 8.400 C 139.766 8.400,139.136 8.580,139.000 8.800 C 138.864 9.020,138.313 9.200,137.776 9.200 C 137.239 9.200,136.800 9.356,136.800 9.546 C 136.800 9.736,136.035 9.997,135.100 10.126 C 134.165 10.254,132.070 10.909,130.445 11.580 C 128.820 12.251,127.245 12.800,126.945 12.800 C 126.645 12.800,126.400 12.980,126.400 13.200 C 126.400 13.420,125.961 13.600,125.424 13.600 C 124.887 13.600,124.336 13.780,124.200 14.000 C 124.064 14.220,123.603 14.400,123.176 14.400 C 122.749 14.400,122.400 14.580,122.400 14.800 C 122.400 15.020,122.045 15.200,121.612 15.200 C 121.179 15.200,120.183 15.560,119.400 16.000 C 118.617 16.440,117.711 16.800,117.388 16.800 C 117.065 16.800,116.800 16.980,116.800 17.200 C 116.800 17.420,116.440 17.600,116.000 17.600 C 115.560 17.600,115.200 17.780,115.200 18.000 C 115.200 18.220,114.955 18.400,114.655 18.400 C 114.142 18.400,109.902 20.492,106.800 22.275 C 106.030 22.718,103.240 24.482,100.600 26.196 C 97.960 27.910,94.100 30.412,92.022 31.756 C 67.858 47.387,47.387 67.858,31.756 92.022 C 30.412 94.100,27.910 97.960,26.196 100.600 C 24.482 103.240,22.718 106.030,22.275 106.800 C 20.492 109.902,18.400 114.142,18.400 114.655 C 18.400 114.955,18.220 115.200,18.000 115.200 C 17.780 115.200,17.600 115.560,17.600 116.000 C 17.600 116.440,17.420 116.800,17.200 116.800 C 16.980 116.800,16.800 117.065,16.800 117.388 C 16.800 117.711,16.440 118.617,16.000 119.400 C 15.560 120.183,15.200 121.179,15.200 121.612 C 15.200 122.045,15.020 122.400,14.800 122.400 C 14.580 122.400,14.400 122.749,14.400 123.176 C 14.400 123.603,14.220 124.064,14.000 124.200 C 13.780 124.336,13.600 124.887,13.600 125.424 C 13.600 125.961,13.420 126.400,13.200 126.400 C 12.980 126.400,12.800 126.645,12.800 126.945 C 12.800 127.245,12.251 128.820,11.580 130.445 C 10.909 132.070,10.254 134.165,10.126 135.100 C 9.997 136.035,9.736 136.800,9.546 136.800 C 9.356 136.800,9.200 137.239,9.200 137.776 C 9.200 138.313,9.020 138.864,8.800 139.000 C 8.580 139.136,8.400 139.766,8.400 140.400 C 8.400 141.034,8.220 141.664,8.000 141.800 C 7.780 141.936,7.600 142.577,7.600 143.224 C 7.600 143.871,7.420 144.400,7.200 144.400 C 6.980 144.400,6.800 145.030,6.800 145.800 C 6.800 146.570,6.620 147.200,6.400 147.200 C 6.180 147.200,6.000 147.830,6.000 148.600 C 6.000 149.370,5.820 150.000,5.600 150.000 C 5.380 150.000,5.200 150.810,5.200 151.800 C 5.200 152.790,5.020 153.600,4.800 153.600 C 4.580 153.600,4.400 154.320,4.400 155.200 C 4.400 156.080,4.220 156.800,4.000 156.800 C 3.780 156.800,3.600 157.599,3.600 158.576 C 3.600 159.553,3.420 160.464,3.200 160.600 C 2.980 160.736,2.800 161.636,2.800 162.600 C 2.800 163.564,2.620 164.464,2.400 164.600 C 2.180 164.736,2.000 165.816,2.000 167.000 C 2.000 168.184,1.820 169.264,1.600 169.400 C 1.380 169.536,1.200 170.861,1.200 172.344 C 1.200 173.967,1.001 175.239,0.700 175.540 C -0.008 176.248,-0.031 223.599,0.676 224.451 C 0.938 224.767,1.191 226.324,1.237 227.912 C 1.283 229.501,1.474 230.800,1.661 230.800 C 1.847 230.800,2.000 231.790,2.000 233.000 C 2.000 234.210,2.180 235.200,2.400 235.200 C 2.620 235.200,2.800 236.190,2.800 237.400 C 2.800 238.610,2.980 239.600,3.200 239.600 C 3.420 239.600,3.600 240.410,3.600 241.400 C 3.600 242.390,3.780 243.200,4.000 243.200 C 4.220 243.200,4.400 243.785,4.399 244.500 C 4.398 245.215,4.746 246.520,5.172 247.400 C 6.204 249.535,8.331 257.370,8.456 259.500 C 8.511 260.435,8.701 261.200,8.878 261.200 C 9.055 261.200,9.200 261.562,9.200 262.005 C 9.200 262.448,9.360 263.123,9.557 263.505 C 9.753 263.887,10.216 265.280,10.585 266.600 C 10.955 267.920,11.605 269.763,12.029 270.696 C 12.453 271.628,12.800 272.539,12.800 272.721 C 12.800 272.902,13.160 273.795,13.600 274.706 C 14.040 275.616,14.400 276.640,14.400 276.981 C 14.400 277.321,14.580 277.600,14.800 277.600 C 15.020 277.600,15.200 277.955,15.200 278.388 C 15.200 278.821,15.560 279.817,16.000 280.600 C 16.440 281.383,16.800 282.289,16.800 282.612 C 16.800 282.935,16.980 283.200,17.200 283.200 C 17.420 283.200,17.600 283.560,17.600 284.000 C 17.600 284.440,17.780 284.800,18.000 284.800 C 18.220 284.800,18.400 285.045,18.400 285.345 C 18.400 285.831,19.407 287.888,22.443 293.600 C 22.969 294.590,23.535 295.460,23.700 295.533 C 23.865 295.607,24.000 296.000,24.000 296.406 C 24.000 296.813,24.315 297.247,24.700 297.371 C 25.529 297.636,30.414 305.862,31.185 308.290 C 31.480 309.219,32.054 310.336,32.461 310.773 C 32.867 311.209,33.200 311.709,33.201 311.883 C 33.201 312.057,33.741 312.830,34.400 313.600 C 35.059 314.370,35.599 315.159,35.599 315.353 C 35.600 315.547,35.916 315.997,36.303 316.353 C 36.689 316.709,37.260 317.495,37.570 318.100 C 37.881 318.705,38.285 319.200,38.468 319.200 C 38.650 319.200,38.800 319.481,38.800 319.824 C 38.800 320.167,38.980 320.336,39.200 320.200 C 39.420 320.064,39.600 320.218,39.600 320.542 C 39.600 320.867,40.140 321.642,40.800 322.265 C 41.460 322.888,42.000 323.541,42.000 323.717 C 42.000 323.893,42.450 324.486,43.000 325.036 C 43.550 325.586,44.000 326.171,44.000 326.335 C 44.000 326.499,44.630 327.301,45.399 328.117 C 46.169 328.932,46.690 329.600,46.557 329.600 C 46.424 329.600,46.833 330.095,47.466 330.700 C 48.098 331.305,49.242 332.608,50.008 333.595 C 51.955 336.106,53.960 338.000,54.671 338.000 C 55.003 338.000,56.967 339.685,59.037 341.745 C 62.347 345.039,63.090 346.010,62.700 346.534 C 62.645 346.608,63.860 347.729,65.400 349.024 C 66.940 350.320,68.650 351.841,69.200 352.405 C 70.326 353.559,74.871 357.167,76.046 357.841 C 76.469 358.083,77.350 358.758,78.004 359.341 C 78.658 359.923,79.385 360.400,79.620 360.400 C 79.855 360.400,79.936 360.580,79.800 360.800 C 79.664 361.020,79.833 361.200,80.176 361.200 C 80.519 361.200,80.800 361.368,80.800 361.573 C 80.800 361.778,81.166 362.062,81.613 362.204 C 82.060 362.346,82.862 362.898,83.395 363.431 C 83.928 363.964,84.507 364.400,84.682 364.401 C 84.857 364.401,85.630 364.941,86.400 365.600 C 87.170 366.259,87.943 366.799,88.117 366.799 C 88.291 366.800,88.820 367.160,89.292 367.600 C 89.764 368.040,90.387 368.400,90.675 368.400 C 90.964 368.400,91.200 368.572,91.200 368.782 C 91.200 368.992,91.873 369.290,92.695 369.444 C 93.517 369.598,95.272 370.375,96.595 371.170 C 97.918 371.965,99.693 372.972,100.541 373.408 C 101.388 373.844,102.404 374.605,102.798 375.100 C 103.193 375.595,103.699 376.000,103.924 376.000 C 104.149 376.000,104.393 376.135,104.467 376.300 C 104.540 376.465,105.410 377.031,106.400 377.557 C 112.112 380.593,114.169 381.600,114.655 381.600 C 114.955 381.600,115.200 381.780,115.200 382.000 C 115.200 382.220,115.560 382.400,116.000 382.400 C 116.440 382.400,116.800 382.580,116.800 382.800 C 116.800 383.020,117.036 383.200,117.325 383.200 C 117.614 383.200,118.595 383.560,119.506 384.000 C 120.416 384.440,121.440 384.800,121.781 384.800 C 122.121 384.800,122.400 384.980,122.400 385.200 C 122.400 385.420,122.749 385.600,123.176 385.600 C 123.603 385.600,124.064 385.780,124.200 386.000 C 124.336 386.220,124.887 386.400,125.424 386.400 C 125.961 386.400,126.400 386.580,126.400 386.800 C 126.400 387.020,126.672 387.200,127.004 387.200 C 127.337 387.200,128.372 387.550,129.304 387.977 C 130.237 388.405,131.990 389.048,133.200 389.406 C 134.410 389.765,136.020 390.329,136.778 390.660 C 137.537 390.991,138.977 391.346,139.978 391.449 C 142.340 391.693,153.759 394.808,153.933 395.256 C 154.007 395.445,154.682 395.600,155.433 395.600 C 156.185 395.600,156.800 395.780,156.800 396.000 C 156.800 396.220,157.610 396.400,158.600 396.400 C 159.590 396.400,160.400 396.580,160.400 396.800 C 160.400 397.020,161.289 397.200,162.376 397.200 C 163.463 397.200,164.464 397.380,164.600 397.600 C 164.736 397.820,165.827 398.000,167.024 398.000 C 168.221 398.000,169.200 398.180,169.200 398.400 C 169.200 398.630,170.440 398.800,172.120 398.800 C 173.923 398.800,175.231 398.991,175.540 399.300 C 176.269 400.029,223.731 400.029,224.460 399.300 C 224.761 398.999,226.033 398.800,227.656 398.800 C 229.139 398.800,230.464 398.620,230.600 398.400 C 230.736 398.180,231.816 398.000,233.000 398.000 C 234.184 398.000,235.264 397.820,235.400 397.600 C 235.536 397.380,236.436 397.200,237.400 397.200 C 238.364 397.200,239.264 397.020,239.400 396.800 C 239.536 396.580,240.447 396.400,241.424 396.400 C 242.401 396.400,243.200 396.220,243.200 396.000 C 243.200 395.780,243.909 395.600,244.776 395.600 C 245.643 395.600,246.464 395.420,246.600 395.200 C 246.736 394.980,247.546 394.800,248.400 394.800 C 249.254 394.800,250.064 394.620,250.200 394.400 C 250.336 394.180,250.977 394.000,251.624 394.000 C 252.271 394.000,252.800 393.820,252.800 393.600 C 252.800 393.380,253.419 393.200,254.176 393.200 C 254.933 393.200,255.664 393.020,255.800 392.800 C 255.936 392.580,256.577 392.400,257.224 392.400 C 257.871 392.400,258.400 392.220,258.400 392.000 C 258.400 391.780,258.914 391.600,259.541 391.600 C 260.169 391.600,261.923 391.150,263.440 390.600 C 264.956 390.050,266.512 389.600,266.898 389.600 C 267.284 389.600,267.600 389.420,267.600 389.200 C 267.600 388.980,267.962 388.800,268.405 388.800 C 268.848 388.800,269.523 388.641,269.905 388.447 C 270.287 388.252,271.140 387.871,271.800 387.600 C 272.460 387.329,273.313 386.948,273.695 386.753 C 274.077 386.559,274.752 386.400,275.195 386.400 C 275.638 386.400,276.000 386.220,276.000 386.000 C 276.000 385.780,276.272 385.600,276.605 385.600 C 276.938 385.600,277.523 385.443,277.905 385.250 C 280.880 383.752,282.153 383.200,282.638 383.200 C 282.947 383.200,283.200 383.020,283.200 382.800 C 283.200 382.580,283.560 382.400,284.000 382.400 C 284.440 382.400,284.800 382.220,284.800 382.000 C 284.800 381.780,285.149 381.600,285.576 381.600 C 286.003 381.600,286.464 381.420,286.600 381.200 C 286.736 380.980,287.182 380.800,287.590 380.800 C 287.999 380.800,288.393 380.665,288.467 380.500 C 288.540 380.335,289.365 379.795,290.300 379.300 C 291.235 378.805,292.765 377.995,293.700 377.500 C 294.635 377.005,295.460 376.465,295.533 376.300 C 295.607 376.135,296.012 376.000,296.433 376.000 C 296.855 376.000,297.200 375.820,297.200 375.600 C 297.200 375.380,297.384 375.200,297.610 375.200 C 297.835 375.200,299.050 374.478,300.310 373.594 C 302.553 372.022,310.002 366.991,311.258 366.200 C 311.607 365.980,313.289 364.810,314.994 363.600 C 316.700 362.390,318.486 361.130,318.963 360.800 C 331.296 352.276,352.276 331.296,360.800 318.963 C 361.130 318.486,362.390 316.700,363.600 314.994 C 364.810 313.289,365.980 311.603,366.200 311.249 C 367.167 309.693,373.414 300.483,374.263 299.362 C 374.778 298.681,375.200 297.916,375.200 297.662 C 375.200 297.408,375.380 297.200,375.600 297.200 C 375.820 297.200,376.000 296.855,376.000 296.433 C 376.000 296.012,376.135 295.607,376.300 295.533 C 376.465 295.460,377.005 294.635,377.500 293.700 C 377.995 292.765,378.805 291.235,379.300 290.300 C 379.795 289.365,380.335 288.540,380.500 288.467 C 380.665 288.393,380.800 287.999,380.800 287.590 C 380.800 287.182,380.980 286.736,381.200 286.600 C 381.420 286.464,381.600 286.003,381.600 285.576 C 381.600 285.149,381.780 284.800,382.000 284.800 C 382.220 284.800,382.400 284.440,382.400 284.000 C 382.400 283.560,382.580 283.200,382.800 283.200 C 383.020 283.200,383.200 282.947,383.200 282.638 C 383.200 282.153,383.752 280.880,385.250 277.905 C 385.443 277.523,385.600 276.938,385.600 276.605 C 385.600 276.272,385.780 276.000,386.000 276.000 C 386.220 276.000,386.400 275.638,386.400 275.195 C 386.400 274.752,386.559 274.077,386.753 273.695 C 386.948 273.313,387.329 272.460,387.600 271.800 C 387.871 271.140,388.252 270.287,388.447 269.905 C 388.641 269.523,388.800 268.848,388.800 268.405 C 388.800 267.962,388.980 267.600,389.200 267.600 C 389.420 267.600,389.600 267.284,389.600 266.898 C 389.600 266.512,390.050 264.956,390.600 263.440 C 391.150 261.923,391.600 260.169,391.600 259.541 C 391.600 258.914,391.780 258.400,392.000 258.400 C 392.220 258.400,392.400 257.871,392.400 257.224 C 392.400 256.577,392.580 255.936,392.800 255.800 C 393.020 255.664,393.200 254.933,393.200 254.176 C 393.200 253.419,393.380 252.800,393.600 252.800 C 393.820 252.800,394.000 252.271,394.000 251.624 C 394.000 250.977,394.180 250.336,394.400 250.200 C 394.620 250.064,394.800 249.254,394.800 248.400 C 394.800 247.546,394.980 246.736,395.200 246.600 C 395.420 246.464,395.600 245.643,395.600 244.776 C 395.600 243.909,395.780 243.200,396.000 243.200 C 396.220 243.200,396.400 242.401,396.400 241.424 C 396.400 240.447,396.580 239.536,396.800 239.400 C 397.020 239.264,397.200 238.364,397.200 237.400 C 397.200 236.436,397.380 235.536,397.600 235.400 C 397.820 235.264,398.000 234.184,398.000 233.000 C 398.000 231.816,398.180 230.736,398.400 230.600 C 398.620 230.464,398.800 229.139,398.800 227.656 C 398.800 226.033,398.999 224.761,399.300 224.460 C 399.689 224.071,399.800 218.635,399.800 200.000 C 399.800 181.366,399.689 175.929,399.300 175.540 C 398.991 175.231,398.800 173.923,398.800 172.120 C 398.800 170.440,398.630 169.200,398.400 169.200 C 398.180 169.200,398.000 168.221,398.000 167.024 C 398.000 165.827,397.820 164.736,397.600 164.600 C 397.380 164.464,397.200 163.463,397.200 162.376 C 397.200 161.289,397.020 160.400,396.800 160.400 C 396.580 160.400,396.400 159.590,396.400 158.600 C 396.400 157.610,396.220 156.800,396.000 156.800 C 395.780 156.800,395.600 156.185,395.600 155.433 C 395.600 154.682,395.445 154.007,395.256 153.933 C 394.808 153.759,391.693 142.340,391.449 139.978 C 391.346 138.977,390.991 137.537,390.660 136.778 C 390.329 136.020,389.765 134.410,389.406 133.200 C 389.048 131.990,388.405 130.237,387.977 129.304 C 387.550 128.372,387.200 127.337,387.200 127.004 C 387.200 126.672,387.020 126.400,386.800 126.400 C 386.580 126.400,386.400 125.961,386.400 125.424 C 386.400 124.887,386.220 124.336,386.000 124.200 C 385.780 124.064,385.600 123.603,385.600 123.176 C 385.600 122.749,385.420 122.400,385.200 122.400 C 384.980 122.400,384.800 122.121,384.800 121.781 C 384.800 121.440,384.440 120.416,384.000 119.506 C 383.560 118.595,383.200 117.614,383.200 117.325 C 383.200 117.036,383.020 116.800,382.800 116.800 C 382.580 116.800,382.400 116.440,382.400 116.000 C 382.400 115.560,382.220 115.200,382.000 115.200 C 381.780 115.200,381.600 114.955,381.600 114.655 C 381.600 114.169,380.593 112.112,377.557 106.400 C 377.031 105.410,376.465 104.540,376.300 104.467 C 376.135 104.393,376.000 104.160,376.000 103.947 C 376.000 103.735,375.566 103.165,375.035 102.681 C 374.505 102.196,373.633 100.990,373.097 100.000 C 372.562 99.010,371.573 97.210,370.900 96.000 C 370.227 94.790,369.555 93.215,369.406 92.500 C 369.258 91.785,368.971 91.200,368.768 91.200 C 368.566 91.200,368.400 90.964,368.400 90.675 C 368.400 90.387,368.040 89.764,367.600 89.292 C 367.160 88.820,366.800 88.291,366.799 88.117 C 366.799 87.943,366.259 87.170,365.600 86.400 C 364.941 85.630,364.401 84.857,364.401 84.682 C 364.400 84.507,363.964 83.928,363.431 83.395 C 362.898 82.862,362.346 82.060,362.204 81.613 C 362.062 81.166,361.778 80.800,361.573 80.800 C 361.368 80.800,361.200 80.519,361.200 80.176 C 361.200 79.833,361.020 79.664,360.800 79.800 C 360.580 79.936,360.400 79.855,360.400 79.620 C 360.400 79.385,359.923 78.658,359.341 78.004 C 358.758 77.350,358.083 76.469,357.841 76.046 C 357.132 74.809,353.559 70.372,351.758 68.492 C 350.845 67.539,349.402 65.876,348.549 64.796 C 347.697 63.716,346.660 62.825,346.245 62.816 C 345.346 62.797,338.000 55.540,338.000 54.671 C 338.000 53.960,336.106 51.955,333.595 50.008 C 332.608 49.242,331.305 48.098,330.700 47.466 C 330.095 46.833,329.600 46.424,329.600 46.557 C 329.600 46.690,328.932 46.169,328.117 45.399 C 327.301 44.630,326.499 44.000,326.335 44.000 C 326.171 44.000,325.586 43.550,325.036 43.000 C 324.486 42.450,323.893 42.000,323.717 42.000 C 323.541 42.000,322.888 41.460,322.265 40.800 C 321.642 40.140,320.867 39.600,320.542 39.600 C 320.218 39.600,320.064 39.420,320.200 39.200 C 320.336 38.980,320.167 38.800,319.824 38.800 C 319.481 38.800,319.200 38.650,319.200 38.468 C 319.200 38.285,318.705 37.881,318.100 37.570 C 317.495 37.260,316.709 36.689,316.353 36.303 C 315.997 35.916,315.547 35.600,315.353 35.599 C 315.159 35.599,314.370 35.059,313.600 34.400 C 312.830 33.741,312.057 33.201,311.883 33.201 C 311.709 33.200,311.209 32.867,310.773 32.461 C 310.336 32.054,309.219 31.480,308.290 31.185 C 305.862 30.414,297.636 25.529,297.371 24.700 C 297.247 24.315,296.813 24.000,296.406 24.000 C 296.000 24.000,295.607 23.865,295.533 23.700 C 295.460 23.535,294.590 22.969,293.600 22.443 C 287.888 19.407,285.831 18.400,285.345 18.400 C 285.045 18.400,284.800 18.220,284.800 18.000 C 284.800 17.780,284.440 17.600,284.000 17.600 C 283.560 17.600,283.200 17.420,283.200 17.200 C 283.200 16.980,282.935 16.800,282.612 16.800 C 282.289 16.800,281.383 16.440,280.600 16.000 C 279.817 15.560,278.821 15.200,278.388 15.200 C 277.955 15.200,277.600 15.020,277.600 14.800 C 277.600 14.580,277.321 14.400,276.981 14.400 C 276.640 14.400,275.616 14.040,274.706 13.600 C 273.795 13.160,272.902 12.800,272.721 12.800 C 272.539 12.800,271.628 12.453,270.696 12.029 C 269.763 11.605,267.920 10.955,266.600 10.585 C 265.280 10.216,263.887 9.753,263.505 9.557 C 263.123 9.360,262.448 9.200,262.005 9.200 C 261.562 9.200,261.200 9.055,261.200 8.878 C 261.200 8.701,260.435 8.512,259.500 8.458 C 258.565 8.404,255.910 7.827,253.600 7.175 C 247.178 5.362,246.400 5.099,246.400 4.736 C 246.400 4.551,245.680 4.400,244.800 4.400 C 243.920 4.400,243.200 4.220,243.200 4.000 C 243.200 3.780,242.390 3.600,241.400 3.600 C 240.410 3.600,239.600 3.420,239.600 3.200 C 239.600 2.980,238.610 2.800,237.400 2.800 C 236.190 2.800,235.200 2.620,235.200 2.400 C 235.200 2.180,234.210 2.000,233.000 2.000 C 231.790 2.000,230.800 1.847,230.800 1.661 C 230.800 1.474,229.501 1.283,227.912 1.237 C 226.324 1.191,224.778 0.948,224.477 0.698 C 223.929 0.243,190.860 -0.075,180.406 0.274 M179.962 83.589 C 185.281 85.114,185.774 86.531,185.922 100.700 L 186.044 112.400 211.959 112.400 L 237.874 112.400 239.637 113.323 C 240.719 113.889,241.902 114.988,242.700 116.168 L 244.000 118.090 244.000 144.255 L 244.000 170.419 250.900 170.309 L 257.800 170.200 258.000 158.400 C 258.198 146.732,258.211 146.584,259.169 145.169 C 262.491 140.261,268.343 140.515,272.700 145.755 C 273.635 146.880,274.863 148.340,275.428 149.000 C 276.403 150.139,276.849 150.655,279.768 154.020 C 280.446 154.802,281.830 156.422,282.845 157.620 C 283.860 158.819,285.995 161.330,287.589 163.200 C 290.957 167.151,291.171 167.403,295.390 172.412 C 297.144 174.496,298.687 176.290,298.820 176.400 C 298.952 176.510,301.363 179.300,304.177 182.600 C 306.990 185.900,310.127 189.574,311.146 190.766 C 318.082 198.868,318.325 201.349,312.786 207.490 C 312.024 208.334,310.413 210.190,309.206 211.613 C 307.999 213.036,306.829 214.398,306.606 214.639 C 306.383 214.881,305.300 216.138,304.200 217.432 C 303.100 218.727,301.120 221.054,299.800 222.604 C 294.917 228.338,293.323 230.223,292.571 231.150 C 292.147 231.673,291.440 232.483,290.999 232.950 C 290.559 233.418,289.209 234.965,287.999 236.389 C 282.707 242.618,277.287 248.973,276.260 250.151 C 275.854 250.618,274.954 251.703,274.260 252.563 C 268.790 259.347,264.436 260.464,260.207 256.167 C 257.768 253.689,257.600 252.675,257.600 240.406 L 257.600 229.600 250.800 229.600 L 244.000 229.600 244.000 255.646 L 244.000 281.691 243.100 283.346 C 240.719 287.722,242.027 287.542,211.894 287.626 L 186.000 287.698 185.998 298.549 C 185.995 312.129,185.560 313.839,181.600 315.859 C 179.216 317.075,177.394 317.031,173.247 315.659 C 171.351 315.031,167.910 313.930,165.600 313.211 C 163.290 312.492,161.040 311.766,160.600 311.598 C 160.160 311.429,158.990 311.070,158.000 310.800 C 157.010 310.530,155.840 310.170,155.400 310.000 C 154.960 309.830,153.790 309.473,152.800 309.207 C 151.810 308.940,150.687 308.560,150.305 308.361 C 149.923 308.162,149.336 308.000,149.000 308.000 C 148.664 308.000,148.077 307.838,147.695 307.639 C 147.313 307.440,146.190 307.054,145.200 306.781 C 142.759 306.108,138.381 304.764,137.400 304.388 C 136.960 304.219,135.250 303.683,133.600 303.196 C 131.950 302.709,128.620 301.696,126.200 300.946 C 123.780 300.196,120.540 299.198,119.000 298.729 C 112.125 296.637,108.549 295.485,107.905 295.155 C 107.523 294.960,106.936 294.800,106.600 294.800 C 106.264 294.800,105.677 294.638,105.295 294.439 C 104.913 294.240,103.790 293.863,102.800 293.600 C 101.810 293.337,100.687 292.960,100.305 292.761 C 99.923 292.562,99.259 292.400,98.829 292.400 C 98.399 292.400,97.936 292.220,97.800 292.000 C 97.664 291.780,97.111 291.600,96.571 291.600 C 96.031 291.600,95.277 291.438,94.895 291.241 C 94.513 291.044,92.850 290.477,91.200 289.982 C 86.194 288.478,84.738 287.995,83.952 287.574 C 83.168 287.155,82.726 114.062,83.506 113.000 C 83.939 112.410,85.498 111.600,86.200 111.600 C 86.536 111.600,87.123 111.438,87.505 111.239 C 87.887 111.040,89.010 110.663,90.000 110.400 C 90.990 110.137,92.113 109.760,92.495 109.561 C 92.877 109.362,93.541 109.200,93.971 109.200 C 94.401 109.200,94.864 109.020,95.000 108.800 C 95.136 108.580,95.766 108.400,96.400 108.400 C 97.034 108.400,97.664 108.220,97.800 108.000 C 97.936 107.780,98.399 107.600,98.829 107.600 C 99.259 107.600,99.923 107.438,100.305 107.241 C 100.687 107.044,102.350 106.479,104.000 105.986 C 105.650 105.492,107.990 104.771,109.200 104.382 C 110.410 103.992,113.830 102.928,116.800 102.017 C 119.770 101.106,124.270 99.722,126.800 98.942 C 129.330 98.162,132.030 97.336,132.800 97.107 C 133.570 96.877,134.560 96.555,135.000 96.390 C 135.440 96.226,136.610 95.873,137.600 95.607 C 138.590 95.340,139.713 94.960,140.095 94.761 C 140.477 94.562,141.141 94.400,141.571 94.400 C 142.001 94.400,142.464 94.220,142.600 94.000 C 142.736 93.780,143.366 93.600,144.000 93.600 C 144.634 93.600,145.264 93.420,145.400 93.200 C 145.536 92.980,145.999 92.800,146.429 92.800 C 146.859 92.800,147.523 92.638,147.905 92.441 C 148.287 92.244,149.950 91.682,151.600 91.193 C 153.250 90.705,154.960 90.168,155.400 90.000 C 155.840 89.832,157.460 89.315,159.000 88.849 C 160.540 88.384,163.060 87.622,164.600 87.157 C 166.140 86.691,169.290 85.712,171.600 84.983 C 177.740 83.043,177.941 83.009,179.962 83.589 " stroke="none" fill="#04b0fa" fill-rule="evenodd"></path><path id="path2" d="M32.394 8.300 C 22.978 17.530,19.421 21.091,7.900 32.823 L 0.000 40.868 0.000 48.834 C 0.000 53.215,0.076 56.800,0.168 56.800 C 0.261 56.800,1.033 56.125,1.885 55.300 C 2.736 54.475,6.269 51.100,9.735 47.800 C 13.202 44.500,19.584 38.225,23.919 33.856 C 28.254 29.487,32.490 25.257,33.333 24.456 C 34.176 23.655,35.405 22.432,36.063 21.737 C 36.722 21.043,40.172 17.527,43.730 13.924 C 50.609 6.960,56.123 1.172,56.574 0.443 C 56.770 0.125,54.597 -0.000,48.854 -0.000 L 40.861 0.000 32.394 8.300 M109.400 1.699 C 77.372 33.598,6.400 104.574,3.700 107.408 L 0.000 111.290 0.000 119.289 L 0.000 127.288 3.900 123.671 C 6.045 121.681,10.840 117.076,14.555 113.437 C 18.271 109.798,21.493 106.934,21.717 107.072 C 21.950 107.216,22.001 107.125,21.836 106.859 C 21.676 106.599,21.825 106.289,22.175 106.154 C 22.519 106.022,22.800 105.673,22.800 105.377 C 22.800 105.082,23.025 104.696,23.300 104.520 C 23.865 104.158,25.136 102.156,25.471 101.100 C 25.593 100.715,25.852 100.400,26.047 100.400 C 26.241 100.400,26.400 100.130,26.400 99.800 C 26.400 99.470,26.536 99.200,26.702 99.200 C 26.869 99.200,27.262 98.615,27.575 97.900 C 28.159 96.570,36.270 83.961,36.774 83.600 C 36.927 83.490,37.663 82.504,38.408 81.409 C 39.904 79.212,40.599 78.320,41.809 77.050 C 42.253 76.582,43.061 75.570,43.603 74.800 C 44.145 74.030,44.951 72.968,45.394 72.440 C 52.670 63.771,59.987 56.193,66.836 50.234 C 72.684 45.146,73.098 44.801,74.800 43.603 C 75.570 43.061,76.582 42.253,77.050 41.809 C 78.320 40.599,79.212 39.904,81.409 38.408 C 82.504 37.663,83.490 36.927,83.600 36.774 C 83.961 36.270,96.570 28.159,97.900 27.575 C 98.615 27.262,99.200 26.869,99.200 26.702 C 99.200 26.536,99.455 26.400,99.767 26.400 C 100.078 26.400,100.393 26.265,100.467 26.100 C 100.634 25.724,102.764 24.425,103.700 24.129 C 104.085 24.007,104.400 23.748,104.400 23.553 C 104.400 23.359,104.664 23.200,104.986 23.200 C 105.308 23.200,105.767 22.835,106.006 22.389 C 106.245 21.943,106.639 21.700,106.882 21.851 C 107.130 22.004,107.212 21.942,107.069 21.711 C 106.928 21.484,110.159 17.905,114.247 13.758 C 118.335 9.610,122.941 4.818,124.482 3.109 L 127.285 0.000 119.142 0.053 L 111.000 0.106 109.400 1.699 M249.300 2.336 C 246.459 4.948,246.342 5.200,247.976 5.200 C 248.623 5.200,249.264 5.380,249.400 5.600 C 249.536 5.820,250.166 6.000,250.800 6.000 C 251.434 6.000,252.064 6.180,252.200 6.400 C 252.336 6.620,252.966 6.800,253.600 6.800 C 254.234 6.800,254.864 6.980,255.000 7.200 C 255.136 7.420,255.766 7.600,256.400 7.600 C 257.034 7.600,257.664 7.780,257.800 8.000 C 258.714 9.480,266.480 3.402,267.533 0.382 C 267.615 0.147,264.611 0.007,259.733 0.019 L 251.800 0.038 249.300 2.336 M309.607 12.264 L 297.201 24.527 298.580 25.464 C 299.337 25.979,300.147 26.400,300.379 26.400 C 300.610 26.400,300.800 26.536,300.800 26.702 C 300.800 26.869,301.385 27.259,302.100 27.571 C 302.815 27.882,304.298 28.736,305.395 29.468 C 306.492 30.201,307.581 30.800,307.816 30.800 C 308.552 30.800,336.742 2.301,337.720 0.567 C 337.991 0.086,336.826 0.000,330.026 0.000 L 322.013 0.000 309.607 12.264 M391.600 1.069 C 390.224 2.416,385.565 6.776,384.157 8.035 C 383.521 8.604,382.439 9.684,381.754 10.435 C 381.069 11.186,379.629 12.655,378.554 13.700 C 375.833 16.346,376.211 15.973,369.690 22.453 C 366.451 25.672,363.323 28.822,362.741 29.453 C 362.159 30.084,359.099 33.140,355.941 36.245 C 352.783 39.350,348.549 43.580,346.531 45.645 C 344.512 47.710,342.172 50.033,341.331 50.806 C 340.489 51.579,339.382 52.684,338.871 53.262 L 337.943 54.313 341.880 58.356 C 344.046 60.580,346.084 62.398,346.409 62.395 C 346.992 62.389,385.577 23.881,395.100 13.801 L 400.000 8.614 400.000 4.307 L 400.000 0.000 396.300 0.045 C 392.946 0.087,392.506 0.183,391.600 1.069 M395.866 66.800 C 393.702 68.890,387.081 75.415,381.153 81.300 C 375.225 87.185,370.200 92.000,369.987 92.000 C 369.344 92.000,369.520 92.454,371.601 96.164 C 372.700 98.124,373.600 99.793,373.600 99.873 C 373.600 100.318,375.770 103.200,376.106 103.200 C 376.538 103.200,392.207 87.445,397.046 82.145 L 400.017 78.889 399.909 70.945 L 399.800 63.000 395.866 66.800 M186.000 200.000 L 186.000 287.227 212.363 287.114 L 238.726 287.000 240.263 285.758 C 243.606 283.055,243.386 285.095,243.511 255.700 C 243.600 234.750,243.521 229.588,243.111 229.541 C 242.830 229.508,234.230 229.463,224.000 229.441 L 205.400 229.400 203.919 228.479 C 203.105 227.973,201.890 226.813,201.219 225.901 L 200.000 224.242 200.000 200.447 C 200.000 173.456,199.879 174.502,203.279 172.145 L 204.931 171.000 224.276 170.885 L 243.622 170.771 243.511 144.420 L 243.400 118.068 242.194 116.353 C 239.687 112.786,241.676 113.015,212.100 112.886 L 186.000 112.772 186.000 200.000 M398.957 134.115 C 398.713 134.382,396.958 136.094,395.057 137.921 C 391.783 141.066,391.083 142.000,392.000 142.000 C 392.220 142.000,392.400 142.619,392.400 143.376 C 392.400 144.133,392.580 144.864,392.800 145.000 C 393.020 145.136,393.200 145.777,393.200 146.424 C 393.200 147.071,393.380 147.600,393.600 147.600 C 393.820 147.600,394.000 148.219,394.000 148.976 C 394.000 149.733,394.180 150.464,394.400 150.600 C 394.620 150.736,394.800 151.447,394.800 152.181 C 394.800 154.314,395.693 154.147,397.942 151.592 L 400.000 149.254 400.000 141.427 C 400.000 133.833,399.894 133.090,398.957 134.115 M399.709 218.400 C 399.709 219.390,399.787 219.795,399.882 219.300 C 399.978 218.805,399.978 217.995,399.882 217.500 C 399.787 217.005,399.709 217.410,399.709 218.400 M2.271 249.371 L 0.000 251.942 0.000 259.771 C 0.000 264.077,0.111 267.600,0.248 267.600 C 2.381 267.600,9.433 258.686,8.000 257.800 C 7.780 257.664,7.600 257.034,7.600 256.400 C 7.600 255.766,7.420 255.136,7.200 255.000 C 6.980 254.864,6.800 254.234,6.800 253.600 C 6.800 252.966,6.620 252.336,6.400 252.200 C 6.180 252.064,6.000 251.434,6.000 250.800 C 6.000 250.166,5.820 249.536,5.600 249.400 C 5.380 249.264,5.200 248.623,5.200 247.976 C 5.200 246.300,4.826 246.478,2.271 249.371 M394.450 279.100 C 385.412 287.961,382.994 290.364,379.177 294.279 C 375.562 297.987,372.800 301.225,372.800 301.754 C 372.800 301.993,367.118 311.041,366.491 311.800 C 366.310 312.020,365.372 313.370,364.408 314.800 C 363.444 316.230,362.508 317.460,362.328 317.533 C 362.147 317.607,362.000 317.845,362.000 318.062 C 362.000 318.279,361.775 318.686,361.500 318.965 C 361.225 319.245,360.550 320.070,360.000 320.800 C 359.450 321.530,358.814 322.323,358.587 322.563 C 358.360 322.804,357.738 323.630,357.206 324.400 C 356.674 325.170,356.139 325.890,356.018 326.000 C 355.897 326.110,354.448 327.819,352.799 329.797 C 349.337 333.949,346.324 337.222,341.773 341.773 C 337.222 346.324,333.949 349.337,329.797 352.799 C 327.819 354.448,326.110 355.897,326.000 356.018 C 325.890 356.139,325.170 356.674,324.400 357.206 C 323.630 357.738,322.804 358.360,322.563 358.587 C 322.323 358.814,321.530 359.450,320.800 360.000 C 320.070 360.550,319.245 361.225,318.965 361.500 C 318.686 361.775,318.279 362.000,318.062 362.000 C 317.845 362.000,317.607 362.147,317.533 362.328 C 317.460 362.508,316.230 363.444,314.800 364.408 C 313.370 365.372,312.020 366.310,311.800 366.491 C 311.041 367.118,301.993 372.800,301.754 372.800 C 301.398 372.800,298.441 375.130,296.454 376.977 C 293.868 379.381,293.498 379.747,292.362 381.029 C 291.792 381.673,290.892 382.579,290.362 383.043 C 288.067 385.054,274.400 399.223,274.400 399.592 C 274.400 399.855,277.180 400.000,282.240 400.000 L 290.079 400.000 291.968 398.100 C 293.622 396.435,296.736 393.465,302.221 388.319 C 303.090 387.504,303.999 386.604,304.241 386.319 C 304.484 386.033,305.474 385.056,306.441 384.146 C 307.409 383.236,308.485 382.156,308.833 381.746 C 309.180 381.336,310.080 380.442,310.833 379.761 C 311.585 379.080,312.949 377.730,313.865 376.761 C 314.781 375.792,319.069 371.490,323.393 367.200 C 327.717 362.910,331.942 358.680,332.782 357.800 C 333.621 356.920,334.644 355.912,335.054 355.560 C 335.464 355.208,337.276 353.408,339.079 351.560 C 340.882 349.712,345.043 345.540,348.324 342.290 C 351.606 339.039,354.922 335.709,355.694 334.890 C 356.466 334.070,358.786 331.735,360.849 329.699 C 362.912 327.664,364.806 325.774,365.059 325.499 C 365.311 325.225,367.201 323.343,369.259 321.317 C 372.298 318.326,385.325 305.343,386.836 303.800 C 387.051 303.580,388.413 302.140,389.862 300.600 C 391.311 299.060,394.185 296.053,396.248 293.917 L 400.000 290.033 400.000 282.217 C 400.000 277.574,399.846 274.400,399.622 274.400 C 399.414 274.400,397.087 276.515,394.450 279.100 M12.065 309.814 L 0.000 322.027 -0.000 330.033 C -0.000 336.735,0.090 337.988,0.553 337.720 C 2.300 336.709,30.800 308.544,30.800 307.828 C 30.800 307.587,30.201 306.492,29.468 305.395 C 28.736 304.298,27.882 302.815,27.571 302.100 C 27.259 301.385,26.869 300.800,26.702 300.800 C 26.536 300.800,26.400 300.603,26.400 300.362 C 26.400 299.795,24.840 297.600,24.438 297.600 C 24.268 297.600,18.700 303.096,12.065 309.814 M52.067 339.950 C 50.155 341.991,48.100 344.056,29.400 362.740 C 15.625 376.503,3.914 388.462,1.500 391.231 C 0.010 392.940,0.000 392.976,0.000 396.476 L 0.000 400.000 4.300 400.000 L 8.600 400.000 13.394 395.500 C 16.031 393.025,28.260 380.970,40.570 368.712 L 62.951 346.424 58.678 342.212 C 53.770 337.375,54.307 337.558,52.067 339.950 M395.793 348.100 C 386.766 356.758,345.286 398.451,344.654 399.500 C 344.417 399.893,346.047 400.000,352.293 400.000 L 360.233 400.000 365.014 395.500 C 370.754 390.097,390.640 370.218,396.100 364.425 L 400.000 360.287 400.000 352.344 C 400.000 347.975,399.921 344.400,399.825 344.400 C 399.729 344.400,397.914 346.065,395.793 348.100 M92.000 369.993 C 92.000 370.210,87.545 374.871,82.100 380.351 C 68.282 394.260,63.200 399.478,63.200 399.759 C 63.200 399.891,66.734 400.000,71.053 400.000 L 78.907 400.000 82.968 396.239 C 89.267 390.406,103.200 376.536,103.200 376.098 C 103.200 375.768,100.312 373.600,99.873 373.600 C 99.793 373.600,98.124 372.700,96.164 371.601 C 92.446 369.516,92.000 369.343,92.000 369.993 M139.082 393.844 C 137.937 395.078,136.235 396.817,135.300 397.709 C 132.873 400.023,132.814 400.001,141.500 399.985 L 149.400 399.971 151.628 397.870 C 154.082 395.556,154.220 394.800,152.190 394.800 C 151.452 394.800,150.736 394.620,150.600 394.400 C 150.464 394.180,149.733 394.000,148.976 394.000 C 148.219 394.000,147.600 393.820,147.600 393.600 C 147.600 393.380,147.071 393.200,146.424 393.200 C 145.777 393.200,145.136 393.020,145.000 392.800 C 144.864 392.580,144.133 392.400,143.376 392.400 C 142.619 392.400,142.000 392.220,142.000 392.000 C 142.000 391.117,141.063 391.709,139.082 393.844 M217.500 399.882 C 217.995 399.978,218.805 399.978,219.300 399.882 C 219.795 399.787,219.390 399.709,218.400 399.709 C 217.410 399.709,217.005 399.787,217.500 399.882 " stroke="none" fill="#1c3c7c" fill-rule="evenodd"></path><path id="path3" d="M248.000 5.600 C 248.788 6.109,249.715 6.109,249.400 5.600 C 249.264 5.380,248.758 5.203,248.276 5.206 C 247.564 5.211,247.512 5.285,248.000 5.600 M251.000 6.400 C 252.101 6.873,252.492 6.873,252.200 6.400 C 252.064 6.180,251.558 6.013,251.076 6.028 C 250.231 6.055,250.229 6.069,251.000 6.400 M253.800 7.200 C 254.901 7.673,255.292 7.673,255.000 7.200 C 254.864 6.980,254.358 6.813,253.876 6.828 C 253.031 6.855,253.029 6.869,253.800 7.200 M256.600 8.000 C 257.701 8.473,258.092 8.473,257.800 8.000 C 257.664 7.780,257.158 7.613,256.676 7.628 C 255.831 7.655,255.829 7.669,256.600 8.000 M297.600 25.099 C 297.600 25.294,298.320 25.857,299.200 26.352 C 300.080 26.847,300.800 27.060,300.800 26.826 C 300.800 26.592,300.603 26.400,300.362 26.400 C 300.121 26.400,299.401 26.028,298.762 25.573 C 298.123 25.118,297.600 24.905,297.600 25.099 M97.422 27.724 C 94.588 29.458,83.763 36.546,83.600 36.774 C 83.490 36.927,82.504 37.663,81.409 38.408 C 79.212 39.904,78.320 40.599,77.050 41.809 C 76.582 42.253,75.570 43.061,74.800 43.603 C 73.098 44.801,72.684 45.146,66.836 50.234 C 59.987 56.193,52.670 63.771,45.394 72.440 C 44.951 72.968,44.145 74.030,43.603 74.800 C 43.061 75.570,42.253 76.582,41.809 77.050 C 40.599 78.320,39.904 79.212,38.408 81.409 C 37.663 82.504,36.927 83.490,36.773 83.600 C 35.892 84.231,27.033 98.367,27.332 98.665 C 27.426 98.759,28.005 97.973,28.619 96.918 C 43.901 70.658,67.301 47.404,98.251 27.724 C 98.663 27.461,98.820 27.247,98.600 27.247 C 98.380 27.247,97.850 27.461,97.422 27.724 M301.200 27.354 C 301.200 27.579,306.680 30.800,307.063 30.800 C 307.449 30.800,305.118 29.190,303.052 28.029 C 301.577 27.201,301.200 27.063,301.200 27.354 M338.000 54.835 C 338.000 55.376,345.340 62.800,345.876 62.800 C 346.088 62.800,345.334 61.855,344.200 60.700 C 343.067 59.545,341.208 57.654,340.069 56.498 C 338.931 55.342,338.000 54.594,338.000 54.835 M369.607 93.206 C 369.603 93.540,370.275 94.980,371.100 96.407 C 371.925 97.834,372.960 99.687,373.400 100.526 C 373.840 101.364,374.553 102.354,374.984 102.725 C 375.759 103.392,375.760 103.386,375.049 102.260 C 374.653 101.632,373.767 100.102,373.082 98.860 C 372.396 97.617,371.335 95.700,370.725 94.600 C 370.114 93.500,369.611 92.873,369.607 93.206 M185.867 112.667 C 185.325 113.208,185.558 287.598,186.100 287.625 C 186.375 287.638,198.118 287.628,212.196 287.601 C 241.995 287.545,240.720 287.721,243.103 283.340 L 244.006 281.681 243.903 255.340 L 243.800 229.000 224.600 229.000 C 209.585 229.000,205.182 228.886,204.400 228.478 C 203.496 228.006,203.471 228.013,204.134 228.547 C 205.350 229.526,210.217 229.729,226.829 229.491 C 235.535 229.367,242.875 229.399,243.140 229.563 C 243.511 229.792,243.597 235.899,243.511 255.831 C 243.386 285.078,243.605 283.056,240.263 285.758 L 238.726 287.000 212.363 287.114 L 186.000 287.227 186.000 200.000 L 186.000 112.772 212.100 112.886 C 241.676 113.015,239.687 112.786,242.194 116.353 L 243.400 118.068 243.511 144.430 L 243.622 170.792 224.911 170.902 L 206.200 171.012 225.000 171.006 L 243.800 171.000 243.903 144.549 L 244.006 118.099 242.703 116.172 C 241.902 114.988,240.720 113.890,239.637 113.323 L 237.874 112.400 212.004 112.400 C 197.775 112.400,186.013 112.520,185.867 112.667 M391.628 142.300 C 391.738 143.473,392.346 144.126,392.372 143.100 C 392.387 142.495,392.220 142.000,392.000 142.000 C 391.780 142.000,391.613 142.135,391.628 142.300 M392.428 145.076 C 392.518 146.115,393.144 146.996,393.172 146.124 C 393.187 145.642,393.020 145.136,392.800 145.000 C 392.580 144.864,392.413 144.898,392.428 145.076 M393.228 147.900 C 393.338 149.073,393.946 149.726,393.972 148.700 C 393.987 148.095,393.820 147.600,393.600 147.600 C 393.380 147.600,393.213 147.735,393.228 147.900 M394.240 151.466 C 394.608 152.999,394.800 153.144,394.800 151.890 C 394.800 151.317,394.613 150.732,394.384 150.590 C 394.111 150.421,394.062 150.723,394.240 151.466 M151.961 171.977 C 136.875 177.726,140.395 199.449,156.400 199.377 C 173.006 199.303,175.961 176.786,160.040 171.640 C 158.066 171.001,154.084 171.168,151.961 171.977 M203.544 172.024 L 202.600 172.847 203.800 172.145 C 205.379 171.220,205.403 171.200,204.911 171.200 C 204.679 171.200,204.064 171.571,203.544 172.024 M200.229 176.229 C 200.081 176.815,200.038 177.372,200.132 177.466 C 200.227 177.560,200.424 177.158,200.571 176.571 C 200.719 175.985,200.762 175.428,200.668 175.334 C 200.573 175.240,200.376 175.642,200.229 176.229 M200.137 203.400 C 200.139 205.160,200.209 205.830,200.293 204.889 C 200.378 203.949,200.377 202.509,200.291 201.689 C 200.205 200.870,200.136 201.640,200.137 203.400 M200.032 223.456 C 200.014 223.926,200.315 224.655,200.700 225.075 C 201.085 225.494,201.289 225.649,201.154 225.419 C 201.018 225.188,200.717 224.460,200.485 223.800 C 200.148 222.840,200.057 222.771,200.032 223.456 M5.206 248.276 C 5.203 248.758,5.380 249.264,5.600 249.400 C 6.109 249.715,6.109 248.788,5.600 248.000 C 5.285 247.512,5.211 247.564,5.206 248.276 M6.028 251.076 C 6.013 251.558,6.180 252.064,6.400 252.200 C 6.873 252.492,6.873 252.101,6.400 251.000 C 6.069 250.229,6.055 250.231,6.028 251.076 M6.828 253.876 C 6.813 254.358,6.980 254.864,7.200 255.000 C 7.673 255.292,7.673 254.901,7.200 253.800 C 6.869 253.029,6.855 253.031,6.828 253.876 M7.628 256.676 C 7.613 257.158,7.780 257.664,8.000 257.800 C 8.473 258.092,8.473 257.701,8.000 256.600 C 7.669 255.829,7.655 255.831,7.628 256.676 M25.573 298.762 C 26.028 299.401,26.400 300.121,26.400 300.362 C 26.400 300.603,26.592 300.800,26.826 300.800 C 27.060 300.800,26.847 300.080,26.352 299.200 C 25.857 298.320,25.294 297.600,25.099 297.600 C 24.905 297.600,25.118 298.123,25.573 298.762 M27.200 301.388 C 27.200 301.676,28.745 304.362,29.829 305.957 C 31.372 308.227,30.956 307.002,29.154 303.970 C 27.661 301.457,27.200 300.847,27.200 301.388 M369.641 305.993 C 368.025 308.384,366.500 310.691,366.252 311.120 C 366.003 311.549,364.810 313.294,363.600 314.998 C 362.390 316.701,361.130 318.486,360.800 318.963 C 352.276 331.296,331.296 352.276,318.963 360.800 C 318.486 361.130,316.700 362.390,314.994 363.600 C 313.289 364.810,311.607 365.980,311.258 366.200 C 308.093 368.193,302.364 372.134,302.166 372.455 C 302.029 372.677,303.510 371.826,305.458 370.565 C 307.406 369.304,309.630 367.904,310.400 367.454 C 311.170 367.004,311.890 366.524,312.000 366.388 C 312.110 366.252,313.370 365.356,314.800 364.398 C 316.230 363.439,317.460 362.508,317.533 362.328 C 317.607 362.147,317.845 362.000,318.062 362.000 C 318.279 362.000,318.686 361.775,318.965 361.500 C 319.245 361.225,320.070 360.550,320.800 360.000 C 321.530 359.450,322.323 358.814,322.563 358.587 C 322.804 358.360,323.630 357.738,324.400 357.206 C 325.170 356.674,325.890 356.139,326.000 356.018 C 326.110 355.897,327.819 354.448,329.797 352.799 C 337.632 346.267,346.267 337.632,352.799 329.797 C 354.448 327.819,355.897 326.110,356.018 326.000 C 356.139 325.890,356.674 325.170,357.206 324.400 C 357.738 323.630,358.360 322.804,358.587 322.563 C 358.814 322.323,359.450 321.530,360.000 320.800 C 360.550 320.070,361.225 319.245,361.500 318.965 C 361.775 318.686,362.000 318.279,362.000 318.062 C 362.000 317.845,362.147 317.607,362.328 317.533 C 362.508 317.460,363.444 316.230,364.408 314.800 C 365.372 313.370,366.310 312.020,366.491 311.800 C 367.290 310.832,372.836 301.903,372.714 301.781 C 372.640 301.706,371.257 303.602,369.641 305.993 M56.717 340.259 C 57.973 341.501,59.960 343.496,61.132 344.693 C 62.305 345.889,63.049 346.448,62.786 345.934 C 62.200 344.790,55.397 338.000,54.837 338.000 C 54.616 338.000,55.462 339.016,56.717 340.259 M94.600 370.725 C 95.700 371.335,97.617 372.396,98.860 373.082 C 100.102 373.767,101.632 374.653,102.260 375.049 C 103.386 375.760,103.392 375.759,102.725 374.984 C 102.354 374.553,101.364 373.844,100.525 373.408 C 99.686 372.972,97.872 371.937,96.493 371.108 C 95.114 370.279,93.674 369.603,93.293 369.607 C 92.912 369.611,93.500 370.114,94.600 370.725 M142.000 392.000 C 142.000 392.220,142.495 392.387,143.100 392.372 C 144.075 392.347,144.109 392.305,143.400 392.000 C 142.307 391.531,142.000 391.531,142.000 392.000 M145.000 392.800 C 145.136 393.020,145.642 393.187,146.124 393.172 C 146.969 393.145,146.971 393.131,146.200 392.800 C 145.099 392.327,144.708 392.327,145.000 392.800 M147.600 393.600 C 147.600 393.820,148.095 393.987,148.700 393.972 C 149.675 393.947,149.709 393.905,149.000 393.600 C 147.907 393.131,147.600 393.131,147.600 393.600 M150.590 394.384 C 150.732 394.613,151.317 394.800,151.890 394.800 C 153.144 394.800,152.999 394.608,151.466 394.240 C 150.723 394.062,150.421 394.111,150.590 394.384 " stroke="none" fill="#1c88e0" fill-rule="evenodd"></path><path id="path4" d="M176.600 83.474 C 176.160 83.574,173.910 84.253,171.600 84.983 C 169.290 85.712,166.140 86.691,164.600 87.157 C 163.060 87.622,160.540 88.384,159.000 88.849 C 157.460 89.315,155.840 89.832,155.400 90.000 C 154.960 90.168,153.250 90.705,151.600 91.193 C 149.950 91.682,148.287 92.244,147.905 92.441 C 147.523 92.638,146.859 92.800,146.429 92.800 C 145.999 92.800,145.524 92.999,145.374 93.243 C 145.187 93.544,145.403 93.599,146.050 93.415 C 148.048 92.845,158.029 89.787,162.400 88.406 C 163.610 88.024,165.950 87.298,167.600 86.793 C 169.250 86.288,171.909 85.453,173.508 84.938 C 178.740 83.251,182.245 84.028,184.162 87.298 L 185.200 89.070 185.200 200.143 L 185.200 311.216 184.241 312.735 C 181.792 316.614,179.287 317.034,172.200 314.754 C 170.880 314.330,169.170 313.794,168.400 313.565 C 167.630 313.335,166.640 313.000,166.200 312.821 C 165.760 312.642,164.050 312.089,162.400 311.592 C 160.750 311.095,158.410 310.377,157.200 309.997 C 155.990 309.616,153.200 308.755,151.000 308.083 C 148.800 307.411,144.872 306.200,142.271 305.393 C 139.670 304.585,137.439 304.027,137.314 304.153 C 137.188 304.278,137.336 304.451,137.643 304.537 C 137.949 304.623,139.370 305.051,140.800 305.489 C 142.230 305.926,144.210 306.508,145.200 306.781 C 146.190 307.054,147.313 307.440,147.695 307.639 C 148.077 307.838,148.664 308.000,149.000 308.000 C 149.336 308.000,149.923 308.162,150.305 308.361 C 150.687 308.560,151.810 308.940,152.800 309.207 C 153.790 309.473,154.960 309.830,155.400 310.000 C 155.840 310.170,157.010 310.530,158.000 310.800 C 158.990 311.070,160.160 311.429,160.600 311.598 C 161.040 311.766,163.290 312.492,165.600 313.211 C 167.910 313.930,171.351 315.031,173.247 315.659 C 179.163 317.617,182.818 316.686,184.849 312.704 L 185.680 311.074 185.682 199.966 L 185.684 88.858 184.821 87.322 C 183.203 84.444,179.652 82.782,176.600 83.474 M142.600 94.000 C 142.464 94.220,142.001 94.400,141.571 94.400 C 141.141 94.400,140.477 94.562,140.095 94.761 C 139.713 94.960,138.590 95.340,137.600 95.607 C 136.610 95.873,135.440 96.226,135.000 96.390 C 134.560 96.555,133.570 96.879,132.800 97.111 C 126.105 99.131,124.382 99.715,124.568 99.902 C 124.687 100.020,126.543 99.563,128.692 98.884 C 141.558 94.823,144.885 93.678,143.924 93.641 C 143.332 93.619,142.736 93.780,142.600 94.000 M122.600 100.207 C 122.380 100.286,119.770 101.099,116.800 102.012 C 113.830 102.926,110.410 103.992,109.200 104.382 C 107.990 104.771,105.650 105.492,104.000 105.986 C 102.350 106.479,100.687 107.044,100.305 107.241 C 99.923 107.438,99.259 107.600,98.829 107.600 C 98.399 107.600,97.936 107.780,97.800 108.000 C 97.664 108.220,97.034 108.400,96.400 108.400 C 95.766 108.400,95.136 108.580,95.000 108.800 C 94.864 109.020,94.401 109.200,93.971 109.200 C 93.541 109.200,92.877 109.362,92.495 109.561 C 92.113 109.760,90.990 110.137,90.000 110.400 C 89.010 110.663,87.887 111.040,87.505 111.239 C 87.123 111.438,86.536 111.600,86.200 111.600 C 85.498 111.600,83.939 112.410,83.506 113.000 C 82.726 114.062,83.168 287.155,83.952 287.574 C 84.730 287.990,86.066 288.435,91.200 289.988 C 92.850 290.487,94.581 291.072,95.047 291.287 C 95.514 291.503,96.225 291.615,96.629 291.538 C 97.033 291.460,94.491 290.511,90.982 289.430 C 87.472 288.348,84.398 287.221,84.152 286.926 C 83.696 286.380,83.381 115.015,83.833 113.527 C 84.038 112.849,86.687 111.873,95.600 109.195 C 97.910 108.501,100.790 107.613,102.000 107.222 C 103.210 106.831,106.090 105.921,108.400 105.200 C 110.710 104.479,113.590 103.568,114.800 103.177 C 116.010 102.786,118.575 101.985,120.500 101.397 C 122.425 100.810,124.000 100.255,124.000 100.164 C 124.000 99.973,123.181 99.998,122.600 100.207 M263.600 141.926 C 258.631 143.289,258.236 144.451,258.000 158.400 L 257.800 170.200 251.010 170.310 C 247.183 170.372,244.046 170.594,243.821 170.819 C 243.555 171.085,245.893 171.182,250.811 171.109 L 258.200 171.000 258.416 159.200 C 258.622 147.899,258.670 147.332,259.534 145.800 C 262.243 141.000,268.139 141.072,272.101 145.951 C 272.926 146.968,274.096 148.358,274.701 149.040 C 275.305 149.722,276.610 151.245,277.600 152.425 C 279.593 154.802,282.086 157.690,282.409 158.000 C 282.524 158.110,284.588 160.540,286.995 163.400 C 289.402 166.260,291.470 168.690,291.591 168.800 C 291.712 168.910,292.616 169.990,293.600 171.200 C 294.584 172.410,295.481 173.490,295.595 173.600 C 295.798 173.798,300.203 178.861,301.856 180.797 C 302.327 181.349,304.106 183.420,305.808 185.400 C 315.379 196.532,315.734 197.038,315.773 199.597 C 315.797 201.213,314.522 204.557,313.637 205.200 C 313.485 205.310,312.923 206.030,312.386 206.800 C 311.850 207.570,310.688 208.936,309.805 209.836 C 308.922 210.736,307.840 211.925,307.400 212.479 C 306.521 213.585,303.910 216.632,301.356 219.533 C 300.452 220.560,298.845 222.480,297.784 223.800 C 296.723 225.120,295.570 226.470,295.223 226.800 C 294.875 227.130,294.108 228.050,293.518 228.844 C 292.927 229.639,291.759 231.020,290.922 231.914 C 288.960 234.008,285.965 237.498,285.212 238.566 C 284.888 239.025,284.258 239.777,283.812 240.238 C 282.422 241.674,280.026 244.486,276.401 248.938 C 276.070 249.344,274.933 250.604,273.873 251.738 C 272.813 252.872,271.649 254.295,271.287 254.900 C 270.924 255.505,270.396 256.000,270.114 256.000 C 269.831 256.000,269.600 256.180,269.600 256.400 C 269.600 256.620,269.330 256.800,269.000 256.800 C 268.670 256.800,268.400 256.980,268.400 257.200 C 268.400 257.778,263.356 257.695,262.317 257.100 C 261.202 256.461,259.939 255.198,259.300 254.083 C 258.931 253.440,258.800 250.134,258.800 241.485 C 258.800 227.738,259.203 228.800,253.987 228.800 C 251.867 228.800,250.006 228.673,249.851 228.518 C 249.696 228.362,255.830 221.972,263.482 214.318 L 277.396 200.400 270.569 200.400 L 263.742 200.400 249.771 214.354 C 242.087 222.029,235.440 228.398,235.000 228.508 C 234.560 228.617,236.304 228.728,238.876 228.754 C 241.509 228.780,243.661 228.975,243.800 229.200 C 243.949 229.441,246.737 229.600,250.824 229.600 L 257.600 229.600 257.600 240.406 C 257.600 252.675,257.768 253.689,260.207 256.167 C 264.436 260.464,268.790 259.347,274.260 252.563 C 274.954 251.703,275.854 250.618,276.260 250.151 C 277.287 248.973,282.707 242.618,287.999 236.389 C 289.209 234.965,290.559 233.418,290.999 232.950 C 291.440 232.483,292.147 231.673,292.571 231.150 C 293.323 230.223,294.917 228.338,299.800 222.604 C 301.120 221.054,303.100 218.727,304.200 217.432 C 305.300 216.138,306.383 214.881,306.606 214.639 C 306.829 214.398,307.999 213.036,309.206 211.613 C 310.413 210.190,312.024 208.334,312.786 207.490 C 318.325 201.349,318.082 198.868,311.146 190.766 C 310.127 189.574,306.990 185.900,304.177 182.600 C 301.363 179.300,298.952 176.510,298.820 176.400 C 298.687 176.290,297.144 174.496,295.390 172.412 C 291.171 167.403,290.957 167.151,287.589 163.200 C 285.995 161.330,283.860 158.819,282.845 157.620 C 281.830 156.422,280.446 154.802,279.768 154.020 C 276.849 150.655,276.403 150.139,275.428 149.000 C 274.863 148.340,273.635 146.880,272.700 145.755 C 269.859 142.338,266.796 141.049,263.600 141.926 M152.378 171.357 C 141.483 175.552,138.293 187.687,146.004 195.604 C 157.572 207.480,176.882 193.680,169.485 178.822 C 166.529 172.884,158.037 169.178,152.378 171.357 M160.040 171.640 C 175.961 176.786,173.006 199.303,156.400 199.377 C 140.395 199.449,136.875 177.726,151.961 171.977 C 154.084 171.168,158.066 171.001,160.040 171.640 M201.600 174.000 C 201.130 174.660,200.836 175.200,200.946 175.200 C 201.056 175.200,201.530 174.660,202.000 174.000 C 202.470 173.340,202.764 172.800,202.654 172.800 C 202.544 172.800,202.070 173.340,201.600 174.000 M200.259 177.305 C 199.821 179.054,200.024 222.132,200.478 223.600 C 200.946 225.114,202.372 227.362,202.672 227.061 C 202.774 226.959,202.547 226.514,202.169 226.072 C 200.708 224.366,200.412 222.434,200.410 214.600 L 200.409 207.000 203.643 203.800 L 206.878 200.600 203.617 200.483 L 200.356 200.367 200.478 188.383 C 200.545 181.792,200.575 176.400,200.543 176.400 C 200.512 176.400,200.384 176.807,200.259 177.305 M203.200 227.487 C 203.200 228.008,205.031 228.808,206.119 228.764 C 206.737 228.739,206.582 228.608,205.600 228.328 C 204.830 228.108,203.975 227.742,203.700 227.515 C 203.399 227.267,203.200 227.255,203.200 227.487 M214.100 229.099 C 217.785 229.165,223.815 229.165,227.500 229.099 C 231.185 229.033,228.170 228.979,220.800 228.979 C 213.430 228.979,210.415 229.033,214.100 229.099 M97.774 291.957 C 97.924 292.201,98.399 292.400,98.829 292.400 C 99.259 292.400,99.923 292.562,100.305 292.761 C 100.687 292.960,101.810 293.337,102.800 293.600 C 103.790 293.863,104.913 294.240,105.295 294.439 C 105.677 294.638,106.264 294.800,106.600 294.800 C 106.936 294.800,107.523 294.960,107.905 295.155 C 108.560 295.490,112.644 296.803,119.000 298.722 C 121.857 299.585,126.767 301.109,132.742 302.988 C 134.580 303.566,136.290 303.970,136.542 303.886 C 136.794 303.802,135.380 303.239,133.400 302.634 C 131.420 302.029,128.810 301.214,127.600 300.823 C 126.390 300.431,124.050 299.700,122.400 299.197 C 120.750 298.694,117.870 297.795,116.000 297.200 C 107.469 294.485,102.042 292.810,98.450 291.785 C 97.803 291.601,97.587 291.656,97.774 291.957 " stroke="none" fill="#59c2f7" fill-rule="evenodd"></path></g></svg>